G04 MADE WITH FRITZING*
G04 WWW.FRITZING.ORG*
G04 DOUBLE SIDED*
G04 HOLES PLATED*
G04 CONTOUR ON CENTER OF CONTOUR VECTOR*
%ASAXBY*%
%FSLAX23Y23*%
%MOIN*%
%OFA0B0*%
%SFA1.0B1.0*%
%ADD10C,0.075000*%
%ADD11C,0.145669*%
%ADD12C,0.073749*%
%ADD13C,0.073889*%
%ADD14C,0.066111*%
%ADD15C,0.066139*%
%ADD16C,0.066083*%
%ADD17R,0.001000X0.001000*%
%LNCOPPER1*%
G90*
G70*
G54D10*
X2604Y2093D03*
G54D11*
X383Y1706D03*
X387Y1506D03*
X383Y1706D03*
X387Y1506D03*
G54D12*
X2438Y1339D03*
X2438Y1439D03*
X2438Y1639D03*
G54D13*
X316Y396D03*
X416Y396D03*
X516Y396D03*
X616Y396D03*
G54D10*
X1051Y1513D03*
X1451Y1513D03*
G54D14*
X2122Y103D03*
X2222Y103D03*
X2322Y103D03*
X2422Y103D03*
X2522Y103D03*
X1662Y2003D03*
X1562Y2003D03*
X1462Y2003D03*
X1362Y2003D03*
X1262Y2003D03*
X1162Y2003D03*
X1062Y2003D03*
X962Y2003D03*
X862Y2003D03*
X762Y2003D03*
X2522Y2003D03*
X2422Y2003D03*
X2322Y2003D03*
G54D15*
X2222Y2003D03*
G54D14*
X2122Y2003D03*
X2022Y2003D03*
X1922Y2003D03*
X1822Y2003D03*
X1222Y103D03*
G54D16*
X1122Y103D03*
X1322Y103D03*
G54D14*
X1422Y103D03*
X1522Y103D03*
X1622Y103D03*
X1722Y103D03*
X1822Y103D03*
X2022Y103D03*
X2621Y1205D03*
G54D15*
X2521Y1205D03*
G54D14*
X2621Y1106D03*
G54D15*
X2521Y1106D03*
X2621Y1007D03*
X2521Y1007D03*
G54D14*
X752Y1860D03*
X752Y1760D03*
X856Y1860D03*
X856Y1760D03*
X648Y1860D03*
X648Y1760D03*
G36*
X40Y2163D02*
X40Y2075D01*
X2538Y2075D01*
X2538Y2073D01*
X2544Y2073D01*
X2544Y2071D01*
X2550Y2071D01*
X2550Y2069D01*
X2554Y2069D01*
X2554Y2067D01*
X2558Y2067D01*
X2558Y2065D01*
X2562Y2065D01*
X2562Y2063D01*
X2564Y2063D01*
X2564Y2061D01*
X2566Y2061D01*
X2566Y2059D01*
X2570Y2059D01*
X2570Y2057D01*
X2572Y2057D01*
X2572Y2055D01*
X2574Y2055D01*
X2574Y2053D01*
X2576Y2053D01*
X2576Y2051D01*
X2578Y2051D01*
X2578Y2047D01*
X2580Y2047D01*
X2580Y2045D01*
X2582Y2045D01*
X2582Y2043D01*
X2584Y2043D01*
X2584Y2039D01*
X2586Y2039D01*
X2586Y2035D01*
X2588Y2035D01*
X2588Y2031D01*
X2590Y2031D01*
X2590Y2027D01*
X2592Y2027D01*
X2592Y2019D01*
X2594Y2019D01*
X2594Y1987D01*
X2592Y1987D01*
X2592Y1979D01*
X2590Y1979D01*
X2590Y1975D01*
X2588Y1975D01*
X2588Y1971D01*
X2586Y1971D01*
X2586Y1967D01*
X2584Y1967D01*
X2584Y1963D01*
X2582Y1963D01*
X2582Y1961D01*
X2580Y1961D01*
X2580Y1959D01*
X2578Y1959D01*
X2578Y1955D01*
X2576Y1955D01*
X2576Y1953D01*
X2574Y1953D01*
X2574Y1951D01*
X2572Y1951D01*
X2572Y1949D01*
X2570Y1949D01*
X2570Y1947D01*
X2566Y1947D01*
X2566Y1945D01*
X2564Y1945D01*
X2564Y1943D01*
X2562Y1943D01*
X2562Y1941D01*
X2558Y1941D01*
X2558Y1939D01*
X2554Y1939D01*
X2554Y1937D01*
X2550Y1937D01*
X2550Y1935D01*
X2544Y1935D01*
X2544Y1933D01*
X2538Y1933D01*
X2538Y1931D01*
X2686Y1931D01*
X2686Y2163D01*
X40Y2163D01*
G37*
D02*
G36*
X40Y2075D02*
X40Y1933D01*
X656Y1933D01*
X656Y1931D01*
X666Y1931D01*
X666Y1929D01*
X674Y1929D01*
X674Y1927D01*
X678Y1927D01*
X678Y1925D01*
X682Y1925D01*
X682Y1923D01*
X686Y1923D01*
X686Y1921D01*
X688Y1921D01*
X688Y1919D01*
X712Y1919D01*
X712Y1921D01*
X716Y1921D01*
X716Y1923D01*
X718Y1923D01*
X718Y1925D01*
X720Y1925D01*
X720Y1945D01*
X718Y1945D01*
X718Y1947D01*
X714Y1947D01*
X714Y1949D01*
X712Y1949D01*
X712Y1951D01*
X710Y1951D01*
X710Y1953D01*
X708Y1953D01*
X708Y1955D01*
X706Y1955D01*
X706Y1959D01*
X704Y1959D01*
X704Y1961D01*
X702Y1961D01*
X702Y1965D01*
X700Y1965D01*
X700Y1967D01*
X698Y1967D01*
X698Y1971D01*
X696Y1971D01*
X696Y1975D01*
X694Y1975D01*
X694Y1981D01*
X692Y1981D01*
X692Y1989D01*
X690Y1989D01*
X690Y2017D01*
X692Y2017D01*
X692Y2025D01*
X694Y2025D01*
X694Y2031D01*
X696Y2031D01*
X696Y2035D01*
X698Y2035D01*
X698Y2039D01*
X700Y2039D01*
X700Y2041D01*
X702Y2041D01*
X702Y2045D01*
X704Y2045D01*
X704Y2047D01*
X706Y2047D01*
X706Y2051D01*
X708Y2051D01*
X708Y2053D01*
X710Y2053D01*
X710Y2055D01*
X712Y2055D01*
X712Y2057D01*
X714Y2057D01*
X714Y2059D01*
X718Y2059D01*
X718Y2061D01*
X720Y2061D01*
X720Y2063D01*
X724Y2063D01*
X724Y2065D01*
X726Y2065D01*
X726Y2067D01*
X730Y2067D01*
X730Y2069D01*
X734Y2069D01*
X734Y2071D01*
X740Y2071D01*
X740Y2073D01*
X748Y2073D01*
X748Y2075D01*
X40Y2075D01*
G37*
D02*
G36*
X778Y2075D02*
X778Y2073D01*
X784Y2073D01*
X784Y2071D01*
X790Y2071D01*
X790Y2069D01*
X794Y2069D01*
X794Y2067D01*
X798Y2067D01*
X798Y2065D01*
X802Y2065D01*
X802Y2063D01*
X824Y2063D01*
X824Y2065D01*
X826Y2065D01*
X826Y2067D01*
X830Y2067D01*
X830Y2069D01*
X834Y2069D01*
X834Y2071D01*
X840Y2071D01*
X840Y2073D01*
X848Y2073D01*
X848Y2075D01*
X778Y2075D01*
G37*
D02*
G36*
X878Y2075D02*
X878Y2073D01*
X884Y2073D01*
X884Y2071D01*
X890Y2071D01*
X890Y2069D01*
X894Y2069D01*
X894Y2067D01*
X898Y2067D01*
X898Y2065D01*
X902Y2065D01*
X902Y2063D01*
X924Y2063D01*
X924Y2065D01*
X926Y2065D01*
X926Y2067D01*
X930Y2067D01*
X930Y2069D01*
X934Y2069D01*
X934Y2071D01*
X940Y2071D01*
X940Y2073D01*
X948Y2073D01*
X948Y2075D01*
X878Y2075D01*
G37*
D02*
G36*
X978Y2075D02*
X978Y2073D01*
X984Y2073D01*
X984Y2071D01*
X990Y2071D01*
X990Y2069D01*
X994Y2069D01*
X994Y2067D01*
X998Y2067D01*
X998Y2065D01*
X1002Y2065D01*
X1002Y2063D01*
X1024Y2063D01*
X1024Y2065D01*
X1026Y2065D01*
X1026Y2067D01*
X1030Y2067D01*
X1030Y2069D01*
X1034Y2069D01*
X1034Y2071D01*
X1040Y2071D01*
X1040Y2073D01*
X1048Y2073D01*
X1048Y2075D01*
X978Y2075D01*
G37*
D02*
G36*
X1078Y2075D02*
X1078Y2073D01*
X1084Y2073D01*
X1084Y2071D01*
X1090Y2071D01*
X1090Y2069D01*
X1094Y2069D01*
X1094Y2067D01*
X1098Y2067D01*
X1098Y2065D01*
X1102Y2065D01*
X1102Y2063D01*
X1124Y2063D01*
X1124Y2065D01*
X1126Y2065D01*
X1126Y2067D01*
X1130Y2067D01*
X1130Y2069D01*
X1134Y2069D01*
X1134Y2071D01*
X1140Y2071D01*
X1140Y2073D01*
X1148Y2073D01*
X1148Y2075D01*
X1078Y2075D01*
G37*
D02*
G36*
X1178Y2075D02*
X1178Y2073D01*
X1184Y2073D01*
X1184Y2071D01*
X1190Y2071D01*
X1190Y2069D01*
X1194Y2069D01*
X1194Y2067D01*
X1198Y2067D01*
X1198Y2065D01*
X1202Y2065D01*
X1202Y2063D01*
X1224Y2063D01*
X1224Y2065D01*
X1226Y2065D01*
X1226Y2067D01*
X1230Y2067D01*
X1230Y2069D01*
X1234Y2069D01*
X1234Y2071D01*
X1240Y2071D01*
X1240Y2073D01*
X1248Y2073D01*
X1248Y2075D01*
X1178Y2075D01*
G37*
D02*
G36*
X1278Y2075D02*
X1278Y2073D01*
X1284Y2073D01*
X1284Y2071D01*
X1290Y2071D01*
X1290Y2069D01*
X1294Y2069D01*
X1294Y2067D01*
X1298Y2067D01*
X1298Y2065D01*
X1302Y2065D01*
X1302Y2063D01*
X1324Y2063D01*
X1324Y2065D01*
X1326Y2065D01*
X1326Y2067D01*
X1330Y2067D01*
X1330Y2069D01*
X1334Y2069D01*
X1334Y2071D01*
X1340Y2071D01*
X1340Y2073D01*
X1348Y2073D01*
X1348Y2075D01*
X1278Y2075D01*
G37*
D02*
G36*
X1378Y2075D02*
X1378Y2073D01*
X1384Y2073D01*
X1384Y2071D01*
X1390Y2071D01*
X1390Y2069D01*
X1394Y2069D01*
X1394Y2067D01*
X1398Y2067D01*
X1398Y2065D01*
X1402Y2065D01*
X1402Y2063D01*
X1424Y2063D01*
X1424Y2065D01*
X1426Y2065D01*
X1426Y2067D01*
X1430Y2067D01*
X1430Y2069D01*
X1434Y2069D01*
X1434Y2071D01*
X1440Y2071D01*
X1440Y2073D01*
X1448Y2073D01*
X1448Y2075D01*
X1378Y2075D01*
G37*
D02*
G36*
X1478Y2075D02*
X1478Y2073D01*
X1484Y2073D01*
X1484Y2071D01*
X1490Y2071D01*
X1490Y2069D01*
X1494Y2069D01*
X1494Y2067D01*
X1498Y2067D01*
X1498Y2065D01*
X1502Y2065D01*
X1502Y2063D01*
X1524Y2063D01*
X1524Y2065D01*
X1526Y2065D01*
X1526Y2067D01*
X1530Y2067D01*
X1530Y2069D01*
X1534Y2069D01*
X1534Y2071D01*
X1540Y2071D01*
X1540Y2073D01*
X1548Y2073D01*
X1548Y2075D01*
X1478Y2075D01*
G37*
D02*
G36*
X1578Y2075D02*
X1578Y2073D01*
X1584Y2073D01*
X1584Y2071D01*
X1590Y2071D01*
X1590Y2069D01*
X1594Y2069D01*
X1594Y2067D01*
X1598Y2067D01*
X1598Y2065D01*
X1602Y2065D01*
X1602Y2063D01*
X1624Y2063D01*
X1624Y2065D01*
X1626Y2065D01*
X1626Y2067D01*
X1630Y2067D01*
X1630Y2069D01*
X1634Y2069D01*
X1634Y2071D01*
X1640Y2071D01*
X1640Y2073D01*
X1648Y2073D01*
X1648Y2075D01*
X1578Y2075D01*
G37*
D02*
G36*
X1678Y2075D02*
X1678Y2073D01*
X1684Y2073D01*
X1684Y2071D01*
X1690Y2071D01*
X1690Y2069D01*
X1694Y2069D01*
X1694Y2067D01*
X1698Y2067D01*
X1698Y2065D01*
X1702Y2065D01*
X1702Y2063D01*
X1704Y2063D01*
X1704Y2061D01*
X1706Y2061D01*
X1706Y2059D01*
X1710Y2059D01*
X1710Y2057D01*
X1712Y2057D01*
X1712Y2055D01*
X1714Y2055D01*
X1714Y2053D01*
X1716Y2053D01*
X1716Y2051D01*
X1718Y2051D01*
X1718Y2047D01*
X1720Y2047D01*
X1720Y2045D01*
X1722Y2045D01*
X1722Y2043D01*
X1724Y2043D01*
X1724Y2039D01*
X1726Y2039D01*
X1726Y2035D01*
X1728Y2035D01*
X1728Y2031D01*
X1730Y2031D01*
X1730Y2027D01*
X1732Y2027D01*
X1732Y2019D01*
X1752Y2019D01*
X1752Y2025D01*
X1754Y2025D01*
X1754Y2031D01*
X1756Y2031D01*
X1756Y2035D01*
X1758Y2035D01*
X1758Y2039D01*
X1760Y2039D01*
X1760Y2041D01*
X1762Y2041D01*
X1762Y2045D01*
X1764Y2045D01*
X1764Y2047D01*
X1766Y2047D01*
X1766Y2049D01*
X1768Y2049D01*
X1768Y2053D01*
X1770Y2053D01*
X1770Y2055D01*
X1772Y2055D01*
X1772Y2057D01*
X1774Y2057D01*
X1774Y2059D01*
X1778Y2059D01*
X1778Y2061D01*
X1780Y2061D01*
X1780Y2063D01*
X1784Y2063D01*
X1784Y2065D01*
X1786Y2065D01*
X1786Y2067D01*
X1790Y2067D01*
X1790Y2069D01*
X1794Y2069D01*
X1794Y2071D01*
X1800Y2071D01*
X1800Y2073D01*
X1808Y2073D01*
X1808Y2075D01*
X1678Y2075D01*
G37*
D02*
G36*
X1838Y2075D02*
X1838Y2073D01*
X1844Y2073D01*
X1844Y2071D01*
X1850Y2071D01*
X1850Y2069D01*
X1854Y2069D01*
X1854Y2067D01*
X1858Y2067D01*
X1858Y2065D01*
X1862Y2065D01*
X1862Y2063D01*
X1884Y2063D01*
X1884Y2065D01*
X1886Y2065D01*
X1886Y2067D01*
X1890Y2067D01*
X1890Y2069D01*
X1894Y2069D01*
X1894Y2071D01*
X1900Y2071D01*
X1900Y2073D01*
X1908Y2073D01*
X1908Y2075D01*
X1838Y2075D01*
G37*
D02*
G36*
X1938Y2075D02*
X1938Y2073D01*
X1944Y2073D01*
X1944Y2071D01*
X1950Y2071D01*
X1950Y2069D01*
X1954Y2069D01*
X1954Y2067D01*
X1958Y2067D01*
X1958Y2065D01*
X1962Y2065D01*
X1962Y2063D01*
X1984Y2063D01*
X1984Y2065D01*
X1986Y2065D01*
X1986Y2067D01*
X1990Y2067D01*
X1990Y2069D01*
X1994Y2069D01*
X1994Y2071D01*
X2000Y2071D01*
X2000Y2073D01*
X2008Y2073D01*
X2008Y2075D01*
X1938Y2075D01*
G37*
D02*
G36*
X2038Y2075D02*
X2038Y2073D01*
X2044Y2073D01*
X2044Y2071D01*
X2050Y2071D01*
X2050Y2069D01*
X2054Y2069D01*
X2054Y2067D01*
X2058Y2067D01*
X2058Y2065D01*
X2062Y2065D01*
X2062Y2063D01*
X2084Y2063D01*
X2084Y2065D01*
X2086Y2065D01*
X2086Y2067D01*
X2090Y2067D01*
X2090Y2069D01*
X2094Y2069D01*
X2094Y2071D01*
X2100Y2071D01*
X2100Y2073D01*
X2108Y2073D01*
X2108Y2075D01*
X2038Y2075D01*
G37*
D02*
G36*
X2138Y2075D02*
X2138Y2073D01*
X2144Y2073D01*
X2144Y2071D01*
X2150Y2071D01*
X2150Y2069D01*
X2154Y2069D01*
X2154Y2067D01*
X2158Y2067D01*
X2158Y2065D01*
X2162Y2065D01*
X2162Y2063D01*
X2184Y2063D01*
X2184Y2065D01*
X2186Y2065D01*
X2186Y2067D01*
X2190Y2067D01*
X2190Y2069D01*
X2194Y2069D01*
X2194Y2071D01*
X2200Y2071D01*
X2200Y2073D01*
X2208Y2073D01*
X2208Y2075D01*
X2138Y2075D01*
G37*
D02*
G36*
X2238Y2075D02*
X2238Y2073D01*
X2244Y2073D01*
X2244Y2071D01*
X2250Y2071D01*
X2250Y2069D01*
X2254Y2069D01*
X2254Y2067D01*
X2258Y2067D01*
X2258Y2065D01*
X2262Y2065D01*
X2262Y2063D01*
X2284Y2063D01*
X2284Y2065D01*
X2286Y2065D01*
X2286Y2067D01*
X2290Y2067D01*
X2290Y2069D01*
X2294Y2069D01*
X2294Y2071D01*
X2300Y2071D01*
X2300Y2073D01*
X2308Y2073D01*
X2308Y2075D01*
X2238Y2075D01*
G37*
D02*
G36*
X2338Y2075D02*
X2338Y2073D01*
X2344Y2073D01*
X2344Y2071D01*
X2350Y2071D01*
X2350Y2069D01*
X2354Y2069D01*
X2354Y2067D01*
X2358Y2067D01*
X2358Y2065D01*
X2362Y2065D01*
X2362Y2063D01*
X2384Y2063D01*
X2384Y2065D01*
X2386Y2065D01*
X2386Y2067D01*
X2390Y2067D01*
X2390Y2069D01*
X2394Y2069D01*
X2394Y2071D01*
X2400Y2071D01*
X2400Y2073D01*
X2408Y2073D01*
X2408Y2075D01*
X2338Y2075D01*
G37*
D02*
G36*
X2438Y2075D02*
X2438Y2073D01*
X2444Y2073D01*
X2444Y2071D01*
X2450Y2071D01*
X2450Y2069D01*
X2454Y2069D01*
X2454Y2067D01*
X2458Y2067D01*
X2458Y2065D01*
X2462Y2065D01*
X2462Y2063D01*
X2484Y2063D01*
X2484Y2065D01*
X2486Y2065D01*
X2486Y2067D01*
X2490Y2067D01*
X2490Y2069D01*
X2494Y2069D01*
X2494Y2071D01*
X2500Y2071D01*
X2500Y2073D01*
X2508Y2073D01*
X2508Y2075D01*
X2438Y2075D01*
G37*
D02*
G36*
X1732Y1987D02*
X1732Y1979D01*
X1730Y1979D01*
X1730Y1975D01*
X1728Y1975D01*
X1728Y1971D01*
X1726Y1971D01*
X1726Y1967D01*
X1724Y1967D01*
X1724Y1963D01*
X1722Y1963D01*
X1722Y1961D01*
X1720Y1961D01*
X1720Y1959D01*
X1718Y1959D01*
X1718Y1955D01*
X1716Y1955D01*
X1716Y1953D01*
X1714Y1953D01*
X1714Y1951D01*
X1712Y1951D01*
X1712Y1949D01*
X1710Y1949D01*
X1710Y1947D01*
X1706Y1947D01*
X1706Y1945D01*
X1704Y1945D01*
X1704Y1943D01*
X1702Y1943D01*
X1702Y1941D01*
X1698Y1941D01*
X1698Y1939D01*
X1694Y1939D01*
X1694Y1937D01*
X1690Y1937D01*
X1690Y1935D01*
X1684Y1935D01*
X1684Y1933D01*
X1678Y1933D01*
X1678Y1931D01*
X1808Y1931D01*
X1808Y1933D01*
X1800Y1933D01*
X1800Y1935D01*
X1794Y1935D01*
X1794Y1937D01*
X1790Y1937D01*
X1790Y1939D01*
X1786Y1939D01*
X1786Y1941D01*
X1784Y1941D01*
X1784Y1943D01*
X1780Y1943D01*
X1780Y1945D01*
X1778Y1945D01*
X1778Y1947D01*
X1774Y1947D01*
X1774Y1949D01*
X1772Y1949D01*
X1772Y1951D01*
X1770Y1951D01*
X1770Y1953D01*
X1768Y1953D01*
X1768Y1957D01*
X1766Y1957D01*
X1766Y1959D01*
X1764Y1959D01*
X1764Y1961D01*
X1762Y1961D01*
X1762Y1965D01*
X1760Y1965D01*
X1760Y1967D01*
X1758Y1967D01*
X1758Y1971D01*
X1756Y1971D01*
X1756Y1975D01*
X1754Y1975D01*
X1754Y1981D01*
X1752Y1981D01*
X1752Y1987D01*
X1732Y1987D01*
G37*
D02*
G36*
X902Y1943D02*
X902Y1941D01*
X898Y1941D01*
X898Y1939D01*
X896Y1939D01*
X896Y1931D01*
X948Y1931D01*
X948Y1933D01*
X940Y1933D01*
X940Y1935D01*
X934Y1935D01*
X934Y1937D01*
X930Y1937D01*
X930Y1939D01*
X926Y1939D01*
X926Y1941D01*
X924Y1941D01*
X924Y1943D01*
X902Y1943D01*
G37*
D02*
G36*
X1002Y1943D02*
X1002Y1941D01*
X998Y1941D01*
X998Y1939D01*
X994Y1939D01*
X994Y1937D01*
X990Y1937D01*
X990Y1935D01*
X984Y1935D01*
X984Y1933D01*
X978Y1933D01*
X978Y1931D01*
X1048Y1931D01*
X1048Y1933D01*
X1040Y1933D01*
X1040Y1935D01*
X1034Y1935D01*
X1034Y1937D01*
X1030Y1937D01*
X1030Y1939D01*
X1026Y1939D01*
X1026Y1941D01*
X1024Y1941D01*
X1024Y1943D01*
X1002Y1943D01*
G37*
D02*
G36*
X1102Y1943D02*
X1102Y1941D01*
X1098Y1941D01*
X1098Y1939D01*
X1094Y1939D01*
X1094Y1937D01*
X1090Y1937D01*
X1090Y1935D01*
X1084Y1935D01*
X1084Y1933D01*
X1078Y1933D01*
X1078Y1931D01*
X1148Y1931D01*
X1148Y1933D01*
X1140Y1933D01*
X1140Y1935D01*
X1134Y1935D01*
X1134Y1937D01*
X1130Y1937D01*
X1130Y1939D01*
X1126Y1939D01*
X1126Y1941D01*
X1124Y1941D01*
X1124Y1943D01*
X1102Y1943D01*
G37*
D02*
G36*
X1202Y1943D02*
X1202Y1941D01*
X1198Y1941D01*
X1198Y1939D01*
X1194Y1939D01*
X1194Y1937D01*
X1190Y1937D01*
X1190Y1935D01*
X1184Y1935D01*
X1184Y1933D01*
X1178Y1933D01*
X1178Y1931D01*
X1248Y1931D01*
X1248Y1933D01*
X1240Y1933D01*
X1240Y1935D01*
X1234Y1935D01*
X1234Y1937D01*
X1230Y1937D01*
X1230Y1939D01*
X1226Y1939D01*
X1226Y1941D01*
X1224Y1941D01*
X1224Y1943D01*
X1202Y1943D01*
G37*
D02*
G36*
X1302Y1943D02*
X1302Y1941D01*
X1298Y1941D01*
X1298Y1939D01*
X1294Y1939D01*
X1294Y1937D01*
X1290Y1937D01*
X1290Y1935D01*
X1284Y1935D01*
X1284Y1933D01*
X1278Y1933D01*
X1278Y1931D01*
X1348Y1931D01*
X1348Y1933D01*
X1340Y1933D01*
X1340Y1935D01*
X1334Y1935D01*
X1334Y1937D01*
X1330Y1937D01*
X1330Y1939D01*
X1326Y1939D01*
X1326Y1941D01*
X1324Y1941D01*
X1324Y1943D01*
X1302Y1943D01*
G37*
D02*
G36*
X1402Y1943D02*
X1402Y1941D01*
X1398Y1941D01*
X1398Y1939D01*
X1394Y1939D01*
X1394Y1937D01*
X1390Y1937D01*
X1390Y1935D01*
X1384Y1935D01*
X1384Y1933D01*
X1378Y1933D01*
X1378Y1931D01*
X1448Y1931D01*
X1448Y1933D01*
X1440Y1933D01*
X1440Y1935D01*
X1434Y1935D01*
X1434Y1937D01*
X1430Y1937D01*
X1430Y1939D01*
X1426Y1939D01*
X1426Y1941D01*
X1424Y1941D01*
X1424Y1943D01*
X1402Y1943D01*
G37*
D02*
G36*
X1502Y1943D02*
X1502Y1941D01*
X1498Y1941D01*
X1498Y1939D01*
X1494Y1939D01*
X1494Y1937D01*
X1490Y1937D01*
X1490Y1935D01*
X1484Y1935D01*
X1484Y1933D01*
X1478Y1933D01*
X1478Y1931D01*
X1548Y1931D01*
X1548Y1933D01*
X1540Y1933D01*
X1540Y1935D01*
X1534Y1935D01*
X1534Y1937D01*
X1530Y1937D01*
X1530Y1939D01*
X1526Y1939D01*
X1526Y1941D01*
X1524Y1941D01*
X1524Y1943D01*
X1502Y1943D01*
G37*
D02*
G36*
X1602Y1943D02*
X1602Y1941D01*
X1598Y1941D01*
X1598Y1939D01*
X1594Y1939D01*
X1594Y1937D01*
X1590Y1937D01*
X1590Y1935D01*
X1584Y1935D01*
X1584Y1933D01*
X1578Y1933D01*
X1578Y1931D01*
X1648Y1931D01*
X1648Y1933D01*
X1640Y1933D01*
X1640Y1935D01*
X1634Y1935D01*
X1634Y1937D01*
X1630Y1937D01*
X1630Y1939D01*
X1626Y1939D01*
X1626Y1941D01*
X1624Y1941D01*
X1624Y1943D01*
X1602Y1943D01*
G37*
D02*
G36*
X1862Y1943D02*
X1862Y1941D01*
X1858Y1941D01*
X1858Y1939D01*
X1854Y1939D01*
X1854Y1937D01*
X1850Y1937D01*
X1850Y1935D01*
X1844Y1935D01*
X1844Y1933D01*
X1838Y1933D01*
X1838Y1931D01*
X1908Y1931D01*
X1908Y1933D01*
X1900Y1933D01*
X1900Y1935D01*
X1894Y1935D01*
X1894Y1937D01*
X1890Y1937D01*
X1890Y1939D01*
X1886Y1939D01*
X1886Y1941D01*
X1884Y1941D01*
X1884Y1943D01*
X1862Y1943D01*
G37*
D02*
G36*
X1962Y1943D02*
X1962Y1941D01*
X1958Y1941D01*
X1958Y1939D01*
X1954Y1939D01*
X1954Y1937D01*
X1950Y1937D01*
X1950Y1935D01*
X1944Y1935D01*
X1944Y1933D01*
X1938Y1933D01*
X1938Y1931D01*
X2008Y1931D01*
X2008Y1933D01*
X2000Y1933D01*
X2000Y1935D01*
X1994Y1935D01*
X1994Y1937D01*
X1990Y1937D01*
X1990Y1939D01*
X1986Y1939D01*
X1986Y1941D01*
X1984Y1941D01*
X1984Y1943D01*
X1962Y1943D01*
G37*
D02*
G36*
X2062Y1943D02*
X2062Y1941D01*
X2058Y1941D01*
X2058Y1939D01*
X2054Y1939D01*
X2054Y1937D01*
X2050Y1937D01*
X2050Y1935D01*
X2044Y1935D01*
X2044Y1933D01*
X2038Y1933D01*
X2038Y1931D01*
X2108Y1931D01*
X2108Y1933D01*
X2100Y1933D01*
X2100Y1935D01*
X2094Y1935D01*
X2094Y1937D01*
X2090Y1937D01*
X2090Y1939D01*
X2086Y1939D01*
X2086Y1941D01*
X2084Y1941D01*
X2084Y1943D01*
X2062Y1943D01*
G37*
D02*
G36*
X2162Y1943D02*
X2162Y1941D01*
X2158Y1941D01*
X2158Y1939D01*
X2154Y1939D01*
X2154Y1937D01*
X2150Y1937D01*
X2150Y1935D01*
X2144Y1935D01*
X2144Y1933D01*
X2138Y1933D01*
X2138Y1931D01*
X2208Y1931D01*
X2208Y1933D01*
X2200Y1933D01*
X2200Y1935D01*
X2194Y1935D01*
X2194Y1937D01*
X2190Y1937D01*
X2190Y1939D01*
X2186Y1939D01*
X2186Y1941D01*
X2184Y1941D01*
X2184Y1943D01*
X2162Y1943D01*
G37*
D02*
G36*
X2262Y1943D02*
X2262Y1941D01*
X2258Y1941D01*
X2258Y1939D01*
X2254Y1939D01*
X2254Y1937D01*
X2250Y1937D01*
X2250Y1935D01*
X2244Y1935D01*
X2244Y1933D01*
X2238Y1933D01*
X2238Y1931D01*
X2308Y1931D01*
X2308Y1933D01*
X2300Y1933D01*
X2300Y1935D01*
X2294Y1935D01*
X2294Y1937D01*
X2290Y1937D01*
X2290Y1939D01*
X2286Y1939D01*
X2286Y1941D01*
X2284Y1941D01*
X2284Y1943D01*
X2262Y1943D01*
G37*
D02*
G36*
X2362Y1943D02*
X2362Y1941D01*
X2358Y1941D01*
X2358Y1939D01*
X2354Y1939D01*
X2354Y1937D01*
X2350Y1937D01*
X2350Y1935D01*
X2344Y1935D01*
X2344Y1933D01*
X2338Y1933D01*
X2338Y1931D01*
X2408Y1931D01*
X2408Y1933D01*
X2400Y1933D01*
X2400Y1935D01*
X2394Y1935D01*
X2394Y1937D01*
X2390Y1937D01*
X2390Y1939D01*
X2386Y1939D01*
X2386Y1941D01*
X2384Y1941D01*
X2384Y1943D01*
X2362Y1943D01*
G37*
D02*
G36*
X2462Y1943D02*
X2462Y1941D01*
X2458Y1941D01*
X2458Y1939D01*
X2454Y1939D01*
X2454Y1937D01*
X2450Y1937D01*
X2450Y1935D01*
X2444Y1935D01*
X2444Y1933D01*
X2438Y1933D01*
X2438Y1931D01*
X2508Y1931D01*
X2508Y1933D01*
X2500Y1933D01*
X2500Y1935D01*
X2494Y1935D01*
X2494Y1937D01*
X2490Y1937D01*
X2490Y1939D01*
X2486Y1939D01*
X2486Y1941D01*
X2484Y1941D01*
X2484Y1943D01*
X2462Y1943D01*
G37*
D02*
G36*
X40Y1933D02*
X40Y1819D01*
X396Y1819D01*
X396Y1817D01*
X408Y1817D01*
X408Y1815D01*
X416Y1815D01*
X416Y1813D01*
X422Y1813D01*
X422Y1811D01*
X428Y1811D01*
X428Y1809D01*
X432Y1809D01*
X432Y1807D01*
X436Y1807D01*
X436Y1805D01*
X440Y1805D01*
X440Y1803D01*
X442Y1803D01*
X442Y1801D01*
X446Y1801D01*
X446Y1799D01*
X448Y1799D01*
X448Y1797D01*
X452Y1797D01*
X452Y1795D01*
X454Y1795D01*
X454Y1793D01*
X456Y1793D01*
X456Y1791D01*
X458Y1791D01*
X458Y1789D01*
X460Y1789D01*
X460Y1787D01*
X462Y1787D01*
X462Y1785D01*
X464Y1785D01*
X464Y1783D01*
X466Y1783D01*
X466Y1781D01*
X468Y1781D01*
X468Y1779D01*
X470Y1779D01*
X470Y1777D01*
X472Y1777D01*
X472Y1775D01*
X474Y1775D01*
X474Y1771D01*
X476Y1771D01*
X476Y1769D01*
X478Y1769D01*
X478Y1765D01*
X480Y1765D01*
X480Y1763D01*
X482Y1763D01*
X482Y1759D01*
X484Y1759D01*
X484Y1755D01*
X486Y1755D01*
X486Y1751D01*
X488Y1751D01*
X488Y1745D01*
X490Y1745D01*
X490Y1739D01*
X492Y1739D01*
X492Y1733D01*
X494Y1733D01*
X494Y1721D01*
X496Y1721D01*
X496Y1691D01*
X494Y1691D01*
X494Y1689D01*
X632Y1689D01*
X632Y1691D01*
X624Y1691D01*
X624Y1693D01*
X620Y1693D01*
X620Y1695D01*
X616Y1695D01*
X616Y1697D01*
X612Y1697D01*
X612Y1699D01*
X608Y1699D01*
X608Y1701D01*
X606Y1701D01*
X606Y1703D01*
X604Y1703D01*
X604Y1705D01*
X600Y1705D01*
X600Y1707D01*
X598Y1707D01*
X598Y1709D01*
X596Y1709D01*
X596Y1711D01*
X594Y1711D01*
X594Y1713D01*
X592Y1713D01*
X592Y1717D01*
X590Y1717D01*
X590Y1719D01*
X588Y1719D01*
X588Y1723D01*
X586Y1723D01*
X586Y1725D01*
X584Y1725D01*
X584Y1729D01*
X582Y1729D01*
X582Y1733D01*
X580Y1733D01*
X580Y1739D01*
X578Y1739D01*
X578Y1747D01*
X576Y1747D01*
X576Y1773D01*
X578Y1773D01*
X578Y1781D01*
X580Y1781D01*
X580Y1787D01*
X582Y1787D01*
X582Y1791D01*
X584Y1791D01*
X584Y1795D01*
X586Y1795D01*
X586Y1799D01*
X588Y1799D01*
X588Y1821D01*
X586Y1821D01*
X586Y1825D01*
X584Y1825D01*
X584Y1829D01*
X582Y1829D01*
X582Y1833D01*
X580Y1833D01*
X580Y1839D01*
X578Y1839D01*
X578Y1847D01*
X576Y1847D01*
X576Y1873D01*
X578Y1873D01*
X578Y1881D01*
X580Y1881D01*
X580Y1887D01*
X582Y1887D01*
X582Y1891D01*
X584Y1891D01*
X584Y1895D01*
X586Y1895D01*
X586Y1899D01*
X588Y1899D01*
X588Y1901D01*
X590Y1901D01*
X590Y1903D01*
X592Y1903D01*
X592Y1907D01*
X594Y1907D01*
X594Y1909D01*
X596Y1909D01*
X596Y1911D01*
X598Y1911D01*
X598Y1913D01*
X600Y1913D01*
X600Y1915D01*
X602Y1915D01*
X602Y1917D01*
X606Y1917D01*
X606Y1919D01*
X608Y1919D01*
X608Y1921D01*
X612Y1921D01*
X612Y1923D01*
X614Y1923D01*
X614Y1925D01*
X618Y1925D01*
X618Y1927D01*
X624Y1927D01*
X624Y1929D01*
X630Y1929D01*
X630Y1931D01*
X640Y1931D01*
X640Y1933D01*
X40Y1933D01*
G37*
D02*
G36*
X896Y1931D02*
X896Y1929D01*
X2686Y1929D01*
X2686Y1931D01*
X896Y1931D01*
G37*
D02*
G36*
X896Y1931D02*
X896Y1929D01*
X2686Y1929D01*
X2686Y1931D01*
X896Y1931D01*
G37*
D02*
G36*
X896Y1931D02*
X896Y1929D01*
X2686Y1929D01*
X2686Y1931D01*
X896Y1931D01*
G37*
D02*
G36*
X896Y1931D02*
X896Y1929D01*
X2686Y1929D01*
X2686Y1931D01*
X896Y1931D01*
G37*
D02*
G36*
X896Y1931D02*
X896Y1929D01*
X2686Y1929D01*
X2686Y1931D01*
X896Y1931D01*
G37*
D02*
G36*
X896Y1931D02*
X896Y1929D01*
X2686Y1929D01*
X2686Y1931D01*
X896Y1931D01*
G37*
D02*
G36*
X896Y1931D02*
X896Y1929D01*
X2686Y1929D01*
X2686Y1931D01*
X896Y1931D01*
G37*
D02*
G36*
X896Y1931D02*
X896Y1929D01*
X2686Y1929D01*
X2686Y1931D01*
X896Y1931D01*
G37*
D02*
G36*
X896Y1931D02*
X896Y1929D01*
X2686Y1929D01*
X2686Y1931D01*
X896Y1931D01*
G37*
D02*
G36*
X896Y1931D02*
X896Y1929D01*
X2686Y1929D01*
X2686Y1931D01*
X896Y1931D01*
G37*
D02*
G36*
X896Y1931D02*
X896Y1929D01*
X2686Y1929D01*
X2686Y1931D01*
X896Y1931D01*
G37*
D02*
G36*
X896Y1931D02*
X896Y1929D01*
X2686Y1929D01*
X2686Y1931D01*
X896Y1931D01*
G37*
D02*
G36*
X896Y1931D02*
X896Y1929D01*
X2686Y1929D01*
X2686Y1931D01*
X896Y1931D01*
G37*
D02*
G36*
X896Y1931D02*
X896Y1929D01*
X2686Y1929D01*
X2686Y1931D01*
X896Y1931D01*
G37*
D02*
G36*
X896Y1931D02*
X896Y1929D01*
X2686Y1929D01*
X2686Y1931D01*
X896Y1931D01*
G37*
D02*
G36*
X896Y1931D02*
X896Y1929D01*
X2686Y1929D01*
X2686Y1931D01*
X896Y1931D01*
G37*
D02*
G36*
X896Y1931D02*
X896Y1929D01*
X2686Y1929D01*
X2686Y1931D01*
X896Y1931D01*
G37*
D02*
G36*
X896Y1929D02*
X896Y1919D01*
X900Y1919D01*
X900Y1917D01*
X902Y1917D01*
X902Y1915D01*
X904Y1915D01*
X904Y1913D01*
X906Y1913D01*
X906Y1911D01*
X908Y1911D01*
X908Y1909D01*
X910Y1909D01*
X910Y1907D01*
X912Y1907D01*
X912Y1905D01*
X914Y1905D01*
X914Y1903D01*
X916Y1903D01*
X916Y1899D01*
X918Y1899D01*
X918Y1897D01*
X920Y1897D01*
X920Y1893D01*
X922Y1893D01*
X922Y1889D01*
X924Y1889D01*
X924Y1883D01*
X926Y1883D01*
X926Y1877D01*
X928Y1877D01*
X928Y1843D01*
X926Y1843D01*
X926Y1837D01*
X924Y1837D01*
X924Y1831D01*
X922Y1831D01*
X922Y1827D01*
X920Y1827D01*
X920Y1823D01*
X918Y1823D01*
X918Y1821D01*
X916Y1821D01*
X916Y1801D01*
X918Y1801D01*
X918Y1797D01*
X920Y1797D01*
X920Y1793D01*
X922Y1793D01*
X922Y1789D01*
X924Y1789D01*
X924Y1783D01*
X926Y1783D01*
X926Y1777D01*
X928Y1777D01*
X928Y1745D01*
X926Y1745D01*
X926Y1737D01*
X924Y1737D01*
X924Y1731D01*
X922Y1731D01*
X922Y1727D01*
X920Y1727D01*
X920Y1725D01*
X918Y1725D01*
X918Y1721D01*
X916Y1721D01*
X916Y1719D01*
X914Y1719D01*
X914Y1717D01*
X2440Y1717D01*
X2440Y1715D01*
X2456Y1715D01*
X2456Y1713D01*
X2462Y1713D01*
X2462Y1711D01*
X2468Y1711D01*
X2468Y1709D01*
X2472Y1709D01*
X2472Y1707D01*
X2476Y1707D01*
X2476Y1705D01*
X2478Y1705D01*
X2478Y1703D01*
X2482Y1703D01*
X2482Y1701D01*
X2484Y1701D01*
X2484Y1699D01*
X2488Y1699D01*
X2488Y1697D01*
X2490Y1697D01*
X2490Y1695D01*
X2492Y1695D01*
X2492Y1693D01*
X2494Y1693D01*
X2494Y1691D01*
X2496Y1691D01*
X2496Y1689D01*
X2498Y1689D01*
X2498Y1685D01*
X2500Y1685D01*
X2500Y1683D01*
X2502Y1683D01*
X2502Y1679D01*
X2504Y1679D01*
X2504Y1677D01*
X2506Y1677D01*
X2506Y1673D01*
X2508Y1673D01*
X2508Y1669D01*
X2510Y1669D01*
X2510Y1663D01*
X2512Y1663D01*
X2512Y1655D01*
X2514Y1655D01*
X2514Y1623D01*
X2512Y1623D01*
X2512Y1615D01*
X2510Y1615D01*
X2510Y1609D01*
X2508Y1609D01*
X2508Y1605D01*
X2506Y1605D01*
X2506Y1601D01*
X2504Y1601D01*
X2504Y1599D01*
X2502Y1599D01*
X2502Y1595D01*
X2500Y1595D01*
X2500Y1593D01*
X2498Y1593D01*
X2498Y1591D01*
X2496Y1591D01*
X2496Y1587D01*
X2494Y1587D01*
X2494Y1585D01*
X2492Y1585D01*
X2492Y1583D01*
X2490Y1583D01*
X2490Y1581D01*
X2486Y1581D01*
X2486Y1579D01*
X2484Y1579D01*
X2484Y1577D01*
X2482Y1577D01*
X2482Y1575D01*
X2478Y1575D01*
X2478Y1573D01*
X2474Y1573D01*
X2474Y1571D01*
X2472Y1571D01*
X2472Y1569D01*
X2466Y1569D01*
X2466Y1567D01*
X2462Y1567D01*
X2462Y1565D01*
X2454Y1565D01*
X2454Y1563D01*
X2686Y1563D01*
X2686Y1929D01*
X896Y1929D01*
G37*
D02*
G36*
X40Y1819D02*
X40Y1391D01*
X276Y1391D01*
X276Y1445D01*
X274Y1445D01*
X274Y1559D01*
X272Y1559D01*
X272Y1617D01*
X296Y1617D01*
X296Y1637D01*
X294Y1637D01*
X294Y1639D01*
X292Y1639D01*
X292Y1641D01*
X290Y1641D01*
X290Y1645D01*
X288Y1645D01*
X288Y1647D01*
X286Y1647D01*
X286Y1651D01*
X284Y1651D01*
X284Y1655D01*
X282Y1655D01*
X282Y1659D01*
X280Y1659D01*
X280Y1663D01*
X278Y1663D01*
X278Y1669D01*
X276Y1669D01*
X276Y1675D01*
X274Y1675D01*
X274Y1683D01*
X272Y1683D01*
X272Y1697D01*
X270Y1697D01*
X270Y1717D01*
X272Y1717D01*
X272Y1729D01*
X274Y1729D01*
X274Y1737D01*
X276Y1737D01*
X276Y1743D01*
X278Y1743D01*
X278Y1749D01*
X280Y1749D01*
X280Y1753D01*
X282Y1753D01*
X282Y1757D01*
X284Y1757D01*
X284Y1761D01*
X286Y1761D01*
X286Y1765D01*
X288Y1765D01*
X288Y1769D01*
X290Y1769D01*
X290Y1771D01*
X292Y1771D01*
X292Y1773D01*
X294Y1773D01*
X294Y1777D01*
X296Y1777D01*
X296Y1779D01*
X298Y1779D01*
X298Y1781D01*
X300Y1781D01*
X300Y1783D01*
X302Y1783D01*
X302Y1785D01*
X304Y1785D01*
X304Y1787D01*
X306Y1787D01*
X306Y1789D01*
X308Y1789D01*
X308Y1791D01*
X310Y1791D01*
X310Y1793D01*
X312Y1793D01*
X312Y1795D01*
X316Y1795D01*
X316Y1797D01*
X318Y1797D01*
X318Y1799D01*
X320Y1799D01*
X320Y1801D01*
X324Y1801D01*
X324Y1803D01*
X328Y1803D01*
X328Y1805D01*
X332Y1805D01*
X332Y1807D01*
X336Y1807D01*
X336Y1809D01*
X340Y1809D01*
X340Y1811D01*
X344Y1811D01*
X344Y1813D01*
X350Y1813D01*
X350Y1815D01*
X358Y1815D01*
X358Y1817D01*
X370Y1817D01*
X370Y1819D01*
X40Y1819D01*
G37*
D02*
G36*
X914Y1717D02*
X914Y1715D01*
X912Y1715D01*
X912Y1713D01*
X910Y1713D01*
X910Y1711D01*
X908Y1711D01*
X908Y1709D01*
X906Y1709D01*
X906Y1707D01*
X904Y1707D01*
X904Y1705D01*
X902Y1705D01*
X902Y1703D01*
X898Y1703D01*
X898Y1701D01*
X896Y1701D01*
X896Y1699D01*
X892Y1699D01*
X892Y1697D01*
X890Y1697D01*
X890Y1695D01*
X886Y1695D01*
X886Y1693D01*
X880Y1693D01*
X880Y1691D01*
X872Y1691D01*
X872Y1689D01*
X2380Y1689D01*
X2380Y1691D01*
X2382Y1691D01*
X2382Y1693D01*
X2384Y1693D01*
X2384Y1695D01*
X2386Y1695D01*
X2386Y1697D01*
X2388Y1697D01*
X2388Y1699D01*
X2392Y1699D01*
X2392Y1701D01*
X2394Y1701D01*
X2394Y1703D01*
X2398Y1703D01*
X2398Y1705D01*
X2400Y1705D01*
X2400Y1707D01*
X2404Y1707D01*
X2404Y1709D01*
X2408Y1709D01*
X2408Y1711D01*
X2414Y1711D01*
X2414Y1713D01*
X2420Y1713D01*
X2420Y1715D01*
X2436Y1715D01*
X2436Y1717D01*
X914Y1717D01*
G37*
D02*
G36*
X690Y1703D02*
X690Y1701D01*
X688Y1701D01*
X688Y1699D01*
X684Y1699D01*
X684Y1697D01*
X682Y1697D01*
X682Y1695D01*
X678Y1695D01*
X678Y1693D01*
X672Y1693D01*
X672Y1691D01*
X664Y1691D01*
X664Y1689D01*
X736Y1689D01*
X736Y1691D01*
X728Y1691D01*
X728Y1693D01*
X724Y1693D01*
X724Y1695D01*
X720Y1695D01*
X720Y1697D01*
X716Y1697D01*
X716Y1699D01*
X712Y1699D01*
X712Y1701D01*
X710Y1701D01*
X710Y1703D01*
X690Y1703D01*
G37*
D02*
G36*
X794Y1703D02*
X794Y1701D01*
X792Y1701D01*
X792Y1699D01*
X788Y1699D01*
X788Y1697D01*
X786Y1697D01*
X786Y1695D01*
X782Y1695D01*
X782Y1693D01*
X776Y1693D01*
X776Y1691D01*
X768Y1691D01*
X768Y1689D01*
X840Y1689D01*
X840Y1691D01*
X832Y1691D01*
X832Y1693D01*
X828Y1693D01*
X828Y1695D01*
X824Y1695D01*
X824Y1697D01*
X820Y1697D01*
X820Y1699D01*
X816Y1699D01*
X816Y1701D01*
X814Y1701D01*
X814Y1703D01*
X794Y1703D01*
G37*
D02*
G36*
X494Y1689D02*
X494Y1687D01*
X2378Y1687D01*
X2378Y1689D01*
X494Y1689D01*
G37*
D02*
G36*
X494Y1689D02*
X494Y1687D01*
X2378Y1687D01*
X2378Y1689D01*
X494Y1689D01*
G37*
D02*
G36*
X494Y1689D02*
X494Y1687D01*
X2378Y1687D01*
X2378Y1689D01*
X494Y1689D01*
G37*
D02*
G36*
X494Y1689D02*
X494Y1687D01*
X2378Y1687D01*
X2378Y1689D01*
X494Y1689D01*
G37*
D02*
G36*
X494Y1687D02*
X494Y1681D01*
X492Y1681D01*
X492Y1673D01*
X490Y1673D01*
X490Y1667D01*
X488Y1667D01*
X488Y1661D01*
X486Y1661D01*
X486Y1657D01*
X484Y1657D01*
X484Y1653D01*
X482Y1653D01*
X482Y1649D01*
X480Y1649D01*
X480Y1647D01*
X478Y1647D01*
X478Y1643D01*
X476Y1643D01*
X476Y1641D01*
X474Y1641D01*
X474Y1621D01*
X498Y1621D01*
X498Y1591D01*
X1460Y1591D01*
X1460Y1589D01*
X1470Y1589D01*
X1470Y1587D01*
X1478Y1587D01*
X1478Y1585D01*
X1482Y1585D01*
X1482Y1583D01*
X1486Y1583D01*
X1486Y1581D01*
X1490Y1581D01*
X1490Y1579D01*
X1494Y1579D01*
X1494Y1577D01*
X1496Y1577D01*
X1496Y1575D01*
X1498Y1575D01*
X1498Y1573D01*
X1502Y1573D01*
X1502Y1571D01*
X1504Y1571D01*
X1504Y1569D01*
X1506Y1569D01*
X1506Y1567D01*
X1508Y1567D01*
X1508Y1565D01*
X1510Y1565D01*
X1510Y1563D01*
X2422Y1563D01*
X2422Y1565D01*
X2414Y1565D01*
X2414Y1567D01*
X2410Y1567D01*
X2410Y1569D01*
X2404Y1569D01*
X2404Y1571D01*
X2402Y1571D01*
X2402Y1573D01*
X2398Y1573D01*
X2398Y1575D01*
X2394Y1575D01*
X2394Y1577D01*
X2392Y1577D01*
X2392Y1579D01*
X2390Y1579D01*
X2390Y1581D01*
X2386Y1581D01*
X2386Y1583D01*
X2384Y1583D01*
X2384Y1585D01*
X2382Y1585D01*
X2382Y1587D01*
X2380Y1587D01*
X2380Y1591D01*
X2378Y1591D01*
X2378Y1593D01*
X2376Y1593D01*
X2376Y1595D01*
X2374Y1595D01*
X2374Y1599D01*
X2372Y1599D01*
X2372Y1601D01*
X2370Y1601D01*
X2370Y1605D01*
X2368Y1605D01*
X2368Y1609D01*
X2366Y1609D01*
X2366Y1615D01*
X2364Y1615D01*
X2364Y1623D01*
X2362Y1623D01*
X2362Y1655D01*
X2364Y1655D01*
X2364Y1663D01*
X2366Y1663D01*
X2366Y1669D01*
X2368Y1669D01*
X2368Y1673D01*
X2370Y1673D01*
X2370Y1677D01*
X2372Y1677D01*
X2372Y1679D01*
X2374Y1679D01*
X2374Y1683D01*
X2376Y1683D01*
X2376Y1685D01*
X2378Y1685D01*
X2378Y1687D01*
X494Y1687D01*
G37*
D02*
G36*
X498Y1591D02*
X498Y1543D01*
X500Y1543D01*
X500Y1435D01*
X1046Y1435D01*
X1046Y1437D01*
X1032Y1437D01*
X1032Y1439D01*
X1026Y1439D01*
X1026Y1441D01*
X1020Y1441D01*
X1020Y1443D01*
X1016Y1443D01*
X1016Y1445D01*
X1012Y1445D01*
X1012Y1447D01*
X1010Y1447D01*
X1010Y1449D01*
X1006Y1449D01*
X1006Y1451D01*
X1004Y1451D01*
X1004Y1453D01*
X1002Y1453D01*
X1002Y1455D01*
X998Y1455D01*
X998Y1457D01*
X996Y1457D01*
X996Y1459D01*
X994Y1459D01*
X994Y1463D01*
X992Y1463D01*
X992Y1465D01*
X990Y1465D01*
X990Y1467D01*
X988Y1467D01*
X988Y1469D01*
X986Y1469D01*
X986Y1473D01*
X984Y1473D01*
X984Y1477D01*
X982Y1477D01*
X982Y1481D01*
X980Y1481D01*
X980Y1485D01*
X978Y1485D01*
X978Y1491D01*
X976Y1491D01*
X976Y1499D01*
X974Y1499D01*
X974Y1527D01*
X976Y1527D01*
X976Y1535D01*
X978Y1535D01*
X978Y1541D01*
X980Y1541D01*
X980Y1547D01*
X982Y1547D01*
X982Y1551D01*
X984Y1551D01*
X984Y1553D01*
X986Y1553D01*
X986Y1557D01*
X988Y1557D01*
X988Y1559D01*
X990Y1559D01*
X990Y1561D01*
X992Y1561D01*
X992Y1565D01*
X994Y1565D01*
X994Y1567D01*
X996Y1567D01*
X996Y1569D01*
X998Y1569D01*
X998Y1571D01*
X1000Y1571D01*
X1000Y1573D01*
X1004Y1573D01*
X1004Y1575D01*
X1006Y1575D01*
X1006Y1577D01*
X1008Y1577D01*
X1008Y1579D01*
X1012Y1579D01*
X1012Y1581D01*
X1016Y1581D01*
X1016Y1583D01*
X1020Y1583D01*
X1020Y1585D01*
X1024Y1585D01*
X1024Y1587D01*
X1032Y1587D01*
X1032Y1589D01*
X1042Y1589D01*
X1042Y1591D01*
X498Y1591D01*
G37*
D02*
G36*
X1060Y1591D02*
X1060Y1589D01*
X1070Y1589D01*
X1070Y1587D01*
X1078Y1587D01*
X1078Y1585D01*
X1082Y1585D01*
X1082Y1583D01*
X1086Y1583D01*
X1086Y1581D01*
X1090Y1581D01*
X1090Y1579D01*
X1094Y1579D01*
X1094Y1577D01*
X1096Y1577D01*
X1096Y1575D01*
X1098Y1575D01*
X1098Y1573D01*
X1102Y1573D01*
X1102Y1571D01*
X1104Y1571D01*
X1104Y1569D01*
X1106Y1569D01*
X1106Y1567D01*
X1108Y1567D01*
X1108Y1565D01*
X1110Y1565D01*
X1110Y1563D01*
X1112Y1563D01*
X1112Y1559D01*
X1114Y1559D01*
X1114Y1557D01*
X1116Y1557D01*
X1116Y1553D01*
X1118Y1553D01*
X1118Y1551D01*
X1120Y1551D01*
X1120Y1547D01*
X1122Y1547D01*
X1122Y1541D01*
X1124Y1541D01*
X1124Y1537D01*
X1126Y1537D01*
X1126Y1529D01*
X1128Y1529D01*
X1128Y1497D01*
X1126Y1497D01*
X1126Y1491D01*
X1124Y1491D01*
X1124Y1485D01*
X1122Y1485D01*
X1122Y1479D01*
X1120Y1479D01*
X1120Y1475D01*
X1118Y1475D01*
X1118Y1473D01*
X1116Y1473D01*
X1116Y1469D01*
X1114Y1469D01*
X1114Y1467D01*
X1112Y1467D01*
X1112Y1465D01*
X1110Y1465D01*
X1110Y1461D01*
X1108Y1461D01*
X1108Y1459D01*
X1106Y1459D01*
X1106Y1457D01*
X1104Y1457D01*
X1104Y1455D01*
X1102Y1455D01*
X1102Y1453D01*
X1098Y1453D01*
X1098Y1451D01*
X1096Y1451D01*
X1096Y1449D01*
X1092Y1449D01*
X1092Y1447D01*
X1090Y1447D01*
X1090Y1445D01*
X1086Y1445D01*
X1086Y1443D01*
X1082Y1443D01*
X1082Y1441D01*
X1076Y1441D01*
X1076Y1439D01*
X1070Y1439D01*
X1070Y1437D01*
X1056Y1437D01*
X1056Y1435D01*
X1446Y1435D01*
X1446Y1437D01*
X1432Y1437D01*
X1432Y1439D01*
X1426Y1439D01*
X1426Y1441D01*
X1420Y1441D01*
X1420Y1443D01*
X1416Y1443D01*
X1416Y1445D01*
X1412Y1445D01*
X1412Y1447D01*
X1410Y1447D01*
X1410Y1449D01*
X1406Y1449D01*
X1406Y1451D01*
X1404Y1451D01*
X1404Y1453D01*
X1402Y1453D01*
X1402Y1455D01*
X1398Y1455D01*
X1398Y1457D01*
X1396Y1457D01*
X1396Y1459D01*
X1394Y1459D01*
X1394Y1463D01*
X1392Y1463D01*
X1392Y1465D01*
X1390Y1465D01*
X1390Y1467D01*
X1388Y1467D01*
X1388Y1469D01*
X1386Y1469D01*
X1386Y1473D01*
X1384Y1473D01*
X1384Y1477D01*
X1382Y1477D01*
X1382Y1481D01*
X1380Y1481D01*
X1380Y1485D01*
X1378Y1485D01*
X1378Y1491D01*
X1376Y1491D01*
X1376Y1499D01*
X1374Y1499D01*
X1374Y1527D01*
X1376Y1527D01*
X1376Y1535D01*
X1378Y1535D01*
X1378Y1541D01*
X1380Y1541D01*
X1380Y1547D01*
X1382Y1547D01*
X1382Y1551D01*
X1384Y1551D01*
X1384Y1553D01*
X1386Y1553D01*
X1386Y1557D01*
X1388Y1557D01*
X1388Y1559D01*
X1390Y1559D01*
X1390Y1561D01*
X1392Y1561D01*
X1392Y1565D01*
X1394Y1565D01*
X1394Y1567D01*
X1396Y1567D01*
X1396Y1569D01*
X1398Y1569D01*
X1398Y1571D01*
X1400Y1571D01*
X1400Y1573D01*
X1404Y1573D01*
X1404Y1575D01*
X1406Y1575D01*
X1406Y1577D01*
X1408Y1577D01*
X1408Y1579D01*
X1412Y1579D01*
X1412Y1581D01*
X1416Y1581D01*
X1416Y1583D01*
X1420Y1583D01*
X1420Y1585D01*
X1424Y1585D01*
X1424Y1587D01*
X1432Y1587D01*
X1432Y1589D01*
X1442Y1589D01*
X1442Y1591D01*
X1060Y1591D01*
G37*
D02*
G36*
X1512Y1563D02*
X1512Y1561D01*
X2686Y1561D01*
X2686Y1563D01*
X1512Y1563D01*
G37*
D02*
G36*
X1512Y1563D02*
X1512Y1561D01*
X2686Y1561D01*
X2686Y1563D01*
X1512Y1563D01*
G37*
D02*
G36*
X1512Y1561D02*
X1512Y1559D01*
X1514Y1559D01*
X1514Y1557D01*
X1516Y1557D01*
X1516Y1553D01*
X1518Y1553D01*
X1518Y1551D01*
X1520Y1551D01*
X1520Y1547D01*
X1522Y1547D01*
X1522Y1541D01*
X1524Y1541D01*
X1524Y1537D01*
X1526Y1537D01*
X1526Y1529D01*
X1528Y1529D01*
X1528Y1517D01*
X2440Y1517D01*
X2440Y1515D01*
X2456Y1515D01*
X2456Y1513D01*
X2462Y1513D01*
X2462Y1511D01*
X2468Y1511D01*
X2468Y1509D01*
X2472Y1509D01*
X2472Y1507D01*
X2476Y1507D01*
X2476Y1505D01*
X2478Y1505D01*
X2478Y1503D01*
X2482Y1503D01*
X2482Y1501D01*
X2484Y1501D01*
X2484Y1499D01*
X2488Y1499D01*
X2488Y1497D01*
X2490Y1497D01*
X2490Y1495D01*
X2492Y1495D01*
X2492Y1493D01*
X2494Y1493D01*
X2494Y1491D01*
X2496Y1491D01*
X2496Y1489D01*
X2498Y1489D01*
X2498Y1485D01*
X2500Y1485D01*
X2500Y1483D01*
X2502Y1483D01*
X2502Y1479D01*
X2504Y1479D01*
X2504Y1477D01*
X2506Y1477D01*
X2506Y1473D01*
X2508Y1473D01*
X2508Y1469D01*
X2510Y1469D01*
X2510Y1463D01*
X2512Y1463D01*
X2512Y1455D01*
X2514Y1455D01*
X2514Y1423D01*
X2512Y1423D01*
X2512Y1415D01*
X2510Y1415D01*
X2510Y1409D01*
X2508Y1409D01*
X2508Y1405D01*
X2506Y1405D01*
X2506Y1401D01*
X2504Y1401D01*
X2504Y1399D01*
X2502Y1399D01*
X2502Y1379D01*
X2504Y1379D01*
X2504Y1377D01*
X2506Y1377D01*
X2506Y1373D01*
X2508Y1373D01*
X2508Y1369D01*
X2510Y1369D01*
X2510Y1363D01*
X2512Y1363D01*
X2512Y1355D01*
X2514Y1355D01*
X2514Y1323D01*
X2512Y1323D01*
X2512Y1315D01*
X2510Y1315D01*
X2510Y1309D01*
X2508Y1309D01*
X2508Y1305D01*
X2506Y1305D01*
X2506Y1301D01*
X2504Y1301D01*
X2504Y1299D01*
X2502Y1299D01*
X2502Y1295D01*
X2500Y1295D01*
X2500Y1279D01*
X2626Y1279D01*
X2626Y1277D01*
X2638Y1277D01*
X2638Y1275D01*
X2646Y1275D01*
X2646Y1273D01*
X2650Y1273D01*
X2650Y1271D01*
X2654Y1271D01*
X2654Y1269D01*
X2658Y1269D01*
X2658Y1267D01*
X2660Y1267D01*
X2660Y1265D01*
X2664Y1265D01*
X2664Y1263D01*
X2666Y1263D01*
X2666Y1261D01*
X2686Y1261D01*
X2686Y1561D01*
X1512Y1561D01*
G37*
D02*
G36*
X1528Y1517D02*
X1528Y1497D01*
X1526Y1497D01*
X1526Y1491D01*
X1524Y1491D01*
X1524Y1485D01*
X1522Y1485D01*
X1522Y1479D01*
X1520Y1479D01*
X1520Y1475D01*
X1518Y1475D01*
X1518Y1473D01*
X1516Y1473D01*
X1516Y1469D01*
X1514Y1469D01*
X1514Y1467D01*
X1512Y1467D01*
X1512Y1465D01*
X1510Y1465D01*
X1510Y1461D01*
X1508Y1461D01*
X1508Y1459D01*
X1506Y1459D01*
X1506Y1457D01*
X1504Y1457D01*
X1504Y1455D01*
X1502Y1455D01*
X1502Y1453D01*
X1498Y1453D01*
X1498Y1451D01*
X1496Y1451D01*
X1496Y1449D01*
X1492Y1449D01*
X1492Y1447D01*
X1490Y1447D01*
X1490Y1445D01*
X1486Y1445D01*
X1486Y1443D01*
X1482Y1443D01*
X1482Y1441D01*
X1476Y1441D01*
X1476Y1439D01*
X1470Y1439D01*
X1470Y1437D01*
X1456Y1437D01*
X1456Y1435D01*
X2362Y1435D01*
X2362Y1455D01*
X2364Y1455D01*
X2364Y1463D01*
X2366Y1463D01*
X2366Y1469D01*
X2368Y1469D01*
X2368Y1473D01*
X2370Y1473D01*
X2370Y1477D01*
X2372Y1477D01*
X2372Y1479D01*
X2374Y1479D01*
X2374Y1483D01*
X2376Y1483D01*
X2376Y1485D01*
X2378Y1485D01*
X2378Y1489D01*
X2380Y1489D01*
X2380Y1491D01*
X2382Y1491D01*
X2382Y1493D01*
X2384Y1493D01*
X2384Y1495D01*
X2386Y1495D01*
X2386Y1497D01*
X2388Y1497D01*
X2388Y1499D01*
X2392Y1499D01*
X2392Y1501D01*
X2394Y1501D01*
X2394Y1503D01*
X2398Y1503D01*
X2398Y1505D01*
X2400Y1505D01*
X2400Y1507D01*
X2404Y1507D01*
X2404Y1509D01*
X2408Y1509D01*
X2408Y1511D01*
X2414Y1511D01*
X2414Y1513D01*
X2420Y1513D01*
X2420Y1515D01*
X2436Y1515D01*
X2436Y1517D01*
X1528Y1517D01*
G37*
D02*
G36*
X500Y1435D02*
X500Y1433D01*
X2362Y1433D01*
X2362Y1435D01*
X500Y1435D01*
G37*
D02*
G36*
X500Y1435D02*
X500Y1433D01*
X2362Y1433D01*
X2362Y1435D01*
X500Y1435D01*
G37*
D02*
G36*
X500Y1435D02*
X500Y1433D01*
X2362Y1433D01*
X2362Y1435D01*
X500Y1435D01*
G37*
D02*
G36*
X500Y1433D02*
X500Y1429D01*
X502Y1429D01*
X502Y1395D01*
X428Y1395D01*
X428Y1393D01*
X312Y1393D01*
X312Y1391D01*
X2374Y1391D01*
X2374Y1399D01*
X2372Y1399D01*
X2372Y1401D01*
X2370Y1401D01*
X2370Y1405D01*
X2368Y1405D01*
X2368Y1409D01*
X2366Y1409D01*
X2366Y1415D01*
X2364Y1415D01*
X2364Y1423D01*
X2362Y1423D01*
X2362Y1433D01*
X500Y1433D01*
G37*
D02*
G36*
X40Y1391D02*
X40Y1389D01*
X2374Y1389D01*
X2374Y1391D01*
X40Y1391D01*
G37*
D02*
G36*
X40Y1391D02*
X40Y1389D01*
X2374Y1389D01*
X2374Y1391D01*
X40Y1391D01*
G37*
D02*
G36*
X40Y1389D02*
X40Y935D01*
X2506Y935D01*
X2506Y937D01*
X2500Y937D01*
X2500Y939D01*
X2494Y939D01*
X2494Y941D01*
X2490Y941D01*
X2490Y943D01*
X2486Y943D01*
X2486Y945D01*
X2482Y945D01*
X2482Y947D01*
X2480Y947D01*
X2480Y949D01*
X2476Y949D01*
X2476Y951D01*
X2474Y951D01*
X2474Y953D01*
X2472Y953D01*
X2472Y955D01*
X2470Y955D01*
X2470Y957D01*
X2468Y957D01*
X2468Y959D01*
X2466Y959D01*
X2466Y961D01*
X2464Y961D01*
X2464Y963D01*
X2462Y963D01*
X2462Y967D01*
X2460Y967D01*
X2460Y969D01*
X2458Y969D01*
X2458Y973D01*
X2456Y973D01*
X2456Y977D01*
X2454Y977D01*
X2454Y981D01*
X2452Y981D01*
X2452Y987D01*
X2450Y987D01*
X2450Y997D01*
X2448Y997D01*
X2448Y1017D01*
X2450Y1017D01*
X2450Y1027D01*
X2452Y1027D01*
X2452Y1033D01*
X2454Y1033D01*
X2454Y1037D01*
X2456Y1037D01*
X2456Y1041D01*
X2458Y1041D01*
X2458Y1045D01*
X2460Y1045D01*
X2460Y1069D01*
X2458Y1069D01*
X2458Y1073D01*
X2456Y1073D01*
X2456Y1077D01*
X2454Y1077D01*
X2454Y1081D01*
X2452Y1081D01*
X2452Y1087D01*
X2450Y1087D01*
X2450Y1097D01*
X2448Y1097D01*
X2448Y1115D01*
X2450Y1115D01*
X2450Y1125D01*
X2452Y1125D01*
X2452Y1131D01*
X2454Y1131D01*
X2454Y1137D01*
X2456Y1137D01*
X2456Y1141D01*
X2458Y1141D01*
X2458Y1143D01*
X2460Y1143D01*
X2460Y1169D01*
X2458Y1169D01*
X2458Y1171D01*
X2456Y1171D01*
X2456Y1175D01*
X2454Y1175D01*
X2454Y1181D01*
X2452Y1181D01*
X2452Y1187D01*
X2450Y1187D01*
X2450Y1197D01*
X2448Y1197D01*
X2448Y1215D01*
X2450Y1215D01*
X2450Y1225D01*
X2452Y1225D01*
X2452Y1231D01*
X2454Y1231D01*
X2454Y1235D01*
X2456Y1235D01*
X2456Y1239D01*
X2458Y1239D01*
X2458Y1243D01*
X2460Y1243D01*
X2460Y1263D01*
X2422Y1263D01*
X2422Y1265D01*
X2414Y1265D01*
X2414Y1267D01*
X2410Y1267D01*
X2410Y1269D01*
X2404Y1269D01*
X2404Y1271D01*
X2402Y1271D01*
X2402Y1273D01*
X2398Y1273D01*
X2398Y1275D01*
X2394Y1275D01*
X2394Y1277D01*
X2392Y1277D01*
X2392Y1279D01*
X2390Y1279D01*
X2390Y1281D01*
X2386Y1281D01*
X2386Y1283D01*
X2384Y1283D01*
X2384Y1285D01*
X2382Y1285D01*
X2382Y1287D01*
X2380Y1287D01*
X2380Y1291D01*
X2378Y1291D01*
X2378Y1293D01*
X2376Y1293D01*
X2376Y1295D01*
X2374Y1295D01*
X2374Y1299D01*
X2372Y1299D01*
X2372Y1301D01*
X2370Y1301D01*
X2370Y1305D01*
X2368Y1305D01*
X2368Y1309D01*
X2366Y1309D01*
X2366Y1315D01*
X2364Y1315D01*
X2364Y1323D01*
X2362Y1323D01*
X2362Y1355D01*
X2364Y1355D01*
X2364Y1363D01*
X2366Y1363D01*
X2366Y1369D01*
X2368Y1369D01*
X2368Y1373D01*
X2370Y1373D01*
X2370Y1377D01*
X2372Y1377D01*
X2372Y1379D01*
X2374Y1379D01*
X2374Y1389D01*
X40Y1389D01*
G37*
D02*
G36*
X2526Y1279D02*
X2526Y1277D01*
X2538Y1277D01*
X2538Y1275D01*
X2546Y1275D01*
X2546Y1273D01*
X2550Y1273D01*
X2550Y1271D01*
X2554Y1271D01*
X2554Y1269D01*
X2558Y1269D01*
X2558Y1267D01*
X2560Y1267D01*
X2560Y1265D01*
X2580Y1265D01*
X2580Y1267D01*
X2584Y1267D01*
X2584Y1269D01*
X2588Y1269D01*
X2588Y1271D01*
X2592Y1271D01*
X2592Y1273D01*
X2596Y1273D01*
X2596Y1275D01*
X2604Y1275D01*
X2604Y1277D01*
X2616Y1277D01*
X2616Y1279D01*
X2526Y1279D01*
G37*
D02*
G36*
X2666Y951D02*
X2666Y949D01*
X2662Y949D01*
X2662Y947D01*
X2660Y947D01*
X2660Y945D01*
X2656Y945D01*
X2656Y943D01*
X2652Y943D01*
X2652Y941D01*
X2648Y941D01*
X2648Y939D01*
X2642Y939D01*
X2642Y937D01*
X2636Y937D01*
X2636Y935D01*
X2686Y935D01*
X2686Y951D01*
X2666Y951D01*
G37*
D02*
G36*
X2560Y947D02*
X2560Y945D01*
X2556Y945D01*
X2556Y943D01*
X2552Y943D01*
X2552Y941D01*
X2548Y941D01*
X2548Y939D01*
X2542Y939D01*
X2542Y937D01*
X2536Y937D01*
X2536Y935D01*
X2606Y935D01*
X2606Y937D01*
X2600Y937D01*
X2600Y939D01*
X2594Y939D01*
X2594Y941D01*
X2590Y941D01*
X2590Y943D01*
X2586Y943D01*
X2586Y945D01*
X2582Y945D01*
X2582Y947D01*
X2560Y947D01*
G37*
D02*
G36*
X40Y935D02*
X40Y933D01*
X2686Y933D01*
X2686Y935D01*
X40Y935D01*
G37*
D02*
G36*
X40Y935D02*
X40Y933D01*
X2686Y933D01*
X2686Y935D01*
X40Y935D01*
G37*
D02*
G36*
X40Y935D02*
X40Y933D01*
X2686Y933D01*
X2686Y935D01*
X40Y935D01*
G37*
D02*
G36*
X40Y933D02*
X40Y473D01*
X626Y473D01*
X626Y471D01*
X636Y471D01*
X636Y469D01*
X642Y469D01*
X642Y467D01*
X648Y467D01*
X648Y465D01*
X652Y465D01*
X652Y463D01*
X654Y463D01*
X654Y461D01*
X658Y461D01*
X658Y459D01*
X660Y459D01*
X660Y457D01*
X664Y457D01*
X664Y455D01*
X666Y455D01*
X666Y453D01*
X668Y453D01*
X668Y451D01*
X670Y451D01*
X670Y449D01*
X672Y449D01*
X672Y447D01*
X674Y447D01*
X674Y445D01*
X676Y445D01*
X676Y443D01*
X678Y443D01*
X678Y439D01*
X680Y439D01*
X680Y437D01*
X682Y437D01*
X682Y433D01*
X684Y433D01*
X684Y429D01*
X686Y429D01*
X686Y425D01*
X688Y425D01*
X688Y419D01*
X690Y419D01*
X690Y413D01*
X692Y413D01*
X692Y379D01*
X690Y379D01*
X690Y373D01*
X688Y373D01*
X688Y367D01*
X686Y367D01*
X686Y363D01*
X684Y363D01*
X684Y359D01*
X682Y359D01*
X682Y355D01*
X680Y355D01*
X680Y353D01*
X678Y353D01*
X678Y349D01*
X676Y349D01*
X676Y347D01*
X674Y347D01*
X674Y345D01*
X672Y345D01*
X672Y343D01*
X670Y343D01*
X670Y341D01*
X668Y341D01*
X668Y339D01*
X666Y339D01*
X666Y337D01*
X664Y337D01*
X664Y335D01*
X662Y335D01*
X662Y333D01*
X658Y333D01*
X658Y331D01*
X656Y331D01*
X656Y329D01*
X652Y329D01*
X652Y327D01*
X648Y327D01*
X648Y325D01*
X642Y325D01*
X642Y323D01*
X636Y323D01*
X636Y321D01*
X628Y321D01*
X628Y319D01*
X2686Y319D01*
X2686Y933D01*
X40Y933D01*
G37*
D02*
G36*
X40Y473D02*
X40Y319D01*
X304Y319D01*
X304Y321D01*
X294Y321D01*
X294Y323D01*
X288Y323D01*
X288Y325D01*
X284Y325D01*
X284Y327D01*
X280Y327D01*
X280Y329D01*
X276Y329D01*
X276Y331D01*
X274Y331D01*
X274Y333D01*
X270Y333D01*
X270Y335D01*
X268Y335D01*
X268Y337D01*
X266Y337D01*
X266Y339D01*
X264Y339D01*
X264Y341D01*
X262Y341D01*
X262Y343D01*
X260Y343D01*
X260Y345D01*
X258Y345D01*
X258Y347D01*
X256Y347D01*
X256Y349D01*
X254Y349D01*
X254Y353D01*
X252Y353D01*
X252Y355D01*
X250Y355D01*
X250Y359D01*
X248Y359D01*
X248Y361D01*
X246Y361D01*
X246Y367D01*
X244Y367D01*
X244Y371D01*
X242Y371D01*
X242Y379D01*
X240Y379D01*
X240Y395D01*
X238Y395D01*
X238Y397D01*
X240Y397D01*
X240Y413D01*
X242Y413D01*
X242Y421D01*
X244Y421D01*
X244Y425D01*
X246Y425D01*
X246Y429D01*
X248Y429D01*
X248Y433D01*
X250Y433D01*
X250Y437D01*
X252Y437D01*
X252Y439D01*
X254Y439D01*
X254Y443D01*
X256Y443D01*
X256Y445D01*
X258Y445D01*
X258Y447D01*
X260Y447D01*
X260Y449D01*
X262Y449D01*
X262Y451D01*
X264Y451D01*
X264Y453D01*
X266Y453D01*
X266Y455D01*
X268Y455D01*
X268Y457D01*
X270Y457D01*
X270Y459D01*
X274Y459D01*
X274Y461D01*
X278Y461D01*
X278Y463D01*
X280Y463D01*
X280Y465D01*
X284Y465D01*
X284Y467D01*
X290Y467D01*
X290Y469D01*
X296Y469D01*
X296Y471D01*
X306Y471D01*
X306Y473D01*
X40Y473D01*
G37*
D02*
G36*
X326Y473D02*
X326Y471D01*
X336Y471D01*
X336Y469D01*
X342Y469D01*
X342Y467D01*
X348Y467D01*
X348Y465D01*
X352Y465D01*
X352Y463D01*
X354Y463D01*
X354Y461D01*
X376Y461D01*
X376Y463D01*
X380Y463D01*
X380Y465D01*
X384Y465D01*
X384Y467D01*
X390Y467D01*
X390Y469D01*
X396Y469D01*
X396Y471D01*
X406Y471D01*
X406Y473D01*
X326Y473D01*
G37*
D02*
G36*
X426Y473D02*
X426Y471D01*
X436Y471D01*
X436Y469D01*
X442Y469D01*
X442Y467D01*
X448Y467D01*
X448Y465D01*
X452Y465D01*
X452Y463D01*
X454Y463D01*
X454Y461D01*
X476Y461D01*
X476Y463D01*
X480Y463D01*
X480Y465D01*
X484Y465D01*
X484Y467D01*
X490Y467D01*
X490Y469D01*
X496Y469D01*
X496Y471D01*
X506Y471D01*
X506Y473D01*
X426Y473D01*
G37*
D02*
G36*
X526Y473D02*
X526Y471D01*
X536Y471D01*
X536Y469D01*
X542Y469D01*
X542Y467D01*
X548Y467D01*
X548Y465D01*
X552Y465D01*
X552Y463D01*
X554Y463D01*
X554Y461D01*
X576Y461D01*
X576Y463D01*
X580Y463D01*
X580Y465D01*
X584Y465D01*
X584Y467D01*
X590Y467D01*
X590Y469D01*
X596Y469D01*
X596Y471D01*
X606Y471D01*
X606Y473D01*
X526Y473D01*
G37*
D02*
G36*
X356Y331D02*
X356Y329D01*
X352Y329D01*
X352Y327D01*
X348Y327D01*
X348Y325D01*
X342Y325D01*
X342Y323D01*
X336Y323D01*
X336Y321D01*
X328Y321D01*
X328Y319D01*
X404Y319D01*
X404Y321D01*
X394Y321D01*
X394Y323D01*
X388Y323D01*
X388Y325D01*
X384Y325D01*
X384Y327D01*
X380Y327D01*
X380Y329D01*
X376Y329D01*
X376Y331D01*
X356Y331D01*
G37*
D02*
G36*
X456Y331D02*
X456Y329D01*
X452Y329D01*
X452Y327D01*
X448Y327D01*
X448Y325D01*
X442Y325D01*
X442Y323D01*
X436Y323D01*
X436Y321D01*
X428Y321D01*
X428Y319D01*
X504Y319D01*
X504Y321D01*
X494Y321D01*
X494Y323D01*
X488Y323D01*
X488Y325D01*
X484Y325D01*
X484Y327D01*
X480Y327D01*
X480Y329D01*
X476Y329D01*
X476Y331D01*
X456Y331D01*
G37*
D02*
G36*
X556Y331D02*
X556Y329D01*
X552Y329D01*
X552Y327D01*
X548Y327D01*
X548Y325D01*
X542Y325D01*
X542Y323D01*
X536Y323D01*
X536Y321D01*
X528Y321D01*
X528Y319D01*
X604Y319D01*
X604Y321D01*
X594Y321D01*
X594Y323D01*
X588Y323D01*
X588Y325D01*
X584Y325D01*
X584Y327D01*
X580Y327D01*
X580Y329D01*
X576Y329D01*
X576Y331D01*
X556Y331D01*
G37*
D02*
G36*
X40Y319D02*
X40Y317D01*
X2686Y317D01*
X2686Y319D01*
X40Y319D01*
G37*
D02*
G36*
X40Y319D02*
X40Y317D01*
X2686Y317D01*
X2686Y319D01*
X40Y319D01*
G37*
D02*
G36*
X40Y319D02*
X40Y317D01*
X2686Y317D01*
X2686Y319D01*
X40Y319D01*
G37*
D02*
G36*
X40Y319D02*
X40Y317D01*
X2686Y317D01*
X2686Y319D01*
X40Y319D01*
G37*
D02*
G36*
X40Y319D02*
X40Y317D01*
X2686Y317D01*
X2686Y319D01*
X40Y319D01*
G37*
D02*
G36*
X40Y317D02*
X40Y175D01*
X2538Y175D01*
X2538Y173D01*
X2544Y173D01*
X2544Y171D01*
X2550Y171D01*
X2550Y169D01*
X2554Y169D01*
X2554Y167D01*
X2558Y167D01*
X2558Y165D01*
X2562Y165D01*
X2562Y163D01*
X2564Y163D01*
X2564Y161D01*
X2566Y161D01*
X2566Y159D01*
X2570Y159D01*
X2570Y157D01*
X2572Y157D01*
X2572Y155D01*
X2574Y155D01*
X2574Y153D01*
X2576Y153D01*
X2576Y151D01*
X2578Y151D01*
X2578Y147D01*
X2580Y147D01*
X2580Y145D01*
X2582Y145D01*
X2582Y143D01*
X2584Y143D01*
X2584Y139D01*
X2586Y139D01*
X2586Y135D01*
X2588Y135D01*
X2588Y131D01*
X2590Y131D01*
X2590Y127D01*
X2592Y127D01*
X2592Y119D01*
X2594Y119D01*
X2594Y87D01*
X2592Y87D01*
X2592Y79D01*
X2590Y79D01*
X2590Y75D01*
X2588Y75D01*
X2588Y71D01*
X2586Y71D01*
X2586Y67D01*
X2584Y67D01*
X2584Y63D01*
X2582Y63D01*
X2582Y61D01*
X2580Y61D01*
X2580Y41D01*
X2686Y41D01*
X2686Y317D01*
X40Y317D01*
G37*
D02*
G36*
X40Y175D02*
X40Y41D01*
X1064Y41D01*
X1064Y61D01*
X1062Y61D01*
X1062Y65D01*
X1060Y65D01*
X1060Y67D01*
X1058Y67D01*
X1058Y71D01*
X1056Y71D01*
X1056Y75D01*
X1054Y75D01*
X1054Y81D01*
X1052Y81D01*
X1052Y89D01*
X1050Y89D01*
X1050Y117D01*
X1052Y117D01*
X1052Y125D01*
X1054Y125D01*
X1054Y131D01*
X1056Y131D01*
X1056Y135D01*
X1058Y135D01*
X1058Y139D01*
X1060Y139D01*
X1060Y141D01*
X1062Y141D01*
X1062Y145D01*
X1064Y145D01*
X1064Y147D01*
X1066Y147D01*
X1066Y149D01*
X1068Y149D01*
X1068Y153D01*
X1070Y153D01*
X1070Y155D01*
X1072Y155D01*
X1072Y157D01*
X1074Y157D01*
X1074Y159D01*
X1078Y159D01*
X1078Y161D01*
X1080Y161D01*
X1080Y163D01*
X1084Y163D01*
X1084Y165D01*
X1086Y165D01*
X1086Y167D01*
X1090Y167D01*
X1090Y169D01*
X1094Y169D01*
X1094Y171D01*
X1100Y171D01*
X1100Y173D01*
X1108Y173D01*
X1108Y175D01*
X40Y175D01*
G37*
D02*
G36*
X1138Y175D02*
X1138Y173D01*
X1144Y173D01*
X1144Y171D01*
X1150Y171D01*
X1150Y169D01*
X1154Y169D01*
X1154Y167D01*
X1158Y167D01*
X1158Y165D01*
X1162Y165D01*
X1162Y163D01*
X1184Y163D01*
X1184Y165D01*
X1186Y165D01*
X1186Y167D01*
X1190Y167D01*
X1190Y169D01*
X1194Y169D01*
X1194Y171D01*
X1200Y171D01*
X1200Y173D01*
X1208Y173D01*
X1208Y175D01*
X1138Y175D01*
G37*
D02*
G36*
X1238Y175D02*
X1238Y173D01*
X1244Y173D01*
X1244Y171D01*
X1250Y171D01*
X1250Y169D01*
X1254Y169D01*
X1254Y167D01*
X1258Y167D01*
X1258Y165D01*
X1262Y165D01*
X1262Y163D01*
X1284Y163D01*
X1284Y165D01*
X1286Y165D01*
X1286Y167D01*
X1290Y167D01*
X1290Y169D01*
X1294Y169D01*
X1294Y171D01*
X1300Y171D01*
X1300Y173D01*
X1308Y173D01*
X1308Y175D01*
X1238Y175D01*
G37*
D02*
G36*
X1338Y175D02*
X1338Y173D01*
X1344Y173D01*
X1344Y171D01*
X1350Y171D01*
X1350Y169D01*
X1354Y169D01*
X1354Y167D01*
X1358Y167D01*
X1358Y165D01*
X1362Y165D01*
X1362Y163D01*
X1384Y163D01*
X1384Y165D01*
X1386Y165D01*
X1386Y167D01*
X1390Y167D01*
X1390Y169D01*
X1394Y169D01*
X1394Y171D01*
X1400Y171D01*
X1400Y173D01*
X1408Y173D01*
X1408Y175D01*
X1338Y175D01*
G37*
D02*
G36*
X1438Y175D02*
X1438Y173D01*
X1444Y173D01*
X1444Y171D01*
X1450Y171D01*
X1450Y169D01*
X1454Y169D01*
X1454Y167D01*
X1458Y167D01*
X1458Y165D01*
X1462Y165D01*
X1462Y163D01*
X1484Y163D01*
X1484Y165D01*
X1486Y165D01*
X1486Y167D01*
X1490Y167D01*
X1490Y169D01*
X1494Y169D01*
X1494Y171D01*
X1500Y171D01*
X1500Y173D01*
X1508Y173D01*
X1508Y175D01*
X1438Y175D01*
G37*
D02*
G36*
X1538Y175D02*
X1538Y173D01*
X1544Y173D01*
X1544Y171D01*
X1550Y171D01*
X1550Y169D01*
X1554Y169D01*
X1554Y167D01*
X1558Y167D01*
X1558Y165D01*
X1562Y165D01*
X1562Y163D01*
X1584Y163D01*
X1584Y165D01*
X1586Y165D01*
X1586Y167D01*
X1590Y167D01*
X1590Y169D01*
X1594Y169D01*
X1594Y171D01*
X1600Y171D01*
X1600Y173D01*
X1608Y173D01*
X1608Y175D01*
X1538Y175D01*
G37*
D02*
G36*
X1638Y175D02*
X1638Y173D01*
X1644Y173D01*
X1644Y171D01*
X1650Y171D01*
X1650Y169D01*
X1654Y169D01*
X1654Y167D01*
X1658Y167D01*
X1658Y165D01*
X1662Y165D01*
X1662Y163D01*
X1684Y163D01*
X1684Y165D01*
X1686Y165D01*
X1686Y167D01*
X1690Y167D01*
X1690Y169D01*
X1694Y169D01*
X1694Y171D01*
X1700Y171D01*
X1700Y173D01*
X1708Y173D01*
X1708Y175D01*
X1638Y175D01*
G37*
D02*
G36*
X1738Y175D02*
X1738Y173D01*
X1744Y173D01*
X1744Y171D01*
X1750Y171D01*
X1750Y169D01*
X1754Y169D01*
X1754Y167D01*
X1758Y167D01*
X1758Y165D01*
X1762Y165D01*
X1762Y163D01*
X1784Y163D01*
X1784Y165D01*
X1786Y165D01*
X1786Y167D01*
X1790Y167D01*
X1790Y169D01*
X1794Y169D01*
X1794Y171D01*
X1800Y171D01*
X1800Y173D01*
X1808Y173D01*
X1808Y175D01*
X1738Y175D01*
G37*
D02*
G36*
X1838Y175D02*
X1838Y173D01*
X1844Y173D01*
X1844Y171D01*
X1850Y171D01*
X1850Y169D01*
X1854Y169D01*
X1854Y167D01*
X1858Y167D01*
X1858Y165D01*
X1862Y165D01*
X1862Y163D01*
X1864Y163D01*
X1864Y161D01*
X1866Y161D01*
X1866Y159D01*
X1870Y159D01*
X1870Y157D01*
X1872Y157D01*
X1872Y155D01*
X1874Y155D01*
X1874Y153D01*
X1876Y153D01*
X1876Y151D01*
X1878Y151D01*
X1878Y147D01*
X1880Y147D01*
X1880Y145D01*
X1882Y145D01*
X1882Y143D01*
X1884Y143D01*
X1884Y139D01*
X1886Y139D01*
X1886Y135D01*
X1888Y135D01*
X1888Y131D01*
X1890Y131D01*
X1890Y127D01*
X1892Y127D01*
X1892Y119D01*
X1894Y119D01*
X1894Y87D01*
X1892Y87D01*
X1892Y79D01*
X1890Y79D01*
X1890Y75D01*
X1888Y75D01*
X1888Y71D01*
X1886Y71D01*
X1886Y67D01*
X1884Y67D01*
X1884Y63D01*
X1882Y63D01*
X1882Y61D01*
X1880Y61D01*
X1880Y41D01*
X1964Y41D01*
X1964Y61D01*
X1962Y61D01*
X1962Y65D01*
X1960Y65D01*
X1960Y67D01*
X1958Y67D01*
X1958Y71D01*
X1956Y71D01*
X1956Y75D01*
X1954Y75D01*
X1954Y81D01*
X1952Y81D01*
X1952Y89D01*
X1950Y89D01*
X1950Y117D01*
X1952Y117D01*
X1952Y125D01*
X1954Y125D01*
X1954Y131D01*
X1956Y131D01*
X1956Y135D01*
X1958Y135D01*
X1958Y139D01*
X1960Y139D01*
X1960Y141D01*
X1962Y141D01*
X1962Y145D01*
X1964Y145D01*
X1964Y147D01*
X1966Y147D01*
X1966Y149D01*
X1968Y149D01*
X1968Y153D01*
X1970Y153D01*
X1970Y155D01*
X1972Y155D01*
X1972Y157D01*
X1974Y157D01*
X1974Y159D01*
X1978Y159D01*
X1978Y161D01*
X1980Y161D01*
X1980Y163D01*
X1984Y163D01*
X1984Y165D01*
X1986Y165D01*
X1986Y167D01*
X1990Y167D01*
X1990Y169D01*
X1994Y169D01*
X1994Y171D01*
X2000Y171D01*
X2000Y173D01*
X2008Y173D01*
X2008Y175D01*
X1838Y175D01*
G37*
D02*
G36*
X2038Y175D02*
X2038Y173D01*
X2044Y173D01*
X2044Y171D01*
X2050Y171D01*
X2050Y169D01*
X2054Y169D01*
X2054Y167D01*
X2058Y167D01*
X2058Y165D01*
X2062Y165D01*
X2062Y163D01*
X2084Y163D01*
X2084Y165D01*
X2086Y165D01*
X2086Y167D01*
X2090Y167D01*
X2090Y169D01*
X2094Y169D01*
X2094Y171D01*
X2100Y171D01*
X2100Y173D01*
X2108Y173D01*
X2108Y175D01*
X2038Y175D01*
G37*
D02*
G36*
X2138Y175D02*
X2138Y173D01*
X2144Y173D01*
X2144Y171D01*
X2150Y171D01*
X2150Y169D01*
X2154Y169D01*
X2154Y167D01*
X2158Y167D01*
X2158Y165D01*
X2162Y165D01*
X2162Y163D01*
X2184Y163D01*
X2184Y165D01*
X2186Y165D01*
X2186Y167D01*
X2190Y167D01*
X2190Y169D01*
X2194Y169D01*
X2194Y171D01*
X2200Y171D01*
X2200Y173D01*
X2208Y173D01*
X2208Y175D01*
X2138Y175D01*
G37*
D02*
G36*
X2238Y175D02*
X2238Y173D01*
X2244Y173D01*
X2244Y171D01*
X2250Y171D01*
X2250Y169D01*
X2254Y169D01*
X2254Y167D01*
X2258Y167D01*
X2258Y165D01*
X2262Y165D01*
X2262Y163D01*
X2284Y163D01*
X2284Y165D01*
X2286Y165D01*
X2286Y167D01*
X2290Y167D01*
X2290Y169D01*
X2294Y169D01*
X2294Y171D01*
X2300Y171D01*
X2300Y173D01*
X2308Y173D01*
X2308Y175D01*
X2238Y175D01*
G37*
D02*
G36*
X2338Y175D02*
X2338Y173D01*
X2344Y173D01*
X2344Y171D01*
X2350Y171D01*
X2350Y169D01*
X2354Y169D01*
X2354Y167D01*
X2358Y167D01*
X2358Y165D01*
X2362Y165D01*
X2362Y163D01*
X2384Y163D01*
X2384Y165D01*
X2386Y165D01*
X2386Y167D01*
X2390Y167D01*
X2390Y169D01*
X2394Y169D01*
X2394Y171D01*
X2400Y171D01*
X2400Y173D01*
X2408Y173D01*
X2408Y175D01*
X2338Y175D01*
G37*
D02*
G36*
X2438Y175D02*
X2438Y173D01*
X2444Y173D01*
X2444Y171D01*
X2450Y171D01*
X2450Y169D01*
X2454Y169D01*
X2454Y167D01*
X2458Y167D01*
X2458Y165D01*
X2462Y165D01*
X2462Y163D01*
X2484Y163D01*
X2484Y165D01*
X2486Y165D01*
X2486Y167D01*
X2490Y167D01*
X2490Y169D01*
X2494Y169D01*
X2494Y171D01*
X2500Y171D01*
X2500Y173D01*
X2508Y173D01*
X2508Y175D01*
X2438Y175D01*
G37*
D02*
G54D17*
X402Y1580D02*
X457Y1580D01*
X345Y1579D02*
X457Y1579D01*
X313Y1578D02*
X457Y1578D01*
X313Y1577D02*
X457Y1577D01*
X313Y1576D02*
X457Y1576D01*
X313Y1575D02*
X457Y1575D01*
X313Y1574D02*
X457Y1574D01*
X313Y1573D02*
X457Y1573D01*
X313Y1572D02*
X457Y1572D01*
X313Y1571D02*
X457Y1571D01*
X313Y1570D02*
X457Y1570D01*
X313Y1569D02*
X457Y1569D01*
X313Y1568D02*
X457Y1568D01*
X313Y1567D02*
X458Y1567D01*
X313Y1566D02*
X458Y1566D01*
X313Y1565D02*
X458Y1565D01*
X313Y1564D02*
X458Y1564D01*
X313Y1563D02*
X458Y1563D01*
X313Y1562D02*
X458Y1562D01*
X313Y1561D02*
X458Y1561D01*
X313Y1560D02*
X458Y1560D01*
X313Y1559D02*
X458Y1559D01*
X313Y1558D02*
X458Y1558D01*
X313Y1557D02*
X458Y1557D01*
X313Y1556D02*
X458Y1556D01*
X313Y1555D02*
X458Y1555D01*
X313Y1554D02*
X383Y1554D01*
X390Y1554D02*
X458Y1554D01*
X313Y1553D02*
X375Y1553D01*
X397Y1553D02*
X458Y1553D01*
X313Y1552D02*
X372Y1552D01*
X401Y1552D02*
X458Y1552D01*
X313Y1551D02*
X369Y1551D01*
X404Y1551D02*
X458Y1551D01*
X313Y1550D02*
X366Y1550D01*
X406Y1550D02*
X458Y1550D01*
X313Y1549D02*
X364Y1549D01*
X408Y1549D02*
X458Y1549D01*
X313Y1548D02*
X362Y1548D01*
X410Y1548D02*
X458Y1548D01*
X313Y1547D02*
X361Y1547D01*
X412Y1547D02*
X458Y1547D01*
X313Y1546D02*
X359Y1546D01*
X413Y1546D02*
X458Y1546D01*
X313Y1545D02*
X358Y1545D01*
X415Y1545D02*
X458Y1545D01*
X313Y1544D02*
X357Y1544D01*
X416Y1544D02*
X458Y1544D01*
X313Y1543D02*
X355Y1543D01*
X417Y1543D02*
X458Y1543D01*
X313Y1542D02*
X354Y1542D01*
X418Y1542D02*
X458Y1542D01*
X313Y1541D02*
X353Y1541D01*
X419Y1541D02*
X458Y1541D01*
X313Y1540D02*
X352Y1540D01*
X420Y1540D02*
X458Y1540D01*
X313Y1539D02*
X351Y1539D01*
X421Y1539D02*
X458Y1539D01*
X313Y1538D02*
X350Y1538D01*
X422Y1538D02*
X458Y1538D01*
X313Y1537D02*
X349Y1537D01*
X423Y1537D02*
X458Y1537D01*
X313Y1536D02*
X349Y1536D01*
X424Y1536D02*
X458Y1536D01*
X313Y1535D02*
X348Y1535D01*
X425Y1535D02*
X458Y1535D01*
X313Y1534D02*
X347Y1534D01*
X425Y1534D02*
X458Y1534D01*
X313Y1533D02*
X346Y1533D01*
X426Y1533D02*
X458Y1533D01*
X313Y1532D02*
X346Y1532D01*
X427Y1532D02*
X458Y1532D01*
X313Y1531D02*
X345Y1531D01*
X427Y1531D02*
X458Y1531D01*
X313Y1530D02*
X345Y1530D01*
X428Y1530D02*
X458Y1530D01*
X314Y1529D02*
X344Y1529D01*
X428Y1529D02*
X458Y1529D01*
X314Y1528D02*
X343Y1528D01*
X429Y1528D02*
X458Y1528D01*
X314Y1527D02*
X343Y1527D01*
X429Y1527D02*
X458Y1527D01*
X314Y1526D02*
X343Y1526D01*
X430Y1526D02*
X458Y1526D01*
X314Y1525D02*
X342Y1525D01*
X430Y1525D02*
X458Y1525D01*
X314Y1524D02*
X342Y1524D01*
X431Y1524D02*
X458Y1524D01*
X314Y1523D02*
X341Y1523D01*
X431Y1523D02*
X458Y1523D01*
X314Y1522D02*
X341Y1522D01*
X431Y1522D02*
X458Y1522D01*
X314Y1521D02*
X341Y1521D01*
X432Y1521D02*
X458Y1521D01*
X314Y1520D02*
X340Y1520D01*
X432Y1520D02*
X458Y1520D01*
X314Y1519D02*
X340Y1519D01*
X432Y1519D02*
X458Y1519D01*
X314Y1518D02*
X340Y1518D01*
X433Y1518D02*
X458Y1518D01*
X314Y1517D02*
X340Y1517D01*
X433Y1517D02*
X458Y1517D01*
X314Y1516D02*
X339Y1516D01*
X433Y1516D02*
X458Y1516D01*
X314Y1515D02*
X339Y1515D01*
X433Y1515D02*
X458Y1515D01*
X314Y1514D02*
X339Y1514D01*
X433Y1514D02*
X458Y1514D01*
X314Y1513D02*
X339Y1513D01*
X434Y1513D02*
X458Y1513D01*
X314Y1512D02*
X339Y1512D01*
X434Y1512D02*
X458Y1512D01*
X314Y1511D02*
X339Y1511D01*
X434Y1511D02*
X458Y1511D01*
X314Y1510D02*
X339Y1510D01*
X434Y1510D02*
X459Y1510D01*
X314Y1509D02*
X339Y1509D01*
X434Y1509D02*
X459Y1509D01*
X314Y1508D02*
X339Y1508D01*
X434Y1508D02*
X459Y1508D01*
X314Y1507D02*
X339Y1507D01*
X434Y1507D02*
X459Y1507D01*
X314Y1506D02*
X339Y1506D01*
X434Y1506D02*
X459Y1506D01*
X314Y1505D02*
X339Y1505D01*
X434Y1505D02*
X459Y1505D01*
X314Y1504D02*
X339Y1504D01*
X434Y1504D02*
X459Y1504D01*
X314Y1503D02*
X339Y1503D01*
X434Y1503D02*
X459Y1503D01*
X314Y1502D02*
X339Y1502D01*
X434Y1502D02*
X459Y1502D01*
X314Y1501D02*
X339Y1501D01*
X434Y1501D02*
X459Y1501D01*
X314Y1500D02*
X339Y1500D01*
X433Y1500D02*
X459Y1500D01*
X314Y1499D02*
X339Y1499D01*
X433Y1499D02*
X459Y1499D01*
X314Y1498D02*
X339Y1498D01*
X433Y1498D02*
X459Y1498D01*
X314Y1497D02*
X340Y1497D01*
X433Y1497D02*
X459Y1497D01*
X314Y1496D02*
X340Y1496D01*
X433Y1496D02*
X459Y1496D01*
X314Y1495D02*
X340Y1495D01*
X432Y1495D02*
X459Y1495D01*
X314Y1494D02*
X340Y1494D01*
X432Y1494D02*
X459Y1494D01*
X314Y1493D02*
X341Y1493D01*
X432Y1493D02*
X459Y1493D01*
X314Y1492D02*
X341Y1492D01*
X431Y1492D02*
X459Y1492D01*
X314Y1491D02*
X341Y1491D01*
X431Y1491D02*
X459Y1491D01*
X314Y1490D02*
X342Y1490D01*
X431Y1490D02*
X459Y1490D01*
X314Y1489D02*
X342Y1489D01*
X430Y1489D02*
X459Y1489D01*
X314Y1488D02*
X342Y1488D01*
X430Y1488D02*
X459Y1488D01*
X314Y1487D02*
X343Y1487D01*
X430Y1487D02*
X459Y1487D01*
X314Y1486D02*
X343Y1486D01*
X429Y1486D02*
X459Y1486D01*
X314Y1485D02*
X344Y1485D01*
X429Y1485D02*
X459Y1485D01*
X314Y1484D02*
X344Y1484D01*
X428Y1484D02*
X459Y1484D01*
X314Y1483D02*
X345Y1483D01*
X427Y1483D02*
X459Y1483D01*
X314Y1482D02*
X346Y1482D01*
X427Y1482D02*
X459Y1482D01*
X314Y1481D02*
X346Y1481D01*
X426Y1481D02*
X459Y1481D01*
X314Y1480D02*
X347Y1480D01*
X425Y1480D02*
X459Y1480D01*
X314Y1479D02*
X348Y1479D01*
X425Y1479D02*
X459Y1479D01*
X314Y1478D02*
X348Y1478D01*
X424Y1478D02*
X459Y1478D01*
X314Y1477D02*
X349Y1477D01*
X423Y1477D02*
X459Y1477D01*
X314Y1476D02*
X350Y1476D01*
X422Y1476D02*
X459Y1476D01*
X314Y1475D02*
X351Y1475D01*
X421Y1475D02*
X459Y1475D01*
X314Y1474D02*
X352Y1474D01*
X421Y1474D02*
X459Y1474D01*
X314Y1473D02*
X353Y1473D01*
X420Y1473D02*
X459Y1473D01*
X314Y1472D02*
X354Y1472D01*
X418Y1472D02*
X459Y1472D01*
X315Y1471D02*
X355Y1471D01*
X417Y1471D02*
X459Y1471D01*
X315Y1470D02*
X356Y1470D01*
X416Y1470D02*
X459Y1470D01*
X315Y1469D02*
X358Y1469D01*
X415Y1469D02*
X459Y1469D01*
X315Y1468D02*
X359Y1468D01*
X413Y1468D02*
X459Y1468D01*
X315Y1467D02*
X361Y1467D01*
X412Y1467D02*
X459Y1467D01*
X315Y1466D02*
X362Y1466D01*
X410Y1466D02*
X459Y1466D01*
X315Y1465D02*
X364Y1465D01*
X408Y1465D02*
X459Y1465D01*
X315Y1464D02*
X366Y1464D01*
X406Y1464D02*
X459Y1464D01*
X315Y1463D02*
X368Y1463D01*
X404Y1463D02*
X459Y1463D01*
X315Y1462D02*
X371Y1462D01*
X401Y1462D02*
X459Y1462D01*
X315Y1461D02*
X375Y1461D01*
X398Y1461D02*
X459Y1461D01*
X315Y1460D02*
X381Y1460D01*
X392Y1460D02*
X459Y1460D01*
X315Y1459D02*
X459Y1459D01*
X315Y1458D02*
X459Y1458D01*
X315Y1457D02*
X459Y1457D01*
X315Y1456D02*
X459Y1456D01*
X315Y1455D02*
X459Y1455D01*
X315Y1454D02*
X459Y1454D01*
X315Y1453D02*
X460Y1453D01*
X315Y1452D02*
X460Y1452D01*
X315Y1451D02*
X460Y1451D01*
X315Y1450D02*
X460Y1450D01*
X315Y1449D02*
X460Y1449D01*
X315Y1448D02*
X460Y1448D01*
X315Y1447D02*
X460Y1447D01*
X315Y1446D02*
X460Y1446D01*
X315Y1445D02*
X460Y1445D01*
X315Y1444D02*
X460Y1444D01*
X315Y1443D02*
X460Y1443D01*
X315Y1442D02*
X460Y1442D01*
X315Y1441D02*
X460Y1441D01*
X315Y1440D02*
X460Y1440D01*
X315Y1439D02*
X460Y1439D01*
X315Y1438D02*
X460Y1438D01*
X315Y1437D02*
X460Y1437D01*
X315Y1436D02*
X460Y1436D01*
X315Y1435D02*
X438Y1435D01*
X315Y1434D02*
X380Y1434D01*
X315Y1433D02*
X323Y1433D01*
D02*
G04 End of Copper1*
M02*