G04 MADE WITH FRITZING*
G04 WWW.FRITZING.ORG*
G04 DOUBLE SIDED*
G04 HOLES PLATED*
G04 CONTOUR ON CENTER OF CONTOUR VECTOR*
%ASAXBY*%
%FSLAX23Y23*%
%MOIN*%
%OFA0B0*%
%SFA1.0B1.0*%
%ADD10C,0.155669*%
%ADD11C,0.083749*%
%ADD12C,0.083889*%
%ADD13C,0.085000*%
%ADD14C,0.076111*%
%ADD15C,0.076139*%
%ADD16C,0.076083*%
%ADD17R,0.001000X0.001000*%
%LNMASK1*%
G90*
G70*
G54D10*
X383Y1706D03*
X387Y1506D03*
X383Y1706D03*
X387Y1506D03*
G54D11*
X2438Y1339D03*
X2438Y1439D03*
X2438Y1639D03*
G54D12*
X316Y396D03*
X416Y396D03*
X516Y396D03*
X616Y396D03*
G54D13*
X1051Y1513D03*
X1451Y1513D03*
G54D14*
X2122Y103D03*
X2222Y103D03*
X2322Y103D03*
X2422Y103D03*
X2522Y103D03*
X1662Y2003D03*
X1562Y2003D03*
X1462Y2003D03*
X1362Y2003D03*
X1262Y2003D03*
X1162Y2003D03*
X1062Y2003D03*
X962Y2003D03*
X862Y2003D03*
X762Y2003D03*
X2522Y2003D03*
X2422Y2003D03*
X2322Y2003D03*
G54D15*
X2222Y2003D03*
G54D14*
X2122Y2003D03*
X2022Y2003D03*
X1922Y2003D03*
X1822Y2003D03*
X1222Y103D03*
G54D16*
X1122Y103D03*
X1322Y103D03*
G54D14*
X1422Y103D03*
X1522Y103D03*
X1622Y103D03*
X1722Y103D03*
X1822Y103D03*
X2022Y103D03*
X2621Y1205D03*
G54D15*
X2521Y1205D03*
G54D14*
X2621Y1106D03*
G54D15*
X2521Y1106D03*
X2621Y1007D03*
X2521Y1007D03*
G54D14*
X752Y1860D03*
X752Y1760D03*
X856Y1860D03*
X856Y1760D03*
X648Y1860D03*
X648Y1760D03*
G54D17*
X460Y1586D02*
X462Y1586D01*
X402Y1585D02*
X462Y1585D01*
X345Y1584D02*
X462Y1584D01*
X308Y1583D02*
X462Y1583D01*
X308Y1582D02*
X462Y1582D01*
X308Y1581D02*
X462Y1581D01*
X308Y1580D02*
X462Y1580D01*
X308Y1579D02*
X462Y1579D01*
X308Y1578D02*
X462Y1578D01*
X308Y1577D02*
X462Y1577D01*
X308Y1576D02*
X462Y1576D01*
X308Y1575D02*
X462Y1575D01*
X308Y1574D02*
X462Y1574D01*
X308Y1573D02*
X462Y1573D01*
X308Y1572D02*
X462Y1572D01*
X308Y1571D02*
X462Y1571D01*
X308Y1570D02*
X462Y1570D01*
X308Y1569D02*
X462Y1569D01*
X308Y1568D02*
X462Y1568D01*
X308Y1567D02*
X463Y1567D01*
X308Y1566D02*
X463Y1566D01*
X308Y1565D02*
X463Y1565D01*
X308Y1564D02*
X463Y1564D01*
X308Y1563D02*
X463Y1563D01*
X308Y1562D02*
X463Y1562D01*
X308Y1561D02*
X463Y1561D01*
X308Y1560D02*
X463Y1560D01*
X308Y1559D02*
X463Y1559D01*
X308Y1558D02*
X463Y1558D01*
X308Y1557D02*
X463Y1557D01*
X308Y1556D02*
X463Y1556D01*
X308Y1555D02*
X463Y1555D01*
X308Y1554D02*
X463Y1554D01*
X308Y1553D02*
X463Y1553D01*
X308Y1552D02*
X463Y1552D01*
X308Y1551D02*
X463Y1551D01*
X308Y1550D02*
X463Y1550D01*
X308Y1549D02*
X383Y1549D01*
X390Y1549D02*
X463Y1549D01*
X308Y1548D02*
X376Y1548D01*
X397Y1548D02*
X463Y1548D01*
X308Y1547D02*
X372Y1547D01*
X400Y1547D02*
X463Y1547D01*
X308Y1546D02*
X370Y1546D01*
X403Y1546D02*
X463Y1546D01*
X308Y1545D02*
X367Y1545D01*
X405Y1545D02*
X463Y1545D01*
X308Y1544D02*
X365Y1544D01*
X407Y1544D02*
X463Y1544D01*
X308Y1543D02*
X364Y1543D01*
X409Y1543D02*
X463Y1543D01*
X308Y1542D02*
X362Y1542D01*
X410Y1542D02*
X463Y1542D01*
X308Y1541D02*
X361Y1541D01*
X412Y1541D02*
X463Y1541D01*
X308Y1540D02*
X360Y1540D01*
X413Y1540D02*
X463Y1540D01*
X308Y1539D02*
X358Y1539D01*
X414Y1539D02*
X463Y1539D01*
X308Y1538D02*
X357Y1538D01*
X415Y1538D02*
X463Y1538D01*
X308Y1537D02*
X356Y1537D01*
X416Y1537D02*
X463Y1537D01*
X308Y1536D02*
X355Y1536D01*
X417Y1536D02*
X463Y1536D01*
X308Y1535D02*
X354Y1535D01*
X418Y1535D02*
X463Y1535D01*
X308Y1534D02*
X353Y1534D01*
X419Y1534D02*
X463Y1534D01*
X308Y1533D02*
X353Y1533D01*
X420Y1533D02*
X463Y1533D01*
X308Y1532D02*
X352Y1532D01*
X421Y1532D02*
X463Y1532D01*
X308Y1531D02*
X351Y1531D01*
X421Y1531D02*
X463Y1531D01*
X308Y1530D02*
X350Y1530D01*
X422Y1530D02*
X463Y1530D01*
X308Y1529D02*
X350Y1529D01*
X423Y1529D02*
X463Y1529D01*
X309Y1528D02*
X349Y1528D01*
X423Y1528D02*
X463Y1528D01*
X309Y1527D02*
X349Y1527D01*
X424Y1527D02*
X463Y1527D01*
X309Y1526D02*
X348Y1526D01*
X424Y1526D02*
X463Y1526D01*
X309Y1525D02*
X348Y1525D01*
X425Y1525D02*
X463Y1525D01*
X309Y1524D02*
X347Y1524D01*
X425Y1524D02*
X463Y1524D01*
X309Y1523D02*
X347Y1523D01*
X426Y1523D02*
X463Y1523D01*
X309Y1522D02*
X346Y1522D01*
X426Y1522D02*
X463Y1522D01*
X309Y1521D02*
X346Y1521D01*
X427Y1521D02*
X463Y1521D01*
X309Y1520D02*
X346Y1520D01*
X427Y1520D02*
X463Y1520D01*
X309Y1519D02*
X345Y1519D01*
X427Y1519D02*
X463Y1519D01*
X309Y1518D02*
X345Y1518D01*
X428Y1518D02*
X463Y1518D01*
X309Y1517D02*
X345Y1517D01*
X428Y1517D02*
X463Y1517D01*
X309Y1516D02*
X344Y1516D01*
X428Y1516D02*
X463Y1516D01*
X309Y1515D02*
X344Y1515D01*
X428Y1515D02*
X463Y1515D01*
X309Y1514D02*
X344Y1514D01*
X428Y1514D02*
X463Y1514D01*
X309Y1513D02*
X344Y1513D01*
X429Y1513D02*
X463Y1513D01*
X309Y1512D02*
X344Y1512D01*
X429Y1512D02*
X463Y1512D01*
X309Y1511D02*
X344Y1511D01*
X429Y1511D02*
X463Y1511D01*
X309Y1510D02*
X344Y1510D01*
X429Y1510D02*
X464Y1510D01*
X309Y1509D02*
X344Y1509D01*
X429Y1509D02*
X464Y1509D01*
X309Y1508D02*
X344Y1508D01*
X429Y1508D02*
X464Y1508D01*
X309Y1507D02*
X344Y1507D01*
X429Y1507D02*
X464Y1507D01*
X309Y1506D02*
X344Y1506D01*
X429Y1506D02*
X464Y1506D01*
X309Y1505D02*
X344Y1505D01*
X429Y1505D02*
X464Y1505D01*
X309Y1504D02*
X344Y1504D01*
X429Y1504D02*
X464Y1504D01*
X309Y1503D02*
X344Y1503D01*
X429Y1503D02*
X464Y1503D01*
X309Y1502D02*
X344Y1502D01*
X429Y1502D02*
X464Y1502D01*
X309Y1501D02*
X344Y1501D01*
X429Y1501D02*
X464Y1501D01*
X309Y1500D02*
X344Y1500D01*
X428Y1500D02*
X464Y1500D01*
X309Y1499D02*
X344Y1499D01*
X428Y1499D02*
X464Y1499D01*
X309Y1498D02*
X344Y1498D01*
X428Y1498D02*
X464Y1498D01*
X309Y1497D02*
X345Y1497D01*
X428Y1497D02*
X464Y1497D01*
X309Y1496D02*
X345Y1496D01*
X428Y1496D02*
X464Y1496D01*
X309Y1495D02*
X345Y1495D01*
X427Y1495D02*
X464Y1495D01*
X309Y1494D02*
X345Y1494D01*
X427Y1494D02*
X464Y1494D01*
X309Y1493D02*
X346Y1493D01*
X427Y1493D02*
X464Y1493D01*
X309Y1492D02*
X346Y1492D01*
X426Y1492D02*
X464Y1492D01*
X309Y1491D02*
X347Y1491D01*
X426Y1491D02*
X464Y1491D01*
X309Y1490D02*
X347Y1490D01*
X425Y1490D02*
X464Y1490D01*
X309Y1489D02*
X347Y1489D01*
X425Y1489D02*
X464Y1489D01*
X309Y1488D02*
X348Y1488D01*
X425Y1488D02*
X464Y1488D01*
X309Y1487D02*
X348Y1487D01*
X424Y1487D02*
X464Y1487D01*
X309Y1486D02*
X349Y1486D01*
X423Y1486D02*
X464Y1486D01*
X309Y1485D02*
X350Y1485D01*
X423Y1485D02*
X464Y1485D01*
X309Y1484D02*
X350Y1484D01*
X422Y1484D02*
X464Y1484D01*
X309Y1483D02*
X351Y1483D01*
X422Y1483D02*
X464Y1483D01*
X309Y1482D02*
X352Y1482D01*
X421Y1482D02*
X464Y1482D01*
X309Y1481D02*
X352Y1481D01*
X420Y1481D02*
X464Y1481D01*
X309Y1480D02*
X353Y1480D01*
X419Y1480D02*
X464Y1480D01*
X309Y1479D02*
X354Y1479D01*
X418Y1479D02*
X464Y1479D01*
X309Y1478D02*
X355Y1478D01*
X417Y1478D02*
X464Y1478D01*
X309Y1477D02*
X356Y1477D01*
X416Y1477D02*
X464Y1477D01*
X309Y1476D02*
X357Y1476D01*
X415Y1476D02*
X464Y1476D01*
X309Y1475D02*
X358Y1475D01*
X414Y1475D02*
X464Y1475D01*
X309Y1474D02*
X359Y1474D01*
X413Y1474D02*
X464Y1474D01*
X309Y1473D02*
X361Y1473D01*
X412Y1473D02*
X464Y1473D01*
X309Y1472D02*
X362Y1472D01*
X411Y1472D02*
X464Y1472D01*
X310Y1471D02*
X363Y1471D01*
X409Y1471D02*
X464Y1471D01*
X310Y1470D02*
X365Y1470D01*
X407Y1470D02*
X464Y1470D01*
X310Y1469D02*
X367Y1469D01*
X405Y1469D02*
X464Y1469D01*
X310Y1468D02*
X369Y1468D01*
X403Y1468D02*
X464Y1468D01*
X310Y1467D02*
X372Y1467D01*
X401Y1467D02*
X464Y1467D01*
X310Y1466D02*
X375Y1466D01*
X397Y1466D02*
X464Y1466D01*
X310Y1465D02*
X381Y1465D01*
X392Y1465D02*
X464Y1465D01*
X310Y1464D02*
X464Y1464D01*
X310Y1463D02*
X464Y1463D01*
X310Y1462D02*
X464Y1462D01*
X310Y1461D02*
X464Y1461D01*
X310Y1460D02*
X464Y1460D01*
X310Y1459D02*
X464Y1459D01*
X310Y1458D02*
X464Y1458D01*
X310Y1457D02*
X464Y1457D01*
X310Y1456D02*
X464Y1456D01*
X310Y1455D02*
X464Y1455D01*
X310Y1454D02*
X464Y1454D01*
X310Y1453D02*
X465Y1453D01*
X310Y1452D02*
X465Y1452D01*
X310Y1451D02*
X465Y1451D01*
X310Y1450D02*
X465Y1450D01*
X310Y1449D02*
X465Y1449D01*
X310Y1448D02*
X465Y1448D01*
X310Y1447D02*
X465Y1447D01*
X310Y1446D02*
X465Y1446D01*
X310Y1445D02*
X465Y1445D01*
X310Y1444D02*
X465Y1444D01*
X310Y1443D02*
X465Y1443D01*
X310Y1442D02*
X465Y1442D01*
X310Y1441D02*
X465Y1441D01*
X310Y1440D02*
X465Y1440D01*
X310Y1439D02*
X465Y1439D01*
X310Y1438D02*
X465Y1438D01*
X310Y1437D02*
X465Y1437D01*
X310Y1436D02*
X465Y1436D01*
X310Y1435D02*
X465Y1435D01*
X310Y1434D02*
X465Y1434D01*
X310Y1433D02*
X465Y1433D01*
X310Y1432D02*
X465Y1432D01*
X310Y1431D02*
X465Y1431D01*
X310Y1430D02*
X438Y1430D01*
X310Y1429D02*
X380Y1429D01*
X310Y1428D02*
X323Y1428D01*
D02*
G04 End of Mask1*
M02*