G04 MADE WITH FRITZING*
G04 WWW.FRITZING.ORG*
G04 DOUBLE SIDED*
G04 HOLES PLATED*
G04 CONTOUR ON CENTER OF CONTOUR VECTOR*
%ASAXBY*%
%FSLAX23Y23*%
%MOIN*%
%OFA0B0*%
%SFA1.0B1.0*%
%ADD10C,0.075000*%
%ADD11C,0.145669*%
%ADD12C,0.073749*%
%ADD13C,0.073889*%
%ADD14C,0.066111*%
%ADD15C,0.066139*%
%ADD16C,0.066083*%
%ADD17C,0.032000*%
%ADD18C,0.024000*%
%ADD19R,0.001000X0.001000*%
%LNCOPPER0*%
G90*
G70*
G54D10*
X2604Y2093D03*
X740Y647D03*
G54D11*
X383Y1706D03*
X387Y1506D03*
G54D12*
X2438Y1339D03*
X2438Y1439D03*
X2438Y1639D03*
G54D13*
X316Y396D03*
X416Y396D03*
X516Y396D03*
X616Y396D03*
G54D10*
X1051Y1513D03*
X1451Y1513D03*
G54D14*
X2122Y103D03*
X2222Y103D03*
X2322Y103D03*
X2422Y103D03*
X2522Y103D03*
X1662Y2003D03*
X1562Y2003D03*
X1462Y2003D03*
X1362Y2003D03*
X1262Y2003D03*
X1162Y2003D03*
X1062Y2003D03*
X962Y2003D03*
X862Y2003D03*
X762Y2003D03*
X2522Y2003D03*
X2422Y2003D03*
X2322Y2003D03*
G54D15*
X2222Y2003D03*
G54D14*
X2122Y2003D03*
X2022Y2003D03*
X1922Y2003D03*
X1822Y2003D03*
X1222Y103D03*
G54D16*
X1122Y103D03*
X1322Y103D03*
G54D14*
X1422Y103D03*
X1522Y103D03*
X1622Y103D03*
X1722Y103D03*
X1822Y103D03*
X2022Y103D03*
X2621Y1205D03*
G54D15*
X2521Y1205D03*
G54D14*
X2621Y1106D03*
G54D15*
X2521Y1106D03*
X2621Y1007D03*
X2521Y1007D03*
G54D14*
X752Y1860D03*
X752Y1760D03*
X856Y1860D03*
X856Y1760D03*
X648Y1860D03*
X648Y1760D03*
G54D17*
X1017Y1513D02*
X451Y1507D01*
G54D18*
D02*
X1473Y1532D02*
X1999Y1983D01*
D02*
X2238Y1977D02*
X2422Y1667D01*
D02*
X2597Y1364D02*
X2604Y1231D01*
D02*
X2467Y1425D02*
X2597Y1364D01*
D02*
X2604Y1231D02*
X2604Y1231D01*
D02*
X731Y311D02*
X1462Y239D01*
D02*
X1462Y239D02*
X1524Y127D01*
D02*
X643Y375D02*
X731Y311D01*
D02*
X1524Y127D02*
X1524Y133D01*
D02*
X230Y730D02*
X236Y1611D01*
D02*
X307Y429D02*
X230Y730D01*
D02*
X236Y1611D02*
X334Y1674D01*
D02*
X844Y782D02*
X1901Y603D01*
D02*
X1901Y603D02*
X2124Y151D01*
D02*
X584Y717D02*
X844Y782D01*
D02*
X2124Y151D02*
X2123Y133D01*
D02*
X523Y429D02*
X584Y717D01*
D02*
X440Y1718D02*
X619Y1754D01*
D02*
X2564Y870D02*
X2609Y979D01*
D02*
X2330Y948D02*
X2564Y870D01*
D02*
X2317Y1081D02*
X2330Y948D01*
D02*
X2424Y1310D02*
X2317Y1081D01*
G36*
X40Y2163D02*
X40Y2075D01*
X2538Y2075D01*
X2538Y2073D01*
X2544Y2073D01*
X2544Y2071D01*
X2550Y2071D01*
X2550Y2069D01*
X2554Y2069D01*
X2554Y2067D01*
X2558Y2067D01*
X2558Y2065D01*
X2562Y2065D01*
X2562Y2063D01*
X2564Y2063D01*
X2564Y2061D01*
X2566Y2061D01*
X2566Y2059D01*
X2570Y2059D01*
X2570Y2057D01*
X2572Y2057D01*
X2572Y2055D01*
X2574Y2055D01*
X2574Y2053D01*
X2576Y2053D01*
X2576Y2051D01*
X2578Y2051D01*
X2578Y2047D01*
X2580Y2047D01*
X2580Y2045D01*
X2582Y2045D01*
X2582Y2043D01*
X2584Y2043D01*
X2584Y2039D01*
X2586Y2039D01*
X2586Y2035D01*
X2588Y2035D01*
X2588Y2031D01*
X2590Y2031D01*
X2590Y2027D01*
X2592Y2027D01*
X2592Y2019D01*
X2594Y2019D01*
X2594Y1987D01*
X2592Y1987D01*
X2592Y1979D01*
X2590Y1979D01*
X2590Y1975D01*
X2588Y1975D01*
X2588Y1971D01*
X2586Y1971D01*
X2586Y1967D01*
X2584Y1967D01*
X2584Y1963D01*
X2582Y1963D01*
X2582Y1961D01*
X2580Y1961D01*
X2580Y1959D01*
X2578Y1959D01*
X2578Y1955D01*
X2576Y1955D01*
X2576Y1953D01*
X2574Y1953D01*
X2574Y1951D01*
X2572Y1951D01*
X2572Y1949D01*
X2570Y1949D01*
X2570Y1947D01*
X2566Y1947D01*
X2566Y1945D01*
X2564Y1945D01*
X2564Y1943D01*
X2562Y1943D01*
X2562Y1941D01*
X2558Y1941D01*
X2558Y1939D01*
X2554Y1939D01*
X2554Y1937D01*
X2550Y1937D01*
X2550Y1935D01*
X2544Y1935D01*
X2544Y1933D01*
X2538Y1933D01*
X2538Y1931D01*
X2686Y1931D01*
X2686Y2163D01*
X40Y2163D01*
G37*
D02*
G36*
X40Y2075D02*
X40Y1933D01*
X656Y1933D01*
X656Y1931D01*
X666Y1931D01*
X666Y1929D01*
X674Y1929D01*
X674Y1927D01*
X678Y1927D01*
X678Y1925D01*
X682Y1925D01*
X682Y1923D01*
X686Y1923D01*
X686Y1921D01*
X688Y1921D01*
X688Y1919D01*
X712Y1919D01*
X712Y1921D01*
X716Y1921D01*
X716Y1923D01*
X718Y1923D01*
X718Y1925D01*
X720Y1925D01*
X720Y1945D01*
X718Y1945D01*
X718Y1947D01*
X714Y1947D01*
X714Y1949D01*
X712Y1949D01*
X712Y1951D01*
X710Y1951D01*
X710Y1953D01*
X708Y1953D01*
X708Y1955D01*
X706Y1955D01*
X706Y1959D01*
X704Y1959D01*
X704Y1961D01*
X702Y1961D01*
X702Y1965D01*
X700Y1965D01*
X700Y1967D01*
X698Y1967D01*
X698Y1971D01*
X696Y1971D01*
X696Y1975D01*
X694Y1975D01*
X694Y1981D01*
X692Y1981D01*
X692Y1989D01*
X690Y1989D01*
X690Y2017D01*
X692Y2017D01*
X692Y2025D01*
X694Y2025D01*
X694Y2031D01*
X696Y2031D01*
X696Y2035D01*
X698Y2035D01*
X698Y2039D01*
X700Y2039D01*
X700Y2041D01*
X702Y2041D01*
X702Y2045D01*
X704Y2045D01*
X704Y2047D01*
X706Y2047D01*
X706Y2051D01*
X708Y2051D01*
X708Y2053D01*
X710Y2053D01*
X710Y2055D01*
X712Y2055D01*
X712Y2057D01*
X714Y2057D01*
X714Y2059D01*
X718Y2059D01*
X718Y2061D01*
X720Y2061D01*
X720Y2063D01*
X724Y2063D01*
X724Y2065D01*
X726Y2065D01*
X726Y2067D01*
X730Y2067D01*
X730Y2069D01*
X734Y2069D01*
X734Y2071D01*
X740Y2071D01*
X740Y2073D01*
X748Y2073D01*
X748Y2075D01*
X40Y2075D01*
G37*
D02*
G36*
X778Y2075D02*
X778Y2073D01*
X784Y2073D01*
X784Y2071D01*
X790Y2071D01*
X790Y2069D01*
X794Y2069D01*
X794Y2067D01*
X798Y2067D01*
X798Y2065D01*
X802Y2065D01*
X802Y2063D01*
X824Y2063D01*
X824Y2065D01*
X826Y2065D01*
X826Y2067D01*
X830Y2067D01*
X830Y2069D01*
X834Y2069D01*
X834Y2071D01*
X840Y2071D01*
X840Y2073D01*
X848Y2073D01*
X848Y2075D01*
X778Y2075D01*
G37*
D02*
G36*
X878Y2075D02*
X878Y2073D01*
X884Y2073D01*
X884Y2071D01*
X890Y2071D01*
X890Y2069D01*
X894Y2069D01*
X894Y2067D01*
X898Y2067D01*
X898Y2065D01*
X902Y2065D01*
X902Y2063D01*
X924Y2063D01*
X924Y2065D01*
X926Y2065D01*
X926Y2067D01*
X930Y2067D01*
X930Y2069D01*
X934Y2069D01*
X934Y2071D01*
X940Y2071D01*
X940Y2073D01*
X948Y2073D01*
X948Y2075D01*
X878Y2075D01*
G37*
D02*
G36*
X978Y2075D02*
X978Y2073D01*
X984Y2073D01*
X984Y2071D01*
X990Y2071D01*
X990Y2069D01*
X994Y2069D01*
X994Y2067D01*
X998Y2067D01*
X998Y2065D01*
X1002Y2065D01*
X1002Y2063D01*
X1024Y2063D01*
X1024Y2065D01*
X1026Y2065D01*
X1026Y2067D01*
X1030Y2067D01*
X1030Y2069D01*
X1034Y2069D01*
X1034Y2071D01*
X1040Y2071D01*
X1040Y2073D01*
X1048Y2073D01*
X1048Y2075D01*
X978Y2075D01*
G37*
D02*
G36*
X1078Y2075D02*
X1078Y2073D01*
X1084Y2073D01*
X1084Y2071D01*
X1090Y2071D01*
X1090Y2069D01*
X1094Y2069D01*
X1094Y2067D01*
X1098Y2067D01*
X1098Y2065D01*
X1102Y2065D01*
X1102Y2063D01*
X1124Y2063D01*
X1124Y2065D01*
X1126Y2065D01*
X1126Y2067D01*
X1130Y2067D01*
X1130Y2069D01*
X1134Y2069D01*
X1134Y2071D01*
X1140Y2071D01*
X1140Y2073D01*
X1148Y2073D01*
X1148Y2075D01*
X1078Y2075D01*
G37*
D02*
G36*
X1178Y2075D02*
X1178Y2073D01*
X1184Y2073D01*
X1184Y2071D01*
X1190Y2071D01*
X1190Y2069D01*
X1194Y2069D01*
X1194Y2067D01*
X1198Y2067D01*
X1198Y2065D01*
X1202Y2065D01*
X1202Y2063D01*
X1224Y2063D01*
X1224Y2065D01*
X1226Y2065D01*
X1226Y2067D01*
X1230Y2067D01*
X1230Y2069D01*
X1234Y2069D01*
X1234Y2071D01*
X1240Y2071D01*
X1240Y2073D01*
X1248Y2073D01*
X1248Y2075D01*
X1178Y2075D01*
G37*
D02*
G36*
X1278Y2075D02*
X1278Y2073D01*
X1284Y2073D01*
X1284Y2071D01*
X1290Y2071D01*
X1290Y2069D01*
X1294Y2069D01*
X1294Y2067D01*
X1298Y2067D01*
X1298Y2065D01*
X1302Y2065D01*
X1302Y2063D01*
X1324Y2063D01*
X1324Y2065D01*
X1326Y2065D01*
X1326Y2067D01*
X1330Y2067D01*
X1330Y2069D01*
X1334Y2069D01*
X1334Y2071D01*
X1340Y2071D01*
X1340Y2073D01*
X1348Y2073D01*
X1348Y2075D01*
X1278Y2075D01*
G37*
D02*
G36*
X1378Y2075D02*
X1378Y2073D01*
X1384Y2073D01*
X1384Y2071D01*
X1390Y2071D01*
X1390Y2069D01*
X1394Y2069D01*
X1394Y2067D01*
X1398Y2067D01*
X1398Y2065D01*
X1402Y2065D01*
X1402Y2063D01*
X1424Y2063D01*
X1424Y2065D01*
X1426Y2065D01*
X1426Y2067D01*
X1430Y2067D01*
X1430Y2069D01*
X1434Y2069D01*
X1434Y2071D01*
X1440Y2071D01*
X1440Y2073D01*
X1448Y2073D01*
X1448Y2075D01*
X1378Y2075D01*
G37*
D02*
G36*
X1478Y2075D02*
X1478Y2073D01*
X1484Y2073D01*
X1484Y2071D01*
X1490Y2071D01*
X1490Y2069D01*
X1494Y2069D01*
X1494Y2067D01*
X1498Y2067D01*
X1498Y2065D01*
X1502Y2065D01*
X1502Y2063D01*
X1524Y2063D01*
X1524Y2065D01*
X1526Y2065D01*
X1526Y2067D01*
X1530Y2067D01*
X1530Y2069D01*
X1534Y2069D01*
X1534Y2071D01*
X1540Y2071D01*
X1540Y2073D01*
X1548Y2073D01*
X1548Y2075D01*
X1478Y2075D01*
G37*
D02*
G36*
X1578Y2075D02*
X1578Y2073D01*
X1584Y2073D01*
X1584Y2071D01*
X1590Y2071D01*
X1590Y2069D01*
X1594Y2069D01*
X1594Y2067D01*
X1598Y2067D01*
X1598Y2065D01*
X1602Y2065D01*
X1602Y2063D01*
X1624Y2063D01*
X1624Y2065D01*
X1626Y2065D01*
X1626Y2067D01*
X1630Y2067D01*
X1630Y2069D01*
X1634Y2069D01*
X1634Y2071D01*
X1640Y2071D01*
X1640Y2073D01*
X1648Y2073D01*
X1648Y2075D01*
X1578Y2075D01*
G37*
D02*
G36*
X1678Y2075D02*
X1678Y2073D01*
X1684Y2073D01*
X1684Y2071D01*
X1690Y2071D01*
X1690Y2069D01*
X1694Y2069D01*
X1694Y2067D01*
X1698Y2067D01*
X1698Y2065D01*
X1702Y2065D01*
X1702Y2063D01*
X1704Y2063D01*
X1704Y2061D01*
X1706Y2061D01*
X1706Y2059D01*
X1710Y2059D01*
X1710Y2057D01*
X1712Y2057D01*
X1712Y2055D01*
X1714Y2055D01*
X1714Y2053D01*
X1716Y2053D01*
X1716Y2051D01*
X1718Y2051D01*
X1718Y2047D01*
X1720Y2047D01*
X1720Y2045D01*
X1722Y2045D01*
X1722Y2043D01*
X1724Y2043D01*
X1724Y2039D01*
X1726Y2039D01*
X1726Y2035D01*
X1728Y2035D01*
X1728Y2031D01*
X1730Y2031D01*
X1730Y2027D01*
X1732Y2027D01*
X1732Y2019D01*
X1752Y2019D01*
X1752Y2025D01*
X1754Y2025D01*
X1754Y2031D01*
X1756Y2031D01*
X1756Y2035D01*
X1758Y2035D01*
X1758Y2039D01*
X1760Y2039D01*
X1760Y2041D01*
X1762Y2041D01*
X1762Y2045D01*
X1764Y2045D01*
X1764Y2047D01*
X1766Y2047D01*
X1766Y2049D01*
X1768Y2049D01*
X1768Y2053D01*
X1770Y2053D01*
X1770Y2055D01*
X1772Y2055D01*
X1772Y2057D01*
X1774Y2057D01*
X1774Y2059D01*
X1778Y2059D01*
X1778Y2061D01*
X1780Y2061D01*
X1780Y2063D01*
X1784Y2063D01*
X1784Y2065D01*
X1786Y2065D01*
X1786Y2067D01*
X1790Y2067D01*
X1790Y2069D01*
X1794Y2069D01*
X1794Y2071D01*
X1800Y2071D01*
X1800Y2073D01*
X1808Y2073D01*
X1808Y2075D01*
X1678Y2075D01*
G37*
D02*
G36*
X1838Y2075D02*
X1838Y2073D01*
X1844Y2073D01*
X1844Y2071D01*
X1850Y2071D01*
X1850Y2069D01*
X1854Y2069D01*
X1854Y2067D01*
X1858Y2067D01*
X1858Y2065D01*
X1862Y2065D01*
X1862Y2063D01*
X1884Y2063D01*
X1884Y2065D01*
X1886Y2065D01*
X1886Y2067D01*
X1890Y2067D01*
X1890Y2069D01*
X1894Y2069D01*
X1894Y2071D01*
X1900Y2071D01*
X1900Y2073D01*
X1908Y2073D01*
X1908Y2075D01*
X1838Y2075D01*
G37*
D02*
G36*
X1938Y2075D02*
X1938Y2073D01*
X1944Y2073D01*
X1944Y2071D01*
X1950Y2071D01*
X1950Y2069D01*
X1954Y2069D01*
X1954Y2067D01*
X1958Y2067D01*
X1958Y2065D01*
X1962Y2065D01*
X1962Y2063D01*
X1984Y2063D01*
X1984Y2065D01*
X1986Y2065D01*
X1986Y2067D01*
X1990Y2067D01*
X1990Y2069D01*
X1994Y2069D01*
X1994Y2071D01*
X2000Y2071D01*
X2000Y2073D01*
X2008Y2073D01*
X2008Y2075D01*
X1938Y2075D01*
G37*
D02*
G36*
X2038Y2075D02*
X2038Y2073D01*
X2044Y2073D01*
X2044Y2071D01*
X2050Y2071D01*
X2050Y2069D01*
X2054Y2069D01*
X2054Y2067D01*
X2058Y2067D01*
X2058Y2065D01*
X2062Y2065D01*
X2062Y2063D01*
X2084Y2063D01*
X2084Y2065D01*
X2086Y2065D01*
X2086Y2067D01*
X2090Y2067D01*
X2090Y2069D01*
X2094Y2069D01*
X2094Y2071D01*
X2100Y2071D01*
X2100Y2073D01*
X2108Y2073D01*
X2108Y2075D01*
X2038Y2075D01*
G37*
D02*
G36*
X2138Y2075D02*
X2138Y2073D01*
X2144Y2073D01*
X2144Y2071D01*
X2150Y2071D01*
X2150Y2069D01*
X2154Y2069D01*
X2154Y2067D01*
X2158Y2067D01*
X2158Y2065D01*
X2162Y2065D01*
X2162Y2063D01*
X2184Y2063D01*
X2184Y2065D01*
X2186Y2065D01*
X2186Y2067D01*
X2190Y2067D01*
X2190Y2069D01*
X2194Y2069D01*
X2194Y2071D01*
X2200Y2071D01*
X2200Y2073D01*
X2208Y2073D01*
X2208Y2075D01*
X2138Y2075D01*
G37*
D02*
G36*
X2238Y2075D02*
X2238Y2073D01*
X2244Y2073D01*
X2244Y2071D01*
X2250Y2071D01*
X2250Y2069D01*
X2254Y2069D01*
X2254Y2067D01*
X2258Y2067D01*
X2258Y2065D01*
X2262Y2065D01*
X2262Y2063D01*
X2284Y2063D01*
X2284Y2065D01*
X2286Y2065D01*
X2286Y2067D01*
X2290Y2067D01*
X2290Y2069D01*
X2294Y2069D01*
X2294Y2071D01*
X2300Y2071D01*
X2300Y2073D01*
X2308Y2073D01*
X2308Y2075D01*
X2238Y2075D01*
G37*
D02*
G36*
X2338Y2075D02*
X2338Y2073D01*
X2344Y2073D01*
X2344Y2071D01*
X2350Y2071D01*
X2350Y2069D01*
X2354Y2069D01*
X2354Y2067D01*
X2358Y2067D01*
X2358Y2065D01*
X2362Y2065D01*
X2362Y2063D01*
X2384Y2063D01*
X2384Y2065D01*
X2386Y2065D01*
X2386Y2067D01*
X2390Y2067D01*
X2390Y2069D01*
X2394Y2069D01*
X2394Y2071D01*
X2400Y2071D01*
X2400Y2073D01*
X2408Y2073D01*
X2408Y2075D01*
X2338Y2075D01*
G37*
D02*
G36*
X2438Y2075D02*
X2438Y2073D01*
X2444Y2073D01*
X2444Y2071D01*
X2450Y2071D01*
X2450Y2069D01*
X2454Y2069D01*
X2454Y2067D01*
X2458Y2067D01*
X2458Y2065D01*
X2462Y2065D01*
X2462Y2063D01*
X2484Y2063D01*
X2484Y2065D01*
X2486Y2065D01*
X2486Y2067D01*
X2490Y2067D01*
X2490Y2069D01*
X2494Y2069D01*
X2494Y2071D01*
X2500Y2071D01*
X2500Y2073D01*
X2508Y2073D01*
X2508Y2075D01*
X2438Y2075D01*
G37*
D02*
G36*
X1732Y1987D02*
X1732Y1979D01*
X1730Y1979D01*
X1730Y1975D01*
X1728Y1975D01*
X1728Y1971D01*
X1726Y1971D01*
X1726Y1967D01*
X1724Y1967D01*
X1724Y1963D01*
X1722Y1963D01*
X1722Y1961D01*
X1720Y1961D01*
X1720Y1959D01*
X1718Y1959D01*
X1718Y1955D01*
X1716Y1955D01*
X1716Y1953D01*
X1714Y1953D01*
X1714Y1951D01*
X1712Y1951D01*
X1712Y1949D01*
X1710Y1949D01*
X1710Y1947D01*
X1706Y1947D01*
X1706Y1945D01*
X1704Y1945D01*
X1704Y1943D01*
X1702Y1943D01*
X1702Y1941D01*
X1698Y1941D01*
X1698Y1939D01*
X1694Y1939D01*
X1694Y1937D01*
X1690Y1937D01*
X1690Y1935D01*
X1684Y1935D01*
X1684Y1933D01*
X1678Y1933D01*
X1678Y1931D01*
X1808Y1931D01*
X1808Y1933D01*
X1800Y1933D01*
X1800Y1935D01*
X1794Y1935D01*
X1794Y1937D01*
X1790Y1937D01*
X1790Y1939D01*
X1786Y1939D01*
X1786Y1941D01*
X1784Y1941D01*
X1784Y1943D01*
X1780Y1943D01*
X1780Y1945D01*
X1778Y1945D01*
X1778Y1947D01*
X1774Y1947D01*
X1774Y1949D01*
X1772Y1949D01*
X1772Y1951D01*
X1770Y1951D01*
X1770Y1953D01*
X1768Y1953D01*
X1768Y1957D01*
X1766Y1957D01*
X1766Y1959D01*
X1764Y1959D01*
X1764Y1961D01*
X1762Y1961D01*
X1762Y1965D01*
X1760Y1965D01*
X1760Y1967D01*
X1758Y1967D01*
X1758Y1971D01*
X1756Y1971D01*
X1756Y1975D01*
X1754Y1975D01*
X1754Y1981D01*
X1752Y1981D01*
X1752Y1987D01*
X1732Y1987D01*
G37*
D02*
G36*
X902Y1943D02*
X902Y1941D01*
X898Y1941D01*
X898Y1939D01*
X896Y1939D01*
X896Y1931D01*
X948Y1931D01*
X948Y1933D01*
X940Y1933D01*
X940Y1935D01*
X934Y1935D01*
X934Y1937D01*
X930Y1937D01*
X930Y1939D01*
X926Y1939D01*
X926Y1941D01*
X924Y1941D01*
X924Y1943D01*
X902Y1943D01*
G37*
D02*
G36*
X1002Y1943D02*
X1002Y1941D01*
X998Y1941D01*
X998Y1939D01*
X994Y1939D01*
X994Y1937D01*
X990Y1937D01*
X990Y1935D01*
X984Y1935D01*
X984Y1933D01*
X978Y1933D01*
X978Y1931D01*
X1048Y1931D01*
X1048Y1933D01*
X1040Y1933D01*
X1040Y1935D01*
X1034Y1935D01*
X1034Y1937D01*
X1030Y1937D01*
X1030Y1939D01*
X1026Y1939D01*
X1026Y1941D01*
X1024Y1941D01*
X1024Y1943D01*
X1002Y1943D01*
G37*
D02*
G36*
X1102Y1943D02*
X1102Y1941D01*
X1098Y1941D01*
X1098Y1939D01*
X1094Y1939D01*
X1094Y1937D01*
X1090Y1937D01*
X1090Y1935D01*
X1084Y1935D01*
X1084Y1933D01*
X1078Y1933D01*
X1078Y1931D01*
X1148Y1931D01*
X1148Y1933D01*
X1140Y1933D01*
X1140Y1935D01*
X1134Y1935D01*
X1134Y1937D01*
X1130Y1937D01*
X1130Y1939D01*
X1126Y1939D01*
X1126Y1941D01*
X1124Y1941D01*
X1124Y1943D01*
X1102Y1943D01*
G37*
D02*
G36*
X1202Y1943D02*
X1202Y1941D01*
X1198Y1941D01*
X1198Y1939D01*
X1194Y1939D01*
X1194Y1937D01*
X1190Y1937D01*
X1190Y1935D01*
X1184Y1935D01*
X1184Y1933D01*
X1178Y1933D01*
X1178Y1931D01*
X1248Y1931D01*
X1248Y1933D01*
X1240Y1933D01*
X1240Y1935D01*
X1234Y1935D01*
X1234Y1937D01*
X1230Y1937D01*
X1230Y1939D01*
X1226Y1939D01*
X1226Y1941D01*
X1224Y1941D01*
X1224Y1943D01*
X1202Y1943D01*
G37*
D02*
G36*
X1302Y1943D02*
X1302Y1941D01*
X1298Y1941D01*
X1298Y1939D01*
X1294Y1939D01*
X1294Y1937D01*
X1290Y1937D01*
X1290Y1935D01*
X1284Y1935D01*
X1284Y1933D01*
X1278Y1933D01*
X1278Y1931D01*
X1348Y1931D01*
X1348Y1933D01*
X1340Y1933D01*
X1340Y1935D01*
X1334Y1935D01*
X1334Y1937D01*
X1330Y1937D01*
X1330Y1939D01*
X1326Y1939D01*
X1326Y1941D01*
X1324Y1941D01*
X1324Y1943D01*
X1302Y1943D01*
G37*
D02*
G36*
X1402Y1943D02*
X1402Y1941D01*
X1398Y1941D01*
X1398Y1939D01*
X1394Y1939D01*
X1394Y1937D01*
X1390Y1937D01*
X1390Y1935D01*
X1384Y1935D01*
X1384Y1933D01*
X1378Y1933D01*
X1378Y1931D01*
X1448Y1931D01*
X1448Y1933D01*
X1440Y1933D01*
X1440Y1935D01*
X1434Y1935D01*
X1434Y1937D01*
X1430Y1937D01*
X1430Y1939D01*
X1426Y1939D01*
X1426Y1941D01*
X1424Y1941D01*
X1424Y1943D01*
X1402Y1943D01*
G37*
D02*
G36*
X1502Y1943D02*
X1502Y1941D01*
X1498Y1941D01*
X1498Y1939D01*
X1494Y1939D01*
X1494Y1937D01*
X1490Y1937D01*
X1490Y1935D01*
X1484Y1935D01*
X1484Y1933D01*
X1478Y1933D01*
X1478Y1931D01*
X1548Y1931D01*
X1548Y1933D01*
X1540Y1933D01*
X1540Y1935D01*
X1534Y1935D01*
X1534Y1937D01*
X1530Y1937D01*
X1530Y1939D01*
X1526Y1939D01*
X1526Y1941D01*
X1524Y1941D01*
X1524Y1943D01*
X1502Y1943D01*
G37*
D02*
G36*
X1602Y1943D02*
X1602Y1941D01*
X1598Y1941D01*
X1598Y1939D01*
X1594Y1939D01*
X1594Y1937D01*
X1590Y1937D01*
X1590Y1935D01*
X1584Y1935D01*
X1584Y1933D01*
X1578Y1933D01*
X1578Y1931D01*
X1648Y1931D01*
X1648Y1933D01*
X1640Y1933D01*
X1640Y1935D01*
X1634Y1935D01*
X1634Y1937D01*
X1630Y1937D01*
X1630Y1939D01*
X1626Y1939D01*
X1626Y1941D01*
X1624Y1941D01*
X1624Y1943D01*
X1602Y1943D01*
G37*
D02*
G36*
X2062Y1943D02*
X2062Y1941D01*
X2058Y1941D01*
X2058Y1939D01*
X2054Y1939D01*
X2054Y1937D01*
X2050Y1937D01*
X2050Y1935D01*
X2044Y1935D01*
X2044Y1933D01*
X2038Y1933D01*
X2038Y1931D01*
X2108Y1931D01*
X2108Y1933D01*
X2100Y1933D01*
X2100Y1935D01*
X2094Y1935D01*
X2094Y1937D01*
X2090Y1937D01*
X2090Y1939D01*
X2086Y1939D01*
X2086Y1941D01*
X2084Y1941D01*
X2084Y1943D01*
X2062Y1943D01*
G37*
D02*
G36*
X2162Y1943D02*
X2162Y1941D01*
X2158Y1941D01*
X2158Y1939D01*
X2154Y1939D01*
X2154Y1937D01*
X2150Y1937D01*
X2150Y1935D01*
X2144Y1935D01*
X2144Y1933D01*
X2138Y1933D01*
X2138Y1931D01*
X2204Y1931D01*
X2204Y1933D01*
X2200Y1933D01*
X2200Y1935D01*
X2194Y1935D01*
X2194Y1937D01*
X2190Y1937D01*
X2190Y1939D01*
X2186Y1939D01*
X2186Y1941D01*
X2184Y1941D01*
X2184Y1943D01*
X2162Y1943D01*
G37*
D02*
G36*
X2362Y1943D02*
X2362Y1941D01*
X2358Y1941D01*
X2358Y1939D01*
X2354Y1939D01*
X2354Y1937D01*
X2350Y1937D01*
X2350Y1935D01*
X2344Y1935D01*
X2344Y1933D01*
X2338Y1933D01*
X2338Y1931D01*
X2408Y1931D01*
X2408Y1933D01*
X2400Y1933D01*
X2400Y1935D01*
X2394Y1935D01*
X2394Y1937D01*
X2390Y1937D01*
X2390Y1939D01*
X2386Y1939D01*
X2386Y1941D01*
X2384Y1941D01*
X2384Y1943D01*
X2362Y1943D01*
G37*
D02*
G36*
X2462Y1943D02*
X2462Y1941D01*
X2458Y1941D01*
X2458Y1939D01*
X2454Y1939D01*
X2454Y1937D01*
X2450Y1937D01*
X2450Y1935D01*
X2444Y1935D01*
X2444Y1933D01*
X2438Y1933D01*
X2438Y1931D01*
X2508Y1931D01*
X2508Y1933D01*
X2500Y1933D01*
X2500Y1935D01*
X2494Y1935D01*
X2494Y1937D01*
X2490Y1937D01*
X2490Y1939D01*
X2486Y1939D01*
X2486Y1941D01*
X2484Y1941D01*
X2484Y1943D01*
X2462Y1943D01*
G37*
D02*
G36*
X40Y1933D02*
X40Y1819D01*
X396Y1819D01*
X396Y1817D01*
X408Y1817D01*
X408Y1815D01*
X416Y1815D01*
X416Y1813D01*
X422Y1813D01*
X422Y1811D01*
X428Y1811D01*
X428Y1809D01*
X432Y1809D01*
X432Y1807D01*
X436Y1807D01*
X436Y1805D01*
X440Y1805D01*
X440Y1803D01*
X442Y1803D01*
X442Y1801D01*
X446Y1801D01*
X446Y1799D01*
X448Y1799D01*
X448Y1797D01*
X452Y1797D01*
X452Y1795D01*
X454Y1795D01*
X454Y1793D01*
X456Y1793D01*
X456Y1791D01*
X458Y1791D01*
X458Y1789D01*
X460Y1789D01*
X460Y1787D01*
X462Y1787D01*
X462Y1785D01*
X464Y1785D01*
X464Y1783D01*
X466Y1783D01*
X466Y1781D01*
X494Y1781D01*
X494Y1783D01*
X504Y1783D01*
X504Y1785D01*
X514Y1785D01*
X514Y1787D01*
X524Y1787D01*
X524Y1789D01*
X532Y1789D01*
X532Y1791D01*
X542Y1791D01*
X542Y1793D01*
X552Y1793D01*
X552Y1795D01*
X562Y1795D01*
X562Y1797D01*
X572Y1797D01*
X572Y1799D01*
X582Y1799D01*
X582Y1801D01*
X588Y1801D01*
X588Y1821D01*
X586Y1821D01*
X586Y1825D01*
X584Y1825D01*
X584Y1829D01*
X582Y1829D01*
X582Y1833D01*
X580Y1833D01*
X580Y1839D01*
X578Y1839D01*
X578Y1847D01*
X576Y1847D01*
X576Y1873D01*
X578Y1873D01*
X578Y1881D01*
X580Y1881D01*
X580Y1887D01*
X582Y1887D01*
X582Y1891D01*
X584Y1891D01*
X584Y1895D01*
X586Y1895D01*
X586Y1899D01*
X588Y1899D01*
X588Y1901D01*
X590Y1901D01*
X590Y1903D01*
X592Y1903D01*
X592Y1907D01*
X594Y1907D01*
X594Y1909D01*
X596Y1909D01*
X596Y1911D01*
X598Y1911D01*
X598Y1913D01*
X600Y1913D01*
X600Y1915D01*
X602Y1915D01*
X602Y1917D01*
X606Y1917D01*
X606Y1919D01*
X608Y1919D01*
X608Y1921D01*
X612Y1921D01*
X612Y1923D01*
X614Y1923D01*
X614Y1925D01*
X618Y1925D01*
X618Y1927D01*
X624Y1927D01*
X624Y1929D01*
X630Y1929D01*
X630Y1931D01*
X640Y1931D01*
X640Y1933D01*
X40Y1933D01*
G37*
D02*
G36*
X896Y1931D02*
X896Y1929D01*
X1836Y1929D01*
X1836Y1931D01*
X896Y1931D01*
G37*
D02*
G36*
X896Y1931D02*
X896Y1929D01*
X1836Y1929D01*
X1836Y1931D01*
X896Y1931D01*
G37*
D02*
G36*
X896Y1931D02*
X896Y1929D01*
X1836Y1929D01*
X1836Y1931D01*
X896Y1931D01*
G37*
D02*
G36*
X896Y1931D02*
X896Y1929D01*
X1836Y1929D01*
X1836Y1931D01*
X896Y1931D01*
G37*
D02*
G36*
X896Y1931D02*
X896Y1929D01*
X1836Y1929D01*
X1836Y1931D01*
X896Y1931D01*
G37*
D02*
G36*
X896Y1931D02*
X896Y1929D01*
X1836Y1929D01*
X1836Y1931D01*
X896Y1931D01*
G37*
D02*
G36*
X896Y1931D02*
X896Y1929D01*
X1836Y1929D01*
X1836Y1931D01*
X896Y1931D01*
G37*
D02*
G36*
X896Y1931D02*
X896Y1929D01*
X1836Y1929D01*
X1836Y1931D01*
X896Y1931D01*
G37*
D02*
G36*
X896Y1931D02*
X896Y1929D01*
X1836Y1929D01*
X1836Y1931D01*
X896Y1931D01*
G37*
D02*
G36*
X2016Y1931D02*
X2016Y1929D01*
X2206Y1929D01*
X2206Y1931D01*
X2016Y1931D01*
G37*
D02*
G36*
X2016Y1931D02*
X2016Y1929D01*
X2206Y1929D01*
X2206Y1931D01*
X2016Y1931D01*
G37*
D02*
G36*
X2336Y1931D02*
X2336Y1929D01*
X2686Y1929D01*
X2686Y1931D01*
X2336Y1931D01*
G37*
D02*
G36*
X2336Y1931D02*
X2336Y1929D01*
X2686Y1929D01*
X2686Y1931D01*
X2336Y1931D01*
G37*
D02*
G36*
X2336Y1931D02*
X2336Y1929D01*
X2686Y1929D01*
X2686Y1931D01*
X2336Y1931D01*
G37*
D02*
G36*
X896Y1929D02*
X896Y1919D01*
X900Y1919D01*
X900Y1917D01*
X902Y1917D01*
X902Y1915D01*
X904Y1915D01*
X904Y1913D01*
X906Y1913D01*
X906Y1911D01*
X908Y1911D01*
X908Y1909D01*
X910Y1909D01*
X910Y1907D01*
X912Y1907D01*
X912Y1905D01*
X914Y1905D01*
X914Y1903D01*
X916Y1903D01*
X916Y1899D01*
X918Y1899D01*
X918Y1897D01*
X920Y1897D01*
X920Y1893D01*
X922Y1893D01*
X922Y1889D01*
X924Y1889D01*
X924Y1883D01*
X926Y1883D01*
X926Y1877D01*
X928Y1877D01*
X928Y1843D01*
X926Y1843D01*
X926Y1837D01*
X924Y1837D01*
X924Y1831D01*
X922Y1831D01*
X922Y1827D01*
X920Y1827D01*
X920Y1823D01*
X918Y1823D01*
X918Y1821D01*
X916Y1821D01*
X916Y1801D01*
X918Y1801D01*
X918Y1797D01*
X920Y1797D01*
X920Y1793D01*
X922Y1793D01*
X922Y1789D01*
X924Y1789D01*
X924Y1783D01*
X926Y1783D01*
X926Y1777D01*
X928Y1777D01*
X928Y1745D01*
X926Y1745D01*
X926Y1737D01*
X924Y1737D01*
X924Y1731D01*
X922Y1731D01*
X922Y1727D01*
X920Y1727D01*
X920Y1725D01*
X918Y1725D01*
X918Y1721D01*
X916Y1721D01*
X916Y1719D01*
X914Y1719D01*
X914Y1715D01*
X912Y1715D01*
X912Y1713D01*
X910Y1713D01*
X910Y1711D01*
X908Y1711D01*
X908Y1709D01*
X906Y1709D01*
X906Y1707D01*
X904Y1707D01*
X904Y1705D01*
X902Y1705D01*
X902Y1703D01*
X898Y1703D01*
X898Y1701D01*
X896Y1701D01*
X896Y1699D01*
X892Y1699D01*
X892Y1697D01*
X890Y1697D01*
X890Y1695D01*
X886Y1695D01*
X886Y1693D01*
X880Y1693D01*
X880Y1691D01*
X872Y1691D01*
X872Y1689D01*
X1578Y1689D01*
X1578Y1691D01*
X1580Y1691D01*
X1580Y1693D01*
X1582Y1693D01*
X1582Y1695D01*
X1584Y1695D01*
X1584Y1697D01*
X1586Y1697D01*
X1586Y1699D01*
X1590Y1699D01*
X1590Y1701D01*
X1592Y1701D01*
X1592Y1703D01*
X1594Y1703D01*
X1594Y1705D01*
X1596Y1705D01*
X1596Y1707D01*
X1598Y1707D01*
X1598Y1709D01*
X1600Y1709D01*
X1600Y1711D01*
X1604Y1711D01*
X1604Y1713D01*
X1606Y1713D01*
X1606Y1715D01*
X1608Y1715D01*
X1608Y1717D01*
X1610Y1717D01*
X1610Y1719D01*
X1612Y1719D01*
X1612Y1721D01*
X1614Y1721D01*
X1614Y1723D01*
X1618Y1723D01*
X1618Y1725D01*
X1620Y1725D01*
X1620Y1727D01*
X1622Y1727D01*
X1622Y1729D01*
X1624Y1729D01*
X1624Y1731D01*
X1626Y1731D01*
X1626Y1733D01*
X1628Y1733D01*
X1628Y1735D01*
X1632Y1735D01*
X1632Y1737D01*
X1634Y1737D01*
X1634Y1739D01*
X1636Y1739D01*
X1636Y1741D01*
X1638Y1741D01*
X1638Y1743D01*
X1640Y1743D01*
X1640Y1745D01*
X1642Y1745D01*
X1642Y1747D01*
X1646Y1747D01*
X1646Y1749D01*
X1648Y1749D01*
X1648Y1751D01*
X1650Y1751D01*
X1650Y1753D01*
X1652Y1753D01*
X1652Y1755D01*
X1654Y1755D01*
X1654Y1757D01*
X1656Y1757D01*
X1656Y1759D01*
X1660Y1759D01*
X1660Y1761D01*
X1662Y1761D01*
X1662Y1763D01*
X1664Y1763D01*
X1664Y1765D01*
X1666Y1765D01*
X1666Y1767D01*
X1668Y1767D01*
X1668Y1769D01*
X1670Y1769D01*
X1670Y1771D01*
X1672Y1771D01*
X1672Y1773D01*
X1676Y1773D01*
X1676Y1775D01*
X1678Y1775D01*
X1678Y1777D01*
X1680Y1777D01*
X1680Y1779D01*
X1682Y1779D01*
X1682Y1781D01*
X1684Y1781D01*
X1684Y1783D01*
X1686Y1783D01*
X1686Y1785D01*
X1690Y1785D01*
X1690Y1787D01*
X1692Y1787D01*
X1692Y1789D01*
X1694Y1789D01*
X1694Y1791D01*
X1696Y1791D01*
X1696Y1793D01*
X1698Y1793D01*
X1698Y1795D01*
X1700Y1795D01*
X1700Y1797D01*
X1704Y1797D01*
X1704Y1799D01*
X1706Y1799D01*
X1706Y1801D01*
X1708Y1801D01*
X1708Y1803D01*
X1710Y1803D01*
X1710Y1805D01*
X1712Y1805D01*
X1712Y1807D01*
X1714Y1807D01*
X1714Y1809D01*
X1718Y1809D01*
X1718Y1811D01*
X1720Y1811D01*
X1720Y1813D01*
X1722Y1813D01*
X1722Y1815D01*
X1724Y1815D01*
X1724Y1817D01*
X1726Y1817D01*
X1726Y1819D01*
X1728Y1819D01*
X1728Y1821D01*
X1732Y1821D01*
X1732Y1823D01*
X1734Y1823D01*
X1734Y1825D01*
X1736Y1825D01*
X1736Y1827D01*
X1738Y1827D01*
X1738Y1829D01*
X1740Y1829D01*
X1740Y1831D01*
X1742Y1831D01*
X1742Y1833D01*
X1746Y1833D01*
X1746Y1835D01*
X1748Y1835D01*
X1748Y1837D01*
X1750Y1837D01*
X1750Y1839D01*
X1752Y1839D01*
X1752Y1841D01*
X1754Y1841D01*
X1754Y1843D01*
X1756Y1843D01*
X1756Y1845D01*
X1760Y1845D01*
X1760Y1847D01*
X1762Y1847D01*
X1762Y1849D01*
X1764Y1849D01*
X1764Y1851D01*
X1766Y1851D01*
X1766Y1853D01*
X1768Y1853D01*
X1768Y1855D01*
X1770Y1855D01*
X1770Y1857D01*
X1774Y1857D01*
X1774Y1859D01*
X1776Y1859D01*
X1776Y1861D01*
X1778Y1861D01*
X1778Y1863D01*
X1780Y1863D01*
X1780Y1865D01*
X1782Y1865D01*
X1782Y1867D01*
X1784Y1867D01*
X1784Y1869D01*
X1788Y1869D01*
X1788Y1871D01*
X1790Y1871D01*
X1790Y1873D01*
X1792Y1873D01*
X1792Y1875D01*
X1794Y1875D01*
X1794Y1877D01*
X1796Y1877D01*
X1796Y1879D01*
X1798Y1879D01*
X1798Y1881D01*
X1802Y1881D01*
X1802Y1883D01*
X1804Y1883D01*
X1804Y1885D01*
X1806Y1885D01*
X1806Y1887D01*
X1808Y1887D01*
X1808Y1889D01*
X1810Y1889D01*
X1810Y1891D01*
X1812Y1891D01*
X1812Y1893D01*
X1816Y1893D01*
X1816Y1895D01*
X1818Y1895D01*
X1818Y1897D01*
X1820Y1897D01*
X1820Y1899D01*
X1822Y1899D01*
X1822Y1901D01*
X1824Y1901D01*
X1824Y1903D01*
X1826Y1903D01*
X1826Y1905D01*
X1830Y1905D01*
X1830Y1907D01*
X1832Y1907D01*
X1832Y1909D01*
X1834Y1909D01*
X1834Y1911D01*
X1836Y1911D01*
X1836Y1929D01*
X896Y1929D01*
G37*
D02*
G36*
X2014Y1929D02*
X2014Y1927D01*
X2012Y1927D01*
X2012Y1925D01*
X2010Y1925D01*
X2010Y1923D01*
X2008Y1923D01*
X2008Y1921D01*
X2006Y1921D01*
X2006Y1919D01*
X2004Y1919D01*
X2004Y1917D01*
X2000Y1917D01*
X2000Y1915D01*
X1998Y1915D01*
X1998Y1913D01*
X1996Y1913D01*
X1996Y1911D01*
X1994Y1911D01*
X1994Y1909D01*
X1992Y1909D01*
X1992Y1907D01*
X1990Y1907D01*
X1990Y1905D01*
X1986Y1905D01*
X1986Y1903D01*
X1984Y1903D01*
X1984Y1901D01*
X1982Y1901D01*
X1982Y1899D01*
X1980Y1899D01*
X1980Y1897D01*
X1978Y1897D01*
X1978Y1895D01*
X1976Y1895D01*
X1976Y1893D01*
X1972Y1893D01*
X1972Y1891D01*
X1970Y1891D01*
X1970Y1889D01*
X1968Y1889D01*
X1968Y1887D01*
X1966Y1887D01*
X1966Y1885D01*
X1964Y1885D01*
X1964Y1883D01*
X1962Y1883D01*
X1962Y1881D01*
X1958Y1881D01*
X1958Y1879D01*
X1956Y1879D01*
X1956Y1877D01*
X1954Y1877D01*
X1954Y1875D01*
X1952Y1875D01*
X1952Y1873D01*
X1950Y1873D01*
X1950Y1871D01*
X1948Y1871D01*
X1948Y1869D01*
X1944Y1869D01*
X1944Y1867D01*
X1942Y1867D01*
X1942Y1865D01*
X1940Y1865D01*
X1940Y1863D01*
X1938Y1863D01*
X1938Y1861D01*
X1936Y1861D01*
X1936Y1859D01*
X1934Y1859D01*
X1934Y1857D01*
X1930Y1857D01*
X1930Y1855D01*
X1928Y1855D01*
X1928Y1853D01*
X1926Y1853D01*
X1926Y1851D01*
X1924Y1851D01*
X1924Y1849D01*
X1922Y1849D01*
X1922Y1847D01*
X1920Y1847D01*
X1920Y1845D01*
X1916Y1845D01*
X1916Y1843D01*
X1914Y1843D01*
X1914Y1841D01*
X1912Y1841D01*
X1912Y1839D01*
X1910Y1839D01*
X1910Y1837D01*
X1908Y1837D01*
X1908Y1835D01*
X1906Y1835D01*
X1906Y1833D01*
X1902Y1833D01*
X1902Y1831D01*
X1900Y1831D01*
X1900Y1829D01*
X1898Y1829D01*
X1898Y1827D01*
X1896Y1827D01*
X1896Y1825D01*
X1894Y1825D01*
X1894Y1823D01*
X1892Y1823D01*
X1892Y1821D01*
X1888Y1821D01*
X1888Y1819D01*
X1886Y1819D01*
X1886Y1817D01*
X1884Y1817D01*
X1884Y1815D01*
X1882Y1815D01*
X1882Y1813D01*
X1880Y1813D01*
X1880Y1811D01*
X1878Y1811D01*
X1878Y1809D01*
X1874Y1809D01*
X1874Y1807D01*
X1872Y1807D01*
X1872Y1805D01*
X1870Y1805D01*
X1870Y1803D01*
X1868Y1803D01*
X1868Y1801D01*
X1866Y1801D01*
X1866Y1799D01*
X1864Y1799D01*
X1864Y1797D01*
X1860Y1797D01*
X1860Y1795D01*
X1858Y1795D01*
X1858Y1793D01*
X1856Y1793D01*
X1856Y1791D01*
X1854Y1791D01*
X1854Y1789D01*
X1852Y1789D01*
X1852Y1787D01*
X1850Y1787D01*
X1850Y1785D01*
X1846Y1785D01*
X1846Y1783D01*
X1844Y1783D01*
X1844Y1781D01*
X1842Y1781D01*
X1842Y1779D01*
X1840Y1779D01*
X1840Y1777D01*
X1838Y1777D01*
X1838Y1775D01*
X1836Y1775D01*
X1836Y1773D01*
X1832Y1773D01*
X1832Y1771D01*
X1830Y1771D01*
X1830Y1769D01*
X1828Y1769D01*
X1828Y1767D01*
X1826Y1767D01*
X1826Y1765D01*
X1824Y1765D01*
X1824Y1763D01*
X1822Y1763D01*
X1822Y1761D01*
X1818Y1761D01*
X1818Y1759D01*
X1816Y1759D01*
X1816Y1757D01*
X1814Y1757D01*
X1814Y1755D01*
X1812Y1755D01*
X1812Y1753D01*
X1810Y1753D01*
X1810Y1751D01*
X1808Y1751D01*
X1808Y1749D01*
X1804Y1749D01*
X1804Y1747D01*
X1802Y1747D01*
X1802Y1745D01*
X1800Y1745D01*
X1800Y1743D01*
X1798Y1743D01*
X1798Y1741D01*
X1796Y1741D01*
X1796Y1739D01*
X1794Y1739D01*
X1794Y1737D01*
X1790Y1737D01*
X1790Y1735D01*
X1788Y1735D01*
X1788Y1733D01*
X1786Y1733D01*
X1786Y1731D01*
X1784Y1731D01*
X1784Y1729D01*
X1782Y1729D01*
X1782Y1727D01*
X1780Y1727D01*
X1780Y1725D01*
X1776Y1725D01*
X1776Y1723D01*
X1774Y1723D01*
X1774Y1721D01*
X1772Y1721D01*
X1772Y1719D01*
X1770Y1719D01*
X1770Y1717D01*
X1768Y1717D01*
X1768Y1715D01*
X1766Y1715D01*
X1766Y1713D01*
X1762Y1713D01*
X1762Y1711D01*
X1760Y1711D01*
X1760Y1709D01*
X1758Y1709D01*
X1758Y1707D01*
X1756Y1707D01*
X1756Y1705D01*
X1754Y1705D01*
X1754Y1703D01*
X1752Y1703D01*
X1752Y1701D01*
X1748Y1701D01*
X1748Y1699D01*
X1746Y1699D01*
X1746Y1697D01*
X1744Y1697D01*
X1744Y1695D01*
X1742Y1695D01*
X1742Y1693D01*
X1740Y1693D01*
X1740Y1691D01*
X1738Y1691D01*
X1738Y1689D01*
X1734Y1689D01*
X1734Y1687D01*
X1732Y1687D01*
X1732Y1685D01*
X1730Y1685D01*
X1730Y1683D01*
X1728Y1683D01*
X1728Y1681D01*
X1726Y1681D01*
X1726Y1679D01*
X1724Y1679D01*
X1724Y1677D01*
X1720Y1677D01*
X1720Y1675D01*
X1718Y1675D01*
X1718Y1673D01*
X1716Y1673D01*
X1716Y1671D01*
X1714Y1671D01*
X1714Y1669D01*
X1712Y1669D01*
X1712Y1667D01*
X1710Y1667D01*
X1710Y1665D01*
X1706Y1665D01*
X1706Y1663D01*
X1704Y1663D01*
X1704Y1661D01*
X1702Y1661D01*
X1702Y1659D01*
X1700Y1659D01*
X1700Y1657D01*
X1698Y1657D01*
X1698Y1655D01*
X1696Y1655D01*
X1696Y1653D01*
X1692Y1653D01*
X1692Y1651D01*
X1690Y1651D01*
X1690Y1649D01*
X1688Y1649D01*
X1688Y1647D01*
X1686Y1647D01*
X1686Y1645D01*
X1684Y1645D01*
X1684Y1643D01*
X1682Y1643D01*
X1682Y1641D01*
X1678Y1641D01*
X1678Y1639D01*
X1676Y1639D01*
X1676Y1637D01*
X1674Y1637D01*
X1674Y1635D01*
X1672Y1635D01*
X1672Y1633D01*
X1670Y1633D01*
X1670Y1631D01*
X1668Y1631D01*
X1668Y1629D01*
X1664Y1629D01*
X1664Y1627D01*
X1662Y1627D01*
X1662Y1625D01*
X1660Y1625D01*
X1660Y1623D01*
X1658Y1623D01*
X1658Y1621D01*
X1656Y1621D01*
X1656Y1619D01*
X1654Y1619D01*
X1654Y1617D01*
X1650Y1617D01*
X1650Y1615D01*
X1648Y1615D01*
X1648Y1613D01*
X1646Y1613D01*
X1646Y1611D01*
X1644Y1611D01*
X1644Y1609D01*
X1642Y1609D01*
X1642Y1607D01*
X1640Y1607D01*
X1640Y1605D01*
X1636Y1605D01*
X1636Y1603D01*
X1634Y1603D01*
X1634Y1601D01*
X1632Y1601D01*
X1632Y1599D01*
X1630Y1599D01*
X1630Y1597D01*
X1628Y1597D01*
X1628Y1595D01*
X1626Y1595D01*
X1626Y1593D01*
X1622Y1593D01*
X1622Y1591D01*
X1620Y1591D01*
X1620Y1589D01*
X1618Y1589D01*
X1618Y1587D01*
X1616Y1587D01*
X1616Y1585D01*
X1614Y1585D01*
X1614Y1583D01*
X1612Y1583D01*
X1612Y1581D01*
X1608Y1581D01*
X1608Y1579D01*
X1606Y1579D01*
X1606Y1577D01*
X1604Y1577D01*
X1604Y1575D01*
X1602Y1575D01*
X1602Y1573D01*
X1600Y1573D01*
X1600Y1571D01*
X1598Y1571D01*
X1598Y1569D01*
X1594Y1569D01*
X1594Y1567D01*
X1592Y1567D01*
X1592Y1565D01*
X1590Y1565D01*
X1590Y1563D01*
X2422Y1563D01*
X2422Y1565D01*
X2414Y1565D01*
X2414Y1567D01*
X2410Y1567D01*
X2410Y1569D01*
X2404Y1569D01*
X2404Y1571D01*
X2402Y1571D01*
X2402Y1573D01*
X2398Y1573D01*
X2398Y1575D01*
X2394Y1575D01*
X2394Y1577D01*
X2392Y1577D01*
X2392Y1579D01*
X2390Y1579D01*
X2390Y1581D01*
X2386Y1581D01*
X2386Y1583D01*
X2384Y1583D01*
X2384Y1585D01*
X2382Y1585D01*
X2382Y1587D01*
X2380Y1587D01*
X2380Y1591D01*
X2378Y1591D01*
X2378Y1593D01*
X2376Y1593D01*
X2376Y1595D01*
X2374Y1595D01*
X2374Y1599D01*
X2372Y1599D01*
X2372Y1601D01*
X2370Y1601D01*
X2370Y1605D01*
X2368Y1605D01*
X2368Y1609D01*
X2366Y1609D01*
X2366Y1615D01*
X2364Y1615D01*
X2364Y1623D01*
X2362Y1623D01*
X2362Y1667D01*
X2360Y1667D01*
X2360Y1671D01*
X2358Y1671D01*
X2358Y1673D01*
X2356Y1673D01*
X2356Y1677D01*
X2354Y1677D01*
X2354Y1681D01*
X2352Y1681D01*
X2352Y1683D01*
X2350Y1683D01*
X2350Y1687D01*
X2348Y1687D01*
X2348Y1691D01*
X2346Y1691D01*
X2346Y1695D01*
X2344Y1695D01*
X2344Y1697D01*
X2342Y1697D01*
X2342Y1701D01*
X2340Y1701D01*
X2340Y1705D01*
X2338Y1705D01*
X2338Y1707D01*
X2336Y1707D01*
X2336Y1711D01*
X2334Y1711D01*
X2334Y1715D01*
X2332Y1715D01*
X2332Y1717D01*
X2330Y1717D01*
X2330Y1721D01*
X2328Y1721D01*
X2328Y1725D01*
X2326Y1725D01*
X2326Y1727D01*
X2324Y1727D01*
X2324Y1731D01*
X2322Y1731D01*
X2322Y1735D01*
X2320Y1735D01*
X2320Y1737D01*
X2318Y1737D01*
X2318Y1741D01*
X2316Y1741D01*
X2316Y1745D01*
X2314Y1745D01*
X2314Y1747D01*
X2312Y1747D01*
X2312Y1751D01*
X2310Y1751D01*
X2310Y1755D01*
X2308Y1755D01*
X2308Y1759D01*
X2306Y1759D01*
X2306Y1761D01*
X2304Y1761D01*
X2304Y1765D01*
X2302Y1765D01*
X2302Y1769D01*
X2300Y1769D01*
X2300Y1771D01*
X2298Y1771D01*
X2298Y1775D01*
X2296Y1775D01*
X2296Y1779D01*
X2294Y1779D01*
X2294Y1781D01*
X2292Y1781D01*
X2292Y1785D01*
X2290Y1785D01*
X2290Y1789D01*
X2288Y1789D01*
X2288Y1791D01*
X2286Y1791D01*
X2286Y1795D01*
X2284Y1795D01*
X2284Y1799D01*
X2282Y1799D01*
X2282Y1801D01*
X2280Y1801D01*
X2280Y1805D01*
X2278Y1805D01*
X2278Y1809D01*
X2276Y1809D01*
X2276Y1813D01*
X2274Y1813D01*
X2274Y1815D01*
X2272Y1815D01*
X2272Y1819D01*
X2270Y1819D01*
X2270Y1823D01*
X2268Y1823D01*
X2268Y1825D01*
X2266Y1825D01*
X2266Y1829D01*
X2264Y1829D01*
X2264Y1833D01*
X2262Y1833D01*
X2262Y1835D01*
X2260Y1835D01*
X2260Y1839D01*
X2258Y1839D01*
X2258Y1843D01*
X2256Y1843D01*
X2256Y1845D01*
X2254Y1845D01*
X2254Y1849D01*
X2252Y1849D01*
X2252Y1853D01*
X2250Y1853D01*
X2250Y1855D01*
X2248Y1855D01*
X2248Y1859D01*
X2246Y1859D01*
X2246Y1863D01*
X2244Y1863D01*
X2244Y1867D01*
X2242Y1867D01*
X2242Y1869D01*
X2240Y1869D01*
X2240Y1873D01*
X2238Y1873D01*
X2238Y1877D01*
X2236Y1877D01*
X2236Y1879D01*
X2234Y1879D01*
X2234Y1883D01*
X2232Y1883D01*
X2232Y1887D01*
X2230Y1887D01*
X2230Y1889D01*
X2228Y1889D01*
X2228Y1893D01*
X2226Y1893D01*
X2226Y1897D01*
X2224Y1897D01*
X2224Y1899D01*
X2222Y1899D01*
X2222Y1903D01*
X2220Y1903D01*
X2220Y1907D01*
X2218Y1907D01*
X2218Y1909D01*
X2216Y1909D01*
X2216Y1913D01*
X2214Y1913D01*
X2214Y1917D01*
X2212Y1917D01*
X2212Y1919D01*
X2210Y1919D01*
X2210Y1923D01*
X2208Y1923D01*
X2208Y1927D01*
X2206Y1927D01*
X2206Y1929D01*
X2014Y1929D01*
G37*
D02*
G36*
X2336Y1929D02*
X2336Y1911D01*
X2338Y1911D01*
X2338Y1909D01*
X2340Y1909D01*
X2340Y1905D01*
X2342Y1905D01*
X2342Y1901D01*
X2344Y1901D01*
X2344Y1897D01*
X2346Y1897D01*
X2346Y1895D01*
X2348Y1895D01*
X2348Y1891D01*
X2350Y1891D01*
X2350Y1887D01*
X2352Y1887D01*
X2352Y1885D01*
X2354Y1885D01*
X2354Y1881D01*
X2356Y1881D01*
X2356Y1877D01*
X2358Y1877D01*
X2358Y1875D01*
X2360Y1875D01*
X2360Y1871D01*
X2362Y1871D01*
X2362Y1867D01*
X2364Y1867D01*
X2364Y1865D01*
X2366Y1865D01*
X2366Y1861D01*
X2368Y1861D01*
X2368Y1857D01*
X2370Y1857D01*
X2370Y1855D01*
X2372Y1855D01*
X2372Y1851D01*
X2374Y1851D01*
X2374Y1847D01*
X2376Y1847D01*
X2376Y1843D01*
X2378Y1843D01*
X2378Y1841D01*
X2380Y1841D01*
X2380Y1837D01*
X2382Y1837D01*
X2382Y1833D01*
X2384Y1833D01*
X2384Y1831D01*
X2386Y1831D01*
X2386Y1827D01*
X2388Y1827D01*
X2388Y1823D01*
X2390Y1823D01*
X2390Y1821D01*
X2392Y1821D01*
X2392Y1817D01*
X2394Y1817D01*
X2394Y1813D01*
X2396Y1813D01*
X2396Y1811D01*
X2398Y1811D01*
X2398Y1807D01*
X2400Y1807D01*
X2400Y1803D01*
X2402Y1803D01*
X2402Y1801D01*
X2404Y1801D01*
X2404Y1797D01*
X2406Y1797D01*
X2406Y1793D01*
X2408Y1793D01*
X2408Y1789D01*
X2410Y1789D01*
X2410Y1787D01*
X2412Y1787D01*
X2412Y1783D01*
X2414Y1783D01*
X2414Y1779D01*
X2416Y1779D01*
X2416Y1777D01*
X2418Y1777D01*
X2418Y1773D01*
X2420Y1773D01*
X2420Y1769D01*
X2422Y1769D01*
X2422Y1767D01*
X2424Y1767D01*
X2424Y1763D01*
X2426Y1763D01*
X2426Y1759D01*
X2428Y1759D01*
X2428Y1757D01*
X2430Y1757D01*
X2430Y1753D01*
X2432Y1753D01*
X2432Y1749D01*
X2434Y1749D01*
X2434Y1747D01*
X2436Y1747D01*
X2436Y1743D01*
X2438Y1743D01*
X2438Y1739D01*
X2440Y1739D01*
X2440Y1737D01*
X2442Y1737D01*
X2442Y1733D01*
X2444Y1733D01*
X2444Y1729D01*
X2446Y1729D01*
X2446Y1725D01*
X2448Y1725D01*
X2448Y1723D01*
X2450Y1723D01*
X2450Y1719D01*
X2452Y1719D01*
X2452Y1715D01*
X2456Y1715D01*
X2456Y1713D01*
X2462Y1713D01*
X2462Y1711D01*
X2468Y1711D01*
X2468Y1709D01*
X2472Y1709D01*
X2472Y1707D01*
X2476Y1707D01*
X2476Y1705D01*
X2478Y1705D01*
X2478Y1703D01*
X2482Y1703D01*
X2482Y1701D01*
X2484Y1701D01*
X2484Y1699D01*
X2488Y1699D01*
X2488Y1697D01*
X2490Y1697D01*
X2490Y1695D01*
X2492Y1695D01*
X2492Y1693D01*
X2494Y1693D01*
X2494Y1691D01*
X2496Y1691D01*
X2496Y1689D01*
X2498Y1689D01*
X2498Y1685D01*
X2500Y1685D01*
X2500Y1683D01*
X2502Y1683D01*
X2502Y1679D01*
X2504Y1679D01*
X2504Y1677D01*
X2506Y1677D01*
X2506Y1673D01*
X2508Y1673D01*
X2508Y1669D01*
X2510Y1669D01*
X2510Y1663D01*
X2512Y1663D01*
X2512Y1655D01*
X2514Y1655D01*
X2514Y1623D01*
X2512Y1623D01*
X2512Y1615D01*
X2510Y1615D01*
X2510Y1609D01*
X2508Y1609D01*
X2508Y1605D01*
X2506Y1605D01*
X2506Y1601D01*
X2504Y1601D01*
X2504Y1599D01*
X2502Y1599D01*
X2502Y1595D01*
X2500Y1595D01*
X2500Y1593D01*
X2498Y1593D01*
X2498Y1591D01*
X2496Y1591D01*
X2496Y1587D01*
X2494Y1587D01*
X2494Y1585D01*
X2492Y1585D01*
X2492Y1583D01*
X2490Y1583D01*
X2490Y1581D01*
X2486Y1581D01*
X2486Y1579D01*
X2484Y1579D01*
X2484Y1577D01*
X2482Y1577D01*
X2482Y1575D01*
X2478Y1575D01*
X2478Y1573D01*
X2474Y1573D01*
X2474Y1571D01*
X2472Y1571D01*
X2472Y1569D01*
X2466Y1569D01*
X2466Y1567D01*
X2462Y1567D01*
X2462Y1565D01*
X2454Y1565D01*
X2454Y1563D01*
X2686Y1563D01*
X2686Y1929D01*
X2336Y1929D01*
G37*
D02*
G36*
X40Y1819D02*
X40Y319D01*
X304Y319D01*
X304Y321D01*
X294Y321D01*
X294Y323D01*
X288Y323D01*
X288Y325D01*
X284Y325D01*
X284Y327D01*
X280Y327D01*
X280Y329D01*
X276Y329D01*
X276Y331D01*
X274Y331D01*
X274Y333D01*
X270Y333D01*
X270Y335D01*
X268Y335D01*
X268Y337D01*
X266Y337D01*
X266Y339D01*
X264Y339D01*
X264Y341D01*
X262Y341D01*
X262Y343D01*
X260Y343D01*
X260Y345D01*
X258Y345D01*
X258Y347D01*
X256Y347D01*
X256Y349D01*
X254Y349D01*
X254Y353D01*
X252Y353D01*
X252Y355D01*
X250Y355D01*
X250Y359D01*
X248Y359D01*
X248Y361D01*
X246Y361D01*
X246Y367D01*
X244Y367D01*
X244Y371D01*
X242Y371D01*
X242Y379D01*
X240Y379D01*
X240Y395D01*
X238Y395D01*
X238Y397D01*
X240Y397D01*
X240Y413D01*
X242Y413D01*
X242Y421D01*
X244Y421D01*
X244Y425D01*
X246Y425D01*
X246Y429D01*
X248Y429D01*
X248Y455D01*
X246Y455D01*
X246Y463D01*
X244Y463D01*
X244Y471D01*
X242Y471D01*
X242Y479D01*
X240Y479D01*
X240Y487D01*
X238Y487D01*
X238Y493D01*
X236Y493D01*
X236Y501D01*
X234Y501D01*
X234Y509D01*
X232Y509D01*
X232Y517D01*
X230Y517D01*
X230Y525D01*
X228Y525D01*
X228Y533D01*
X226Y533D01*
X226Y541D01*
X224Y541D01*
X224Y549D01*
X222Y549D01*
X222Y557D01*
X220Y557D01*
X220Y563D01*
X218Y563D01*
X218Y571D01*
X216Y571D01*
X216Y579D01*
X214Y579D01*
X214Y587D01*
X212Y587D01*
X212Y595D01*
X210Y595D01*
X210Y603D01*
X208Y603D01*
X208Y611D01*
X206Y611D01*
X206Y619D01*
X204Y619D01*
X204Y627D01*
X202Y627D01*
X202Y633D01*
X200Y633D01*
X200Y641D01*
X198Y641D01*
X198Y649D01*
X196Y649D01*
X196Y657D01*
X194Y657D01*
X194Y665D01*
X192Y665D01*
X192Y673D01*
X190Y673D01*
X190Y681D01*
X188Y681D01*
X188Y689D01*
X186Y689D01*
X186Y697D01*
X184Y697D01*
X184Y703D01*
X182Y703D01*
X182Y711D01*
X180Y711D01*
X180Y719D01*
X178Y719D01*
X178Y875D01*
X180Y875D01*
X180Y1147D01*
X182Y1147D01*
X182Y1417D01*
X184Y1417D01*
X184Y1619D01*
X186Y1619D01*
X186Y1627D01*
X188Y1627D01*
X188Y1633D01*
X190Y1633D01*
X190Y1637D01*
X192Y1637D01*
X192Y1639D01*
X194Y1639D01*
X194Y1643D01*
X196Y1643D01*
X196Y1645D01*
X198Y1645D01*
X198Y1647D01*
X200Y1647D01*
X200Y1649D01*
X202Y1649D01*
X202Y1651D01*
X204Y1651D01*
X204Y1653D01*
X206Y1653D01*
X206Y1655D01*
X210Y1655D01*
X210Y1657D01*
X212Y1657D01*
X212Y1659D01*
X216Y1659D01*
X216Y1661D01*
X220Y1661D01*
X220Y1663D01*
X222Y1663D01*
X222Y1665D01*
X226Y1665D01*
X226Y1667D01*
X228Y1667D01*
X228Y1669D01*
X232Y1669D01*
X232Y1671D01*
X234Y1671D01*
X234Y1673D01*
X238Y1673D01*
X238Y1675D01*
X240Y1675D01*
X240Y1677D01*
X244Y1677D01*
X244Y1679D01*
X248Y1679D01*
X248Y1681D01*
X250Y1681D01*
X250Y1683D01*
X254Y1683D01*
X254Y1685D01*
X256Y1685D01*
X256Y1687D01*
X260Y1687D01*
X260Y1689D01*
X262Y1689D01*
X262Y1691D01*
X266Y1691D01*
X266Y1693D01*
X268Y1693D01*
X268Y1695D01*
X270Y1695D01*
X270Y1717D01*
X272Y1717D01*
X272Y1729D01*
X274Y1729D01*
X274Y1737D01*
X276Y1737D01*
X276Y1743D01*
X278Y1743D01*
X278Y1749D01*
X280Y1749D01*
X280Y1753D01*
X282Y1753D01*
X282Y1757D01*
X284Y1757D01*
X284Y1761D01*
X286Y1761D01*
X286Y1765D01*
X288Y1765D01*
X288Y1769D01*
X290Y1769D01*
X290Y1771D01*
X292Y1771D01*
X292Y1773D01*
X294Y1773D01*
X294Y1777D01*
X296Y1777D01*
X296Y1779D01*
X298Y1779D01*
X298Y1781D01*
X300Y1781D01*
X300Y1783D01*
X302Y1783D01*
X302Y1785D01*
X304Y1785D01*
X304Y1787D01*
X306Y1787D01*
X306Y1789D01*
X308Y1789D01*
X308Y1791D01*
X310Y1791D01*
X310Y1793D01*
X312Y1793D01*
X312Y1795D01*
X316Y1795D01*
X316Y1797D01*
X318Y1797D01*
X318Y1799D01*
X320Y1799D01*
X320Y1801D01*
X324Y1801D01*
X324Y1803D01*
X328Y1803D01*
X328Y1805D01*
X332Y1805D01*
X332Y1807D01*
X336Y1807D01*
X336Y1809D01*
X340Y1809D01*
X340Y1811D01*
X344Y1811D01*
X344Y1813D01*
X350Y1813D01*
X350Y1815D01*
X358Y1815D01*
X358Y1817D01*
X370Y1817D01*
X370Y1819D01*
X40Y1819D01*
G37*
D02*
G36*
X690Y1703D02*
X690Y1701D01*
X688Y1701D01*
X688Y1699D01*
X684Y1699D01*
X684Y1697D01*
X682Y1697D01*
X682Y1695D01*
X678Y1695D01*
X678Y1693D01*
X672Y1693D01*
X672Y1691D01*
X664Y1691D01*
X664Y1689D01*
X736Y1689D01*
X736Y1691D01*
X728Y1691D01*
X728Y1693D01*
X724Y1693D01*
X724Y1695D01*
X720Y1695D01*
X720Y1697D01*
X716Y1697D01*
X716Y1699D01*
X712Y1699D01*
X712Y1701D01*
X710Y1701D01*
X710Y1703D01*
X690Y1703D01*
G37*
D02*
G36*
X794Y1703D02*
X794Y1701D01*
X792Y1701D01*
X792Y1699D01*
X788Y1699D01*
X788Y1697D01*
X786Y1697D01*
X786Y1695D01*
X782Y1695D01*
X782Y1693D01*
X776Y1693D01*
X776Y1691D01*
X768Y1691D01*
X768Y1689D01*
X840Y1689D01*
X840Y1691D01*
X832Y1691D01*
X832Y1693D01*
X828Y1693D01*
X828Y1695D01*
X824Y1695D01*
X824Y1697D01*
X820Y1697D01*
X820Y1699D01*
X816Y1699D01*
X816Y1701D01*
X814Y1701D01*
X814Y1703D01*
X794Y1703D01*
G37*
D02*
G36*
X592Y1697D02*
X592Y1695D01*
X582Y1695D01*
X582Y1693D01*
X572Y1693D01*
X572Y1691D01*
X564Y1691D01*
X564Y1689D01*
X632Y1689D01*
X632Y1691D01*
X624Y1691D01*
X624Y1693D01*
X620Y1693D01*
X620Y1695D01*
X616Y1695D01*
X616Y1697D01*
X592Y1697D01*
G37*
D02*
G36*
X554Y1689D02*
X554Y1687D01*
X1576Y1687D01*
X1576Y1689D01*
X554Y1689D01*
G37*
D02*
G36*
X554Y1689D02*
X554Y1687D01*
X1576Y1687D01*
X1576Y1689D01*
X554Y1689D01*
G37*
D02*
G36*
X554Y1689D02*
X554Y1687D01*
X1576Y1687D01*
X1576Y1689D01*
X554Y1689D01*
G37*
D02*
G36*
X554Y1689D02*
X554Y1687D01*
X1576Y1687D01*
X1576Y1689D01*
X554Y1689D01*
G37*
D02*
G36*
X544Y1687D02*
X544Y1685D01*
X534Y1685D01*
X534Y1683D01*
X524Y1683D01*
X524Y1681D01*
X514Y1681D01*
X514Y1679D01*
X504Y1679D01*
X504Y1677D01*
X496Y1677D01*
X496Y1675D01*
X492Y1675D01*
X492Y1673D01*
X490Y1673D01*
X490Y1667D01*
X488Y1667D01*
X488Y1661D01*
X486Y1661D01*
X486Y1657D01*
X484Y1657D01*
X484Y1653D01*
X482Y1653D01*
X482Y1649D01*
X480Y1649D01*
X480Y1647D01*
X478Y1647D01*
X478Y1643D01*
X476Y1643D01*
X476Y1641D01*
X474Y1641D01*
X474Y1621D01*
X498Y1621D01*
X498Y1591D01*
X1060Y1591D01*
X1060Y1589D01*
X1070Y1589D01*
X1070Y1587D01*
X1078Y1587D01*
X1078Y1585D01*
X1082Y1585D01*
X1082Y1583D01*
X1086Y1583D01*
X1086Y1581D01*
X1090Y1581D01*
X1090Y1579D01*
X1094Y1579D01*
X1094Y1577D01*
X1096Y1577D01*
X1096Y1575D01*
X1098Y1575D01*
X1098Y1573D01*
X1102Y1573D01*
X1102Y1571D01*
X1104Y1571D01*
X1104Y1569D01*
X1106Y1569D01*
X1106Y1567D01*
X1108Y1567D01*
X1108Y1565D01*
X1110Y1565D01*
X1110Y1563D01*
X1112Y1563D01*
X1112Y1559D01*
X1114Y1559D01*
X1114Y1557D01*
X1116Y1557D01*
X1116Y1553D01*
X1118Y1553D01*
X1118Y1551D01*
X1120Y1551D01*
X1120Y1547D01*
X1122Y1547D01*
X1122Y1541D01*
X1124Y1541D01*
X1124Y1537D01*
X1126Y1537D01*
X1126Y1529D01*
X1128Y1529D01*
X1128Y1497D01*
X1126Y1497D01*
X1126Y1491D01*
X1124Y1491D01*
X1124Y1485D01*
X1122Y1485D01*
X1122Y1479D01*
X1120Y1479D01*
X1120Y1475D01*
X1118Y1475D01*
X1118Y1473D01*
X1116Y1473D01*
X1116Y1469D01*
X1114Y1469D01*
X1114Y1467D01*
X1112Y1467D01*
X1112Y1465D01*
X1110Y1465D01*
X1110Y1461D01*
X1108Y1461D01*
X1108Y1459D01*
X1106Y1459D01*
X1106Y1457D01*
X1104Y1457D01*
X1104Y1455D01*
X1102Y1455D01*
X1102Y1453D01*
X1098Y1453D01*
X1098Y1451D01*
X1096Y1451D01*
X1096Y1449D01*
X1092Y1449D01*
X1092Y1447D01*
X1090Y1447D01*
X1090Y1445D01*
X1086Y1445D01*
X1086Y1443D01*
X1082Y1443D01*
X1082Y1441D01*
X1076Y1441D01*
X1076Y1439D01*
X1070Y1439D01*
X1070Y1437D01*
X1056Y1437D01*
X1056Y1435D01*
X1446Y1435D01*
X1446Y1437D01*
X1432Y1437D01*
X1432Y1439D01*
X1426Y1439D01*
X1426Y1441D01*
X1420Y1441D01*
X1420Y1443D01*
X1416Y1443D01*
X1416Y1445D01*
X1412Y1445D01*
X1412Y1447D01*
X1410Y1447D01*
X1410Y1449D01*
X1406Y1449D01*
X1406Y1451D01*
X1404Y1451D01*
X1404Y1453D01*
X1402Y1453D01*
X1402Y1455D01*
X1398Y1455D01*
X1398Y1457D01*
X1396Y1457D01*
X1396Y1459D01*
X1394Y1459D01*
X1394Y1463D01*
X1392Y1463D01*
X1392Y1465D01*
X1390Y1465D01*
X1390Y1467D01*
X1388Y1467D01*
X1388Y1469D01*
X1386Y1469D01*
X1386Y1473D01*
X1384Y1473D01*
X1384Y1477D01*
X1382Y1477D01*
X1382Y1481D01*
X1380Y1481D01*
X1380Y1485D01*
X1378Y1485D01*
X1378Y1491D01*
X1376Y1491D01*
X1376Y1499D01*
X1374Y1499D01*
X1374Y1527D01*
X1376Y1527D01*
X1376Y1535D01*
X1378Y1535D01*
X1378Y1541D01*
X1380Y1541D01*
X1380Y1547D01*
X1382Y1547D01*
X1382Y1551D01*
X1384Y1551D01*
X1384Y1553D01*
X1386Y1553D01*
X1386Y1557D01*
X1388Y1557D01*
X1388Y1559D01*
X1390Y1559D01*
X1390Y1561D01*
X1392Y1561D01*
X1392Y1565D01*
X1394Y1565D01*
X1394Y1567D01*
X1396Y1567D01*
X1396Y1569D01*
X1398Y1569D01*
X1398Y1571D01*
X1400Y1571D01*
X1400Y1573D01*
X1404Y1573D01*
X1404Y1575D01*
X1406Y1575D01*
X1406Y1577D01*
X1408Y1577D01*
X1408Y1579D01*
X1412Y1579D01*
X1412Y1581D01*
X1416Y1581D01*
X1416Y1583D01*
X1420Y1583D01*
X1420Y1585D01*
X1424Y1585D01*
X1424Y1587D01*
X1432Y1587D01*
X1432Y1589D01*
X1442Y1589D01*
X1442Y1591D01*
X1464Y1591D01*
X1464Y1593D01*
X1466Y1593D01*
X1466Y1595D01*
X1468Y1595D01*
X1468Y1597D01*
X1470Y1597D01*
X1470Y1599D01*
X1472Y1599D01*
X1472Y1601D01*
X1474Y1601D01*
X1474Y1603D01*
X1478Y1603D01*
X1478Y1605D01*
X1480Y1605D01*
X1480Y1607D01*
X1482Y1607D01*
X1482Y1609D01*
X1484Y1609D01*
X1484Y1611D01*
X1486Y1611D01*
X1486Y1613D01*
X1488Y1613D01*
X1488Y1615D01*
X1492Y1615D01*
X1492Y1617D01*
X1494Y1617D01*
X1494Y1619D01*
X1496Y1619D01*
X1496Y1621D01*
X1498Y1621D01*
X1498Y1623D01*
X1500Y1623D01*
X1500Y1625D01*
X1502Y1625D01*
X1502Y1627D01*
X1506Y1627D01*
X1506Y1629D01*
X1508Y1629D01*
X1508Y1631D01*
X1510Y1631D01*
X1510Y1633D01*
X1512Y1633D01*
X1512Y1635D01*
X1514Y1635D01*
X1514Y1637D01*
X1516Y1637D01*
X1516Y1639D01*
X1520Y1639D01*
X1520Y1641D01*
X1522Y1641D01*
X1522Y1643D01*
X1524Y1643D01*
X1524Y1645D01*
X1526Y1645D01*
X1526Y1647D01*
X1528Y1647D01*
X1528Y1649D01*
X1530Y1649D01*
X1530Y1651D01*
X1534Y1651D01*
X1534Y1653D01*
X1536Y1653D01*
X1536Y1655D01*
X1538Y1655D01*
X1538Y1657D01*
X1540Y1657D01*
X1540Y1659D01*
X1542Y1659D01*
X1542Y1661D01*
X1544Y1661D01*
X1544Y1663D01*
X1548Y1663D01*
X1548Y1665D01*
X1550Y1665D01*
X1550Y1667D01*
X1552Y1667D01*
X1552Y1669D01*
X1554Y1669D01*
X1554Y1671D01*
X1556Y1671D01*
X1556Y1673D01*
X1558Y1673D01*
X1558Y1675D01*
X1562Y1675D01*
X1562Y1677D01*
X1564Y1677D01*
X1564Y1679D01*
X1566Y1679D01*
X1566Y1681D01*
X1568Y1681D01*
X1568Y1683D01*
X1570Y1683D01*
X1570Y1685D01*
X1572Y1685D01*
X1572Y1687D01*
X544Y1687D01*
G37*
D02*
G36*
X498Y1591D02*
X498Y1563D01*
X562Y1563D01*
X562Y1565D01*
X752Y1565D01*
X752Y1567D01*
X942Y1567D01*
X942Y1569D01*
X998Y1569D01*
X998Y1571D01*
X1000Y1571D01*
X1000Y1573D01*
X1004Y1573D01*
X1004Y1575D01*
X1006Y1575D01*
X1006Y1577D01*
X1008Y1577D01*
X1008Y1579D01*
X1012Y1579D01*
X1012Y1581D01*
X1016Y1581D01*
X1016Y1583D01*
X1020Y1583D01*
X1020Y1585D01*
X1024Y1585D01*
X1024Y1587D01*
X1032Y1587D01*
X1032Y1589D01*
X1042Y1589D01*
X1042Y1591D01*
X498Y1591D01*
G37*
D02*
G36*
X1588Y1563D02*
X1588Y1561D01*
X2686Y1561D01*
X2686Y1563D01*
X1588Y1563D01*
G37*
D02*
G36*
X1588Y1563D02*
X1588Y1561D01*
X2686Y1561D01*
X2686Y1563D01*
X1588Y1563D01*
G37*
D02*
G36*
X1586Y1561D02*
X1586Y1559D01*
X1584Y1559D01*
X1584Y1557D01*
X1580Y1557D01*
X1580Y1555D01*
X1578Y1555D01*
X1578Y1553D01*
X1576Y1553D01*
X1576Y1551D01*
X1574Y1551D01*
X1574Y1549D01*
X1572Y1549D01*
X1572Y1547D01*
X1570Y1547D01*
X1570Y1545D01*
X1566Y1545D01*
X1566Y1543D01*
X1564Y1543D01*
X1564Y1541D01*
X1562Y1541D01*
X1562Y1539D01*
X1560Y1539D01*
X1560Y1537D01*
X1558Y1537D01*
X1558Y1535D01*
X1556Y1535D01*
X1556Y1533D01*
X1552Y1533D01*
X1552Y1531D01*
X1550Y1531D01*
X1550Y1529D01*
X1548Y1529D01*
X1548Y1527D01*
X1546Y1527D01*
X1546Y1525D01*
X1544Y1525D01*
X1544Y1523D01*
X1542Y1523D01*
X1542Y1521D01*
X1538Y1521D01*
X1538Y1519D01*
X1536Y1519D01*
X1536Y1517D01*
X2440Y1517D01*
X2440Y1515D01*
X2456Y1515D01*
X2456Y1513D01*
X2462Y1513D01*
X2462Y1511D01*
X2468Y1511D01*
X2468Y1509D01*
X2472Y1509D01*
X2472Y1507D01*
X2476Y1507D01*
X2476Y1505D01*
X2478Y1505D01*
X2478Y1503D01*
X2482Y1503D01*
X2482Y1501D01*
X2484Y1501D01*
X2484Y1499D01*
X2488Y1499D01*
X2488Y1497D01*
X2490Y1497D01*
X2490Y1495D01*
X2492Y1495D01*
X2492Y1493D01*
X2494Y1493D01*
X2494Y1491D01*
X2496Y1491D01*
X2496Y1489D01*
X2498Y1489D01*
X2498Y1485D01*
X2500Y1485D01*
X2500Y1483D01*
X2502Y1483D01*
X2502Y1479D01*
X2504Y1479D01*
X2504Y1477D01*
X2506Y1477D01*
X2506Y1473D01*
X2508Y1473D01*
X2508Y1469D01*
X2510Y1469D01*
X2510Y1463D01*
X2512Y1463D01*
X2512Y1461D01*
X2516Y1461D01*
X2516Y1459D01*
X2520Y1459D01*
X2520Y1457D01*
X2524Y1457D01*
X2524Y1455D01*
X2528Y1455D01*
X2528Y1453D01*
X2532Y1453D01*
X2532Y1451D01*
X2536Y1451D01*
X2536Y1449D01*
X2542Y1449D01*
X2542Y1447D01*
X2546Y1447D01*
X2546Y1445D01*
X2550Y1445D01*
X2550Y1443D01*
X2554Y1443D01*
X2554Y1441D01*
X2558Y1441D01*
X2558Y1439D01*
X2562Y1439D01*
X2562Y1437D01*
X2566Y1437D01*
X2566Y1435D01*
X2570Y1435D01*
X2570Y1433D01*
X2576Y1433D01*
X2576Y1431D01*
X2580Y1431D01*
X2580Y1429D01*
X2584Y1429D01*
X2584Y1427D01*
X2588Y1427D01*
X2588Y1425D01*
X2592Y1425D01*
X2592Y1423D01*
X2596Y1423D01*
X2596Y1421D01*
X2600Y1421D01*
X2600Y1419D01*
X2604Y1419D01*
X2604Y1417D01*
X2608Y1417D01*
X2608Y1415D01*
X2614Y1415D01*
X2614Y1413D01*
X2618Y1413D01*
X2618Y1411D01*
X2622Y1411D01*
X2622Y1409D01*
X2624Y1409D01*
X2624Y1407D01*
X2628Y1407D01*
X2628Y1405D01*
X2630Y1405D01*
X2630Y1403D01*
X2632Y1403D01*
X2632Y1401D01*
X2634Y1401D01*
X2634Y1399D01*
X2636Y1399D01*
X2636Y1397D01*
X2638Y1397D01*
X2638Y1395D01*
X2640Y1395D01*
X2640Y1391D01*
X2642Y1391D01*
X2642Y1387D01*
X2644Y1387D01*
X2644Y1383D01*
X2646Y1383D01*
X2646Y1377D01*
X2648Y1377D01*
X2648Y1363D01*
X2650Y1363D01*
X2650Y1327D01*
X2652Y1327D01*
X2652Y1289D01*
X2654Y1289D01*
X2654Y1269D01*
X2658Y1269D01*
X2658Y1267D01*
X2660Y1267D01*
X2660Y1265D01*
X2664Y1265D01*
X2664Y1263D01*
X2666Y1263D01*
X2666Y1261D01*
X2686Y1261D01*
X2686Y1561D01*
X1586Y1561D01*
G37*
D02*
G36*
X1534Y1517D02*
X1534Y1515D01*
X1532Y1515D01*
X1532Y1513D01*
X1530Y1513D01*
X1530Y1511D01*
X1528Y1511D01*
X1528Y1497D01*
X1526Y1497D01*
X1526Y1491D01*
X1524Y1491D01*
X1524Y1485D01*
X1522Y1485D01*
X1522Y1479D01*
X1520Y1479D01*
X1520Y1475D01*
X1518Y1475D01*
X1518Y1473D01*
X1516Y1473D01*
X1516Y1469D01*
X1514Y1469D01*
X1514Y1467D01*
X1512Y1467D01*
X1512Y1465D01*
X1510Y1465D01*
X1510Y1461D01*
X1508Y1461D01*
X1508Y1459D01*
X1506Y1459D01*
X1506Y1457D01*
X1504Y1457D01*
X1504Y1455D01*
X1502Y1455D01*
X1502Y1453D01*
X1498Y1453D01*
X1498Y1451D01*
X1496Y1451D01*
X1496Y1449D01*
X1492Y1449D01*
X1492Y1447D01*
X1490Y1447D01*
X1490Y1445D01*
X1486Y1445D01*
X1486Y1443D01*
X1482Y1443D01*
X1482Y1441D01*
X1476Y1441D01*
X1476Y1439D01*
X1470Y1439D01*
X1470Y1437D01*
X1456Y1437D01*
X1456Y1435D01*
X2362Y1435D01*
X2362Y1455D01*
X2364Y1455D01*
X2364Y1463D01*
X2366Y1463D01*
X2366Y1469D01*
X2368Y1469D01*
X2368Y1473D01*
X2370Y1473D01*
X2370Y1477D01*
X2372Y1477D01*
X2372Y1479D01*
X2374Y1479D01*
X2374Y1483D01*
X2376Y1483D01*
X2376Y1485D01*
X2378Y1485D01*
X2378Y1489D01*
X2380Y1489D01*
X2380Y1491D01*
X2382Y1491D01*
X2382Y1493D01*
X2384Y1493D01*
X2384Y1495D01*
X2386Y1495D01*
X2386Y1497D01*
X2388Y1497D01*
X2388Y1499D01*
X2392Y1499D01*
X2392Y1501D01*
X2394Y1501D01*
X2394Y1503D01*
X2398Y1503D01*
X2398Y1505D01*
X2400Y1505D01*
X2400Y1507D01*
X2404Y1507D01*
X2404Y1509D01*
X2408Y1509D01*
X2408Y1511D01*
X2414Y1511D01*
X2414Y1513D01*
X2420Y1513D01*
X2420Y1515D01*
X2436Y1515D01*
X2436Y1517D01*
X1534Y1517D01*
G37*
D02*
G36*
X944Y1457D02*
X944Y1455D01*
X754Y1455D01*
X754Y1453D01*
X564Y1453D01*
X564Y1451D01*
X500Y1451D01*
X500Y1435D01*
X1046Y1435D01*
X1046Y1437D01*
X1032Y1437D01*
X1032Y1439D01*
X1026Y1439D01*
X1026Y1441D01*
X1020Y1441D01*
X1020Y1443D01*
X1016Y1443D01*
X1016Y1445D01*
X1012Y1445D01*
X1012Y1447D01*
X1010Y1447D01*
X1010Y1449D01*
X1006Y1449D01*
X1006Y1451D01*
X1004Y1451D01*
X1004Y1453D01*
X1002Y1453D01*
X1002Y1455D01*
X998Y1455D01*
X998Y1457D01*
X944Y1457D01*
G37*
D02*
G36*
X500Y1435D02*
X500Y1433D01*
X2362Y1433D01*
X2362Y1435D01*
X500Y1435D01*
G37*
D02*
G36*
X500Y1435D02*
X500Y1433D01*
X2362Y1433D01*
X2362Y1435D01*
X500Y1435D01*
G37*
D02*
G36*
X500Y1435D02*
X500Y1433D01*
X2362Y1433D01*
X2362Y1435D01*
X500Y1435D01*
G37*
D02*
G36*
X500Y1433D02*
X500Y1429D01*
X502Y1429D01*
X502Y1395D01*
X428Y1395D01*
X428Y1393D01*
X312Y1393D01*
X312Y1391D01*
X286Y1391D01*
X286Y1145D01*
X284Y1145D01*
X284Y873D01*
X282Y873D01*
X282Y835D01*
X848Y835D01*
X848Y833D01*
X862Y833D01*
X862Y831D01*
X874Y831D01*
X874Y829D01*
X886Y829D01*
X886Y827D01*
X898Y827D01*
X898Y825D01*
X910Y825D01*
X910Y823D01*
X920Y823D01*
X920Y821D01*
X932Y821D01*
X932Y819D01*
X944Y819D01*
X944Y817D01*
X2562Y817D01*
X2562Y819D01*
X2550Y819D01*
X2550Y821D01*
X2544Y821D01*
X2544Y823D01*
X2538Y823D01*
X2538Y825D01*
X2532Y825D01*
X2532Y827D01*
X2526Y827D01*
X2526Y829D01*
X2520Y829D01*
X2520Y831D01*
X2514Y831D01*
X2514Y833D01*
X2508Y833D01*
X2508Y835D01*
X2502Y835D01*
X2502Y837D01*
X2496Y837D01*
X2496Y839D01*
X2490Y839D01*
X2490Y841D01*
X2484Y841D01*
X2484Y843D01*
X2478Y843D01*
X2478Y845D01*
X2472Y845D01*
X2472Y847D01*
X2466Y847D01*
X2466Y849D01*
X2460Y849D01*
X2460Y851D01*
X2454Y851D01*
X2454Y853D01*
X2448Y853D01*
X2448Y855D01*
X2442Y855D01*
X2442Y857D01*
X2436Y857D01*
X2436Y859D01*
X2430Y859D01*
X2430Y861D01*
X2424Y861D01*
X2424Y863D01*
X2418Y863D01*
X2418Y865D01*
X2412Y865D01*
X2412Y867D01*
X2406Y867D01*
X2406Y869D01*
X2400Y869D01*
X2400Y871D01*
X2394Y871D01*
X2394Y873D01*
X2388Y873D01*
X2388Y875D01*
X2382Y875D01*
X2382Y877D01*
X2376Y877D01*
X2376Y879D01*
X2370Y879D01*
X2370Y881D01*
X2364Y881D01*
X2364Y883D01*
X2358Y883D01*
X2358Y885D01*
X2352Y885D01*
X2352Y887D01*
X2346Y887D01*
X2346Y889D01*
X2340Y889D01*
X2340Y891D01*
X2334Y891D01*
X2334Y893D01*
X2328Y893D01*
X2328Y895D01*
X2322Y895D01*
X2322Y897D01*
X2316Y897D01*
X2316Y899D01*
X2310Y899D01*
X2310Y901D01*
X2306Y901D01*
X2306Y903D01*
X2302Y903D01*
X2302Y905D01*
X2300Y905D01*
X2300Y907D01*
X2298Y907D01*
X2298Y909D01*
X2294Y909D01*
X2294Y913D01*
X2292Y913D01*
X2292Y915D01*
X2290Y915D01*
X2290Y917D01*
X2288Y917D01*
X2288Y919D01*
X2286Y919D01*
X2286Y923D01*
X2284Y923D01*
X2284Y927D01*
X2282Y927D01*
X2282Y931D01*
X2280Y931D01*
X2280Y939D01*
X2278Y939D01*
X2278Y959D01*
X2276Y959D01*
X2276Y979D01*
X2274Y979D01*
X2274Y999D01*
X2272Y999D01*
X2272Y1019D01*
X2270Y1019D01*
X2270Y1041D01*
X2268Y1041D01*
X2268Y1061D01*
X2266Y1061D01*
X2266Y1095D01*
X2268Y1095D01*
X2268Y1101D01*
X2270Y1101D01*
X2270Y1105D01*
X2272Y1105D01*
X2272Y1109D01*
X2274Y1109D01*
X2274Y1113D01*
X2276Y1113D01*
X2276Y1117D01*
X2278Y1117D01*
X2278Y1123D01*
X2280Y1123D01*
X2280Y1127D01*
X2282Y1127D01*
X2282Y1131D01*
X2284Y1131D01*
X2284Y1135D01*
X2286Y1135D01*
X2286Y1139D01*
X2288Y1139D01*
X2288Y1143D01*
X2290Y1143D01*
X2290Y1147D01*
X2292Y1147D01*
X2292Y1153D01*
X2294Y1153D01*
X2294Y1157D01*
X2296Y1157D01*
X2296Y1161D01*
X2298Y1161D01*
X2298Y1165D01*
X2300Y1165D01*
X2300Y1169D01*
X2302Y1169D01*
X2302Y1173D01*
X2304Y1173D01*
X2304Y1177D01*
X2306Y1177D01*
X2306Y1183D01*
X2308Y1183D01*
X2308Y1187D01*
X2310Y1187D01*
X2310Y1191D01*
X2312Y1191D01*
X2312Y1195D01*
X2314Y1195D01*
X2314Y1199D01*
X2316Y1199D01*
X2316Y1203D01*
X2318Y1203D01*
X2318Y1207D01*
X2320Y1207D01*
X2320Y1211D01*
X2322Y1211D01*
X2322Y1217D01*
X2324Y1217D01*
X2324Y1221D01*
X2326Y1221D01*
X2326Y1225D01*
X2328Y1225D01*
X2328Y1229D01*
X2330Y1229D01*
X2330Y1233D01*
X2332Y1233D01*
X2332Y1237D01*
X2334Y1237D01*
X2334Y1241D01*
X2336Y1241D01*
X2336Y1247D01*
X2338Y1247D01*
X2338Y1251D01*
X2340Y1251D01*
X2340Y1255D01*
X2342Y1255D01*
X2342Y1259D01*
X2344Y1259D01*
X2344Y1263D01*
X2346Y1263D01*
X2346Y1267D01*
X2348Y1267D01*
X2348Y1271D01*
X2350Y1271D01*
X2350Y1277D01*
X2352Y1277D01*
X2352Y1281D01*
X2354Y1281D01*
X2354Y1285D01*
X2356Y1285D01*
X2356Y1289D01*
X2358Y1289D01*
X2358Y1293D01*
X2360Y1293D01*
X2360Y1297D01*
X2362Y1297D01*
X2362Y1301D01*
X2364Y1301D01*
X2364Y1323D01*
X2362Y1323D01*
X2362Y1355D01*
X2364Y1355D01*
X2364Y1363D01*
X2366Y1363D01*
X2366Y1369D01*
X2368Y1369D01*
X2368Y1373D01*
X2370Y1373D01*
X2370Y1377D01*
X2372Y1377D01*
X2372Y1379D01*
X2374Y1379D01*
X2374Y1399D01*
X2372Y1399D01*
X2372Y1401D01*
X2370Y1401D01*
X2370Y1405D01*
X2368Y1405D01*
X2368Y1409D01*
X2366Y1409D01*
X2366Y1415D01*
X2364Y1415D01*
X2364Y1423D01*
X2362Y1423D01*
X2362Y1433D01*
X500Y1433D01*
G37*
D02*
G36*
X2666Y951D02*
X2666Y949D01*
X2662Y949D01*
X2662Y947D01*
X2660Y947D01*
X2660Y945D01*
X2656Y945D01*
X2656Y943D01*
X2652Y943D01*
X2652Y941D01*
X2650Y941D01*
X2650Y939D01*
X2648Y939D01*
X2648Y935D01*
X2646Y935D01*
X2646Y929D01*
X2644Y929D01*
X2644Y925D01*
X2642Y925D01*
X2642Y919D01*
X2640Y919D01*
X2640Y915D01*
X2638Y915D01*
X2638Y909D01*
X2636Y909D01*
X2636Y905D01*
X2634Y905D01*
X2634Y901D01*
X2632Y901D01*
X2632Y895D01*
X2630Y895D01*
X2630Y891D01*
X2628Y891D01*
X2628Y885D01*
X2626Y885D01*
X2626Y881D01*
X2624Y881D01*
X2624Y875D01*
X2622Y875D01*
X2622Y871D01*
X2620Y871D01*
X2620Y867D01*
X2618Y867D01*
X2618Y861D01*
X2616Y861D01*
X2616Y857D01*
X2614Y857D01*
X2614Y851D01*
X2612Y851D01*
X2612Y847D01*
X2610Y847D01*
X2610Y843D01*
X2608Y843D01*
X2608Y841D01*
X2606Y841D01*
X2606Y837D01*
X2604Y837D01*
X2604Y835D01*
X2602Y835D01*
X2602Y833D01*
X2600Y833D01*
X2600Y831D01*
X2598Y831D01*
X2598Y829D01*
X2594Y829D01*
X2594Y827D01*
X2592Y827D01*
X2592Y825D01*
X2588Y825D01*
X2588Y823D01*
X2584Y823D01*
X2584Y821D01*
X2578Y821D01*
X2578Y819D01*
X2566Y819D01*
X2566Y817D01*
X2686Y817D01*
X2686Y951D01*
X2666Y951D01*
G37*
D02*
G36*
X282Y835D02*
X282Y733D01*
X284Y733D01*
X284Y725D01*
X286Y725D01*
X286Y717D01*
X288Y717D01*
X288Y709D01*
X290Y709D01*
X290Y701D01*
X292Y701D01*
X292Y693D01*
X294Y693D01*
X294Y685D01*
X296Y685D01*
X296Y679D01*
X298Y679D01*
X298Y671D01*
X300Y671D01*
X300Y663D01*
X302Y663D01*
X302Y655D01*
X304Y655D01*
X304Y647D01*
X306Y647D01*
X306Y639D01*
X308Y639D01*
X308Y631D01*
X310Y631D01*
X310Y623D01*
X312Y623D01*
X312Y615D01*
X314Y615D01*
X314Y609D01*
X316Y609D01*
X316Y601D01*
X318Y601D01*
X318Y593D01*
X320Y593D01*
X320Y585D01*
X322Y585D01*
X322Y577D01*
X324Y577D01*
X324Y569D01*
X326Y569D01*
X326Y561D01*
X328Y561D01*
X328Y553D01*
X330Y553D01*
X330Y547D01*
X332Y547D01*
X332Y539D01*
X334Y539D01*
X334Y531D01*
X336Y531D01*
X336Y523D01*
X338Y523D01*
X338Y515D01*
X340Y515D01*
X340Y507D01*
X342Y507D01*
X342Y499D01*
X344Y499D01*
X344Y491D01*
X346Y491D01*
X346Y483D01*
X348Y483D01*
X348Y477D01*
X350Y477D01*
X350Y473D01*
X426Y473D01*
X426Y471D01*
X436Y471D01*
X436Y469D01*
X442Y469D01*
X442Y467D01*
X448Y467D01*
X448Y465D01*
X452Y465D01*
X452Y463D01*
X454Y463D01*
X454Y461D01*
X476Y461D01*
X476Y463D01*
X478Y463D01*
X478Y473D01*
X480Y473D01*
X480Y481D01*
X482Y481D01*
X482Y491D01*
X484Y491D01*
X484Y501D01*
X486Y501D01*
X486Y509D01*
X488Y509D01*
X488Y519D01*
X490Y519D01*
X490Y529D01*
X492Y529D01*
X492Y539D01*
X494Y539D01*
X494Y547D01*
X496Y547D01*
X496Y557D01*
X498Y557D01*
X498Y567D01*
X500Y567D01*
X500Y575D01*
X502Y575D01*
X502Y585D01*
X504Y585D01*
X504Y595D01*
X506Y595D01*
X506Y603D01*
X508Y603D01*
X508Y613D01*
X510Y613D01*
X510Y623D01*
X512Y623D01*
X512Y631D01*
X514Y631D01*
X514Y641D01*
X516Y641D01*
X516Y651D01*
X518Y651D01*
X518Y661D01*
X520Y661D01*
X520Y669D01*
X522Y669D01*
X522Y679D01*
X524Y679D01*
X524Y689D01*
X526Y689D01*
X526Y697D01*
X528Y697D01*
X528Y707D01*
X530Y707D01*
X530Y717D01*
X532Y717D01*
X532Y725D01*
X534Y725D01*
X534Y733D01*
X536Y733D01*
X536Y739D01*
X538Y739D01*
X538Y743D01*
X540Y743D01*
X540Y745D01*
X542Y745D01*
X542Y749D01*
X544Y749D01*
X544Y751D01*
X546Y751D01*
X546Y753D01*
X548Y753D01*
X548Y755D01*
X550Y755D01*
X550Y757D01*
X552Y757D01*
X552Y759D01*
X556Y759D01*
X556Y761D01*
X558Y761D01*
X558Y763D01*
X562Y763D01*
X562Y765D01*
X566Y765D01*
X566Y767D01*
X574Y767D01*
X574Y769D01*
X582Y769D01*
X582Y771D01*
X590Y771D01*
X590Y773D01*
X598Y773D01*
X598Y775D01*
X606Y775D01*
X606Y777D01*
X614Y777D01*
X614Y779D01*
X622Y779D01*
X622Y781D01*
X630Y781D01*
X630Y783D01*
X638Y783D01*
X638Y785D01*
X646Y785D01*
X646Y787D01*
X654Y787D01*
X654Y789D01*
X662Y789D01*
X662Y791D01*
X670Y791D01*
X670Y793D01*
X678Y793D01*
X678Y795D01*
X686Y795D01*
X686Y797D01*
X694Y797D01*
X694Y799D01*
X702Y799D01*
X702Y801D01*
X710Y801D01*
X710Y803D01*
X718Y803D01*
X718Y805D01*
X726Y805D01*
X726Y807D01*
X734Y807D01*
X734Y809D01*
X742Y809D01*
X742Y811D01*
X750Y811D01*
X750Y813D01*
X758Y813D01*
X758Y815D01*
X766Y815D01*
X766Y817D01*
X774Y817D01*
X774Y819D01*
X782Y819D01*
X782Y821D01*
X790Y821D01*
X790Y823D01*
X798Y823D01*
X798Y825D01*
X806Y825D01*
X806Y827D01*
X814Y827D01*
X814Y829D01*
X822Y829D01*
X822Y831D01*
X830Y831D01*
X830Y833D01*
X840Y833D01*
X840Y835D01*
X282Y835D01*
G37*
D02*
G36*
X956Y817D02*
X956Y815D01*
X2686Y815D01*
X2686Y817D01*
X956Y817D01*
G37*
D02*
G36*
X956Y817D02*
X956Y815D01*
X2686Y815D01*
X2686Y817D01*
X956Y817D01*
G37*
D02*
G36*
X968Y815D02*
X968Y813D01*
X980Y813D01*
X980Y811D01*
X992Y811D01*
X992Y809D01*
X1004Y809D01*
X1004Y807D01*
X1016Y807D01*
X1016Y805D01*
X1028Y805D01*
X1028Y803D01*
X1040Y803D01*
X1040Y801D01*
X1050Y801D01*
X1050Y799D01*
X1062Y799D01*
X1062Y797D01*
X1074Y797D01*
X1074Y795D01*
X1086Y795D01*
X1086Y793D01*
X1098Y793D01*
X1098Y791D01*
X1110Y791D01*
X1110Y789D01*
X1122Y789D01*
X1122Y787D01*
X1134Y787D01*
X1134Y785D01*
X1146Y785D01*
X1146Y783D01*
X1158Y783D01*
X1158Y781D01*
X1170Y781D01*
X1170Y779D01*
X1180Y779D01*
X1180Y777D01*
X1192Y777D01*
X1192Y775D01*
X1204Y775D01*
X1204Y773D01*
X1216Y773D01*
X1216Y771D01*
X1228Y771D01*
X1228Y769D01*
X1240Y769D01*
X1240Y767D01*
X1252Y767D01*
X1252Y765D01*
X1264Y765D01*
X1264Y763D01*
X1276Y763D01*
X1276Y761D01*
X1288Y761D01*
X1288Y759D01*
X1300Y759D01*
X1300Y757D01*
X1310Y757D01*
X1310Y755D01*
X1322Y755D01*
X1322Y753D01*
X1334Y753D01*
X1334Y751D01*
X1346Y751D01*
X1346Y749D01*
X1358Y749D01*
X1358Y747D01*
X1370Y747D01*
X1370Y745D01*
X1382Y745D01*
X1382Y743D01*
X1394Y743D01*
X1394Y741D01*
X1406Y741D01*
X1406Y739D01*
X1418Y739D01*
X1418Y737D01*
X1430Y737D01*
X1430Y735D01*
X1440Y735D01*
X1440Y733D01*
X1452Y733D01*
X1452Y731D01*
X1464Y731D01*
X1464Y729D01*
X1476Y729D01*
X1476Y727D01*
X1488Y727D01*
X1488Y725D01*
X1500Y725D01*
X1500Y723D01*
X1512Y723D01*
X1512Y721D01*
X1524Y721D01*
X1524Y719D01*
X1536Y719D01*
X1536Y717D01*
X1548Y717D01*
X1548Y715D01*
X1560Y715D01*
X1560Y713D01*
X1570Y713D01*
X1570Y711D01*
X1582Y711D01*
X1582Y709D01*
X1594Y709D01*
X1594Y707D01*
X1606Y707D01*
X1606Y705D01*
X1618Y705D01*
X1618Y703D01*
X1630Y703D01*
X1630Y701D01*
X1642Y701D01*
X1642Y699D01*
X1654Y699D01*
X1654Y697D01*
X1666Y697D01*
X1666Y695D01*
X1678Y695D01*
X1678Y693D01*
X1690Y693D01*
X1690Y691D01*
X1700Y691D01*
X1700Y689D01*
X1712Y689D01*
X1712Y687D01*
X1724Y687D01*
X1724Y685D01*
X1736Y685D01*
X1736Y683D01*
X1748Y683D01*
X1748Y681D01*
X1760Y681D01*
X1760Y679D01*
X1772Y679D01*
X1772Y677D01*
X1784Y677D01*
X1784Y675D01*
X1796Y675D01*
X1796Y673D01*
X1808Y673D01*
X1808Y671D01*
X1818Y671D01*
X1818Y669D01*
X1830Y669D01*
X1830Y667D01*
X1842Y667D01*
X1842Y665D01*
X1854Y665D01*
X1854Y663D01*
X1866Y663D01*
X1866Y661D01*
X1878Y661D01*
X1878Y659D01*
X1890Y659D01*
X1890Y657D01*
X1902Y657D01*
X1902Y655D01*
X1912Y655D01*
X1912Y653D01*
X1920Y653D01*
X1920Y651D01*
X1924Y651D01*
X1924Y649D01*
X1928Y649D01*
X1928Y647D01*
X1930Y647D01*
X1930Y645D01*
X1934Y645D01*
X1934Y643D01*
X1936Y643D01*
X1936Y641D01*
X1938Y641D01*
X1938Y639D01*
X1940Y639D01*
X1940Y637D01*
X1942Y637D01*
X1942Y635D01*
X1944Y635D01*
X1944Y631D01*
X1946Y631D01*
X1946Y627D01*
X1948Y627D01*
X1948Y623D01*
X1950Y623D01*
X1950Y619D01*
X1952Y619D01*
X1952Y615D01*
X1954Y615D01*
X1954Y611D01*
X1956Y611D01*
X1956Y607D01*
X1958Y607D01*
X1958Y603D01*
X1960Y603D01*
X1960Y599D01*
X1962Y599D01*
X1962Y595D01*
X1964Y595D01*
X1964Y591D01*
X1966Y591D01*
X1966Y587D01*
X1968Y587D01*
X1968Y583D01*
X1970Y583D01*
X1970Y579D01*
X1972Y579D01*
X1972Y575D01*
X1974Y575D01*
X1974Y571D01*
X1976Y571D01*
X1976Y567D01*
X1978Y567D01*
X1978Y563D01*
X1980Y563D01*
X1980Y559D01*
X1982Y559D01*
X1982Y555D01*
X1984Y555D01*
X1984Y551D01*
X1986Y551D01*
X1986Y547D01*
X1988Y547D01*
X1988Y543D01*
X1990Y543D01*
X1990Y539D01*
X1992Y539D01*
X1992Y535D01*
X1994Y535D01*
X1994Y531D01*
X1996Y531D01*
X1996Y527D01*
X1998Y527D01*
X1998Y523D01*
X2000Y523D01*
X2000Y519D01*
X2002Y519D01*
X2002Y515D01*
X2004Y515D01*
X2004Y511D01*
X2006Y511D01*
X2006Y507D01*
X2008Y507D01*
X2008Y503D01*
X2010Y503D01*
X2010Y497D01*
X2012Y497D01*
X2012Y493D01*
X2014Y493D01*
X2014Y489D01*
X2016Y489D01*
X2016Y485D01*
X2018Y485D01*
X2018Y481D01*
X2020Y481D01*
X2020Y477D01*
X2022Y477D01*
X2022Y473D01*
X2024Y473D01*
X2024Y469D01*
X2026Y469D01*
X2026Y465D01*
X2028Y465D01*
X2028Y461D01*
X2030Y461D01*
X2030Y457D01*
X2032Y457D01*
X2032Y453D01*
X2034Y453D01*
X2034Y449D01*
X2036Y449D01*
X2036Y445D01*
X2038Y445D01*
X2038Y441D01*
X2040Y441D01*
X2040Y437D01*
X2042Y437D01*
X2042Y433D01*
X2044Y433D01*
X2044Y429D01*
X2046Y429D01*
X2046Y425D01*
X2048Y425D01*
X2048Y421D01*
X2050Y421D01*
X2050Y417D01*
X2052Y417D01*
X2052Y413D01*
X2054Y413D01*
X2054Y409D01*
X2056Y409D01*
X2056Y405D01*
X2058Y405D01*
X2058Y401D01*
X2060Y401D01*
X2060Y397D01*
X2062Y397D01*
X2062Y393D01*
X2064Y393D01*
X2064Y389D01*
X2066Y389D01*
X2066Y385D01*
X2068Y385D01*
X2068Y381D01*
X2070Y381D01*
X2070Y377D01*
X2072Y377D01*
X2072Y373D01*
X2074Y373D01*
X2074Y369D01*
X2076Y369D01*
X2076Y365D01*
X2078Y365D01*
X2078Y359D01*
X2080Y359D01*
X2080Y355D01*
X2082Y355D01*
X2082Y351D01*
X2084Y351D01*
X2084Y347D01*
X2086Y347D01*
X2086Y343D01*
X2088Y343D01*
X2088Y339D01*
X2090Y339D01*
X2090Y335D01*
X2092Y335D01*
X2092Y331D01*
X2094Y331D01*
X2094Y327D01*
X2096Y327D01*
X2096Y323D01*
X2098Y323D01*
X2098Y319D01*
X2100Y319D01*
X2100Y315D01*
X2102Y315D01*
X2102Y311D01*
X2104Y311D01*
X2104Y307D01*
X2106Y307D01*
X2106Y303D01*
X2108Y303D01*
X2108Y299D01*
X2110Y299D01*
X2110Y295D01*
X2112Y295D01*
X2112Y291D01*
X2114Y291D01*
X2114Y287D01*
X2116Y287D01*
X2116Y283D01*
X2118Y283D01*
X2118Y279D01*
X2120Y279D01*
X2120Y275D01*
X2122Y275D01*
X2122Y271D01*
X2124Y271D01*
X2124Y267D01*
X2126Y267D01*
X2126Y263D01*
X2128Y263D01*
X2128Y259D01*
X2130Y259D01*
X2130Y255D01*
X2132Y255D01*
X2132Y251D01*
X2134Y251D01*
X2134Y247D01*
X2136Y247D01*
X2136Y243D01*
X2138Y243D01*
X2138Y239D01*
X2140Y239D01*
X2140Y235D01*
X2142Y235D01*
X2142Y231D01*
X2144Y231D01*
X2144Y227D01*
X2146Y227D01*
X2146Y221D01*
X2148Y221D01*
X2148Y217D01*
X2150Y217D01*
X2150Y213D01*
X2152Y213D01*
X2152Y209D01*
X2154Y209D01*
X2154Y205D01*
X2156Y205D01*
X2156Y201D01*
X2158Y201D01*
X2158Y197D01*
X2160Y197D01*
X2160Y193D01*
X2162Y193D01*
X2162Y189D01*
X2164Y189D01*
X2164Y185D01*
X2166Y185D01*
X2166Y181D01*
X2168Y181D01*
X2168Y177D01*
X2170Y177D01*
X2170Y175D01*
X2538Y175D01*
X2538Y173D01*
X2544Y173D01*
X2544Y171D01*
X2550Y171D01*
X2550Y169D01*
X2554Y169D01*
X2554Y167D01*
X2558Y167D01*
X2558Y165D01*
X2562Y165D01*
X2562Y163D01*
X2564Y163D01*
X2564Y161D01*
X2566Y161D01*
X2566Y159D01*
X2570Y159D01*
X2570Y157D01*
X2572Y157D01*
X2572Y155D01*
X2574Y155D01*
X2574Y153D01*
X2576Y153D01*
X2576Y151D01*
X2578Y151D01*
X2578Y147D01*
X2580Y147D01*
X2580Y145D01*
X2582Y145D01*
X2582Y143D01*
X2584Y143D01*
X2584Y139D01*
X2586Y139D01*
X2586Y135D01*
X2588Y135D01*
X2588Y131D01*
X2590Y131D01*
X2590Y127D01*
X2592Y127D01*
X2592Y119D01*
X2594Y119D01*
X2594Y87D01*
X2592Y87D01*
X2592Y79D01*
X2590Y79D01*
X2590Y75D01*
X2588Y75D01*
X2588Y71D01*
X2586Y71D01*
X2586Y67D01*
X2584Y67D01*
X2584Y63D01*
X2582Y63D01*
X2582Y61D01*
X2580Y61D01*
X2580Y41D01*
X2686Y41D01*
X2686Y815D01*
X968Y815D01*
G37*
D02*
G36*
X350Y473D02*
X350Y469D01*
X352Y469D01*
X352Y463D01*
X354Y463D01*
X354Y461D01*
X376Y461D01*
X376Y463D01*
X380Y463D01*
X380Y465D01*
X384Y465D01*
X384Y467D01*
X390Y467D01*
X390Y469D01*
X396Y469D01*
X396Y471D01*
X406Y471D01*
X406Y473D01*
X350Y473D01*
G37*
D02*
G36*
X356Y331D02*
X356Y329D01*
X352Y329D01*
X352Y327D01*
X348Y327D01*
X348Y325D01*
X342Y325D01*
X342Y323D01*
X336Y323D01*
X336Y321D01*
X328Y321D01*
X328Y319D01*
X404Y319D01*
X404Y321D01*
X394Y321D01*
X394Y323D01*
X388Y323D01*
X388Y325D01*
X384Y325D01*
X384Y327D01*
X380Y327D01*
X380Y329D01*
X376Y329D01*
X376Y331D01*
X356Y331D01*
G37*
D02*
G36*
X456Y331D02*
X456Y329D01*
X452Y329D01*
X452Y327D01*
X448Y327D01*
X448Y325D01*
X442Y325D01*
X442Y323D01*
X436Y323D01*
X436Y321D01*
X428Y321D01*
X428Y319D01*
X504Y319D01*
X504Y321D01*
X494Y321D01*
X494Y323D01*
X488Y323D01*
X488Y325D01*
X484Y325D01*
X484Y327D01*
X480Y327D01*
X480Y329D01*
X476Y329D01*
X476Y331D01*
X456Y331D01*
G37*
D02*
G36*
X556Y331D02*
X556Y329D01*
X552Y329D01*
X552Y327D01*
X548Y327D01*
X548Y325D01*
X542Y325D01*
X542Y323D01*
X536Y323D01*
X536Y321D01*
X528Y321D01*
X528Y319D01*
X604Y319D01*
X604Y321D01*
X594Y321D01*
X594Y323D01*
X588Y323D01*
X588Y325D01*
X584Y325D01*
X584Y327D01*
X580Y327D01*
X580Y329D01*
X576Y329D01*
X576Y331D01*
X556Y331D01*
G37*
D02*
G36*
X40Y319D02*
X40Y317D01*
X634Y317D01*
X634Y319D01*
X40Y319D01*
G37*
D02*
G36*
X40Y319D02*
X40Y317D01*
X634Y317D01*
X634Y319D01*
X40Y319D01*
G37*
D02*
G36*
X40Y319D02*
X40Y317D01*
X634Y317D01*
X634Y319D01*
X40Y319D01*
G37*
D02*
G36*
X40Y319D02*
X40Y317D01*
X634Y317D01*
X634Y319D01*
X40Y319D01*
G37*
D02*
G36*
X40Y317D02*
X40Y175D01*
X1338Y175D01*
X1338Y173D01*
X1344Y173D01*
X1344Y171D01*
X1350Y171D01*
X1350Y169D01*
X1354Y169D01*
X1354Y167D01*
X1358Y167D01*
X1358Y165D01*
X1362Y165D01*
X1362Y163D01*
X1384Y163D01*
X1384Y165D01*
X1386Y165D01*
X1386Y167D01*
X1390Y167D01*
X1390Y169D01*
X1394Y169D01*
X1394Y171D01*
X1400Y171D01*
X1400Y173D01*
X1408Y173D01*
X1408Y193D01*
X1390Y193D01*
X1390Y195D01*
X1370Y195D01*
X1370Y197D01*
X1350Y197D01*
X1350Y199D01*
X1328Y199D01*
X1328Y201D01*
X1308Y201D01*
X1308Y203D01*
X1288Y203D01*
X1288Y205D01*
X1268Y205D01*
X1268Y207D01*
X1248Y207D01*
X1248Y209D01*
X1226Y209D01*
X1226Y211D01*
X1206Y211D01*
X1206Y213D01*
X1186Y213D01*
X1186Y215D01*
X1166Y215D01*
X1166Y217D01*
X1144Y217D01*
X1144Y219D01*
X1124Y219D01*
X1124Y221D01*
X1104Y221D01*
X1104Y223D01*
X1084Y223D01*
X1084Y225D01*
X1064Y225D01*
X1064Y227D01*
X1042Y227D01*
X1042Y229D01*
X1022Y229D01*
X1022Y231D01*
X1002Y231D01*
X1002Y233D01*
X982Y233D01*
X982Y235D01*
X960Y235D01*
X960Y237D01*
X940Y237D01*
X940Y239D01*
X920Y239D01*
X920Y241D01*
X900Y241D01*
X900Y243D01*
X878Y243D01*
X878Y245D01*
X858Y245D01*
X858Y247D01*
X838Y247D01*
X838Y249D01*
X818Y249D01*
X818Y251D01*
X798Y251D01*
X798Y253D01*
X776Y253D01*
X776Y255D01*
X756Y255D01*
X756Y257D01*
X736Y257D01*
X736Y259D01*
X720Y259D01*
X720Y261D01*
X712Y261D01*
X712Y263D01*
X708Y263D01*
X708Y265D01*
X704Y265D01*
X704Y267D01*
X702Y267D01*
X702Y269D01*
X698Y269D01*
X698Y271D01*
X696Y271D01*
X696Y273D01*
X692Y273D01*
X692Y275D01*
X690Y275D01*
X690Y277D01*
X688Y277D01*
X688Y279D01*
X684Y279D01*
X684Y281D01*
X682Y281D01*
X682Y283D01*
X680Y283D01*
X680Y285D01*
X676Y285D01*
X676Y287D01*
X674Y287D01*
X674Y289D01*
X672Y289D01*
X672Y291D01*
X668Y291D01*
X668Y293D01*
X666Y293D01*
X666Y295D01*
X664Y295D01*
X664Y297D01*
X660Y297D01*
X660Y299D01*
X658Y299D01*
X658Y301D01*
X656Y301D01*
X656Y303D01*
X652Y303D01*
X652Y305D01*
X650Y305D01*
X650Y307D01*
X648Y307D01*
X648Y309D01*
X644Y309D01*
X644Y311D01*
X642Y311D01*
X642Y313D01*
X640Y313D01*
X640Y315D01*
X636Y315D01*
X636Y317D01*
X40Y317D01*
G37*
D02*
G36*
X40Y175D02*
X40Y41D01*
X1064Y41D01*
X1064Y61D01*
X1062Y61D01*
X1062Y65D01*
X1060Y65D01*
X1060Y67D01*
X1058Y67D01*
X1058Y71D01*
X1056Y71D01*
X1056Y75D01*
X1054Y75D01*
X1054Y81D01*
X1052Y81D01*
X1052Y89D01*
X1050Y89D01*
X1050Y117D01*
X1052Y117D01*
X1052Y125D01*
X1054Y125D01*
X1054Y131D01*
X1056Y131D01*
X1056Y135D01*
X1058Y135D01*
X1058Y139D01*
X1060Y139D01*
X1060Y141D01*
X1062Y141D01*
X1062Y145D01*
X1064Y145D01*
X1064Y147D01*
X1066Y147D01*
X1066Y149D01*
X1068Y149D01*
X1068Y153D01*
X1070Y153D01*
X1070Y155D01*
X1072Y155D01*
X1072Y157D01*
X1074Y157D01*
X1074Y159D01*
X1078Y159D01*
X1078Y161D01*
X1080Y161D01*
X1080Y163D01*
X1084Y163D01*
X1084Y165D01*
X1086Y165D01*
X1086Y167D01*
X1090Y167D01*
X1090Y169D01*
X1094Y169D01*
X1094Y171D01*
X1100Y171D01*
X1100Y173D01*
X1108Y173D01*
X1108Y175D01*
X40Y175D01*
G37*
D02*
G36*
X1138Y175D02*
X1138Y173D01*
X1144Y173D01*
X1144Y171D01*
X1150Y171D01*
X1150Y169D01*
X1154Y169D01*
X1154Y167D01*
X1158Y167D01*
X1158Y165D01*
X1162Y165D01*
X1162Y163D01*
X1184Y163D01*
X1184Y165D01*
X1186Y165D01*
X1186Y167D01*
X1190Y167D01*
X1190Y169D01*
X1194Y169D01*
X1194Y171D01*
X1200Y171D01*
X1200Y173D01*
X1208Y173D01*
X1208Y175D01*
X1138Y175D01*
G37*
D02*
G36*
X1238Y175D02*
X1238Y173D01*
X1244Y173D01*
X1244Y171D01*
X1250Y171D01*
X1250Y169D01*
X1254Y169D01*
X1254Y167D01*
X1258Y167D01*
X1258Y165D01*
X1262Y165D01*
X1262Y163D01*
X1284Y163D01*
X1284Y165D01*
X1286Y165D01*
X1286Y167D01*
X1290Y167D01*
X1290Y169D01*
X1294Y169D01*
X1294Y171D01*
X1300Y171D01*
X1300Y173D01*
X1308Y173D01*
X1308Y175D01*
X1238Y175D01*
G37*
D02*
G36*
X2170Y175D02*
X2170Y173D01*
X2172Y173D01*
X2172Y169D01*
X2194Y169D01*
X2194Y171D01*
X2200Y171D01*
X2200Y173D01*
X2208Y173D01*
X2208Y175D01*
X2170Y175D01*
G37*
D02*
G36*
X2238Y175D02*
X2238Y173D01*
X2244Y173D01*
X2244Y171D01*
X2250Y171D01*
X2250Y169D01*
X2254Y169D01*
X2254Y167D01*
X2258Y167D01*
X2258Y165D01*
X2262Y165D01*
X2262Y163D01*
X2284Y163D01*
X2284Y165D01*
X2286Y165D01*
X2286Y167D01*
X2290Y167D01*
X2290Y169D01*
X2294Y169D01*
X2294Y171D01*
X2300Y171D01*
X2300Y173D01*
X2308Y173D01*
X2308Y175D01*
X2238Y175D01*
G37*
D02*
G36*
X2338Y175D02*
X2338Y173D01*
X2344Y173D01*
X2344Y171D01*
X2350Y171D01*
X2350Y169D01*
X2354Y169D01*
X2354Y167D01*
X2358Y167D01*
X2358Y165D01*
X2362Y165D01*
X2362Y163D01*
X2384Y163D01*
X2384Y165D01*
X2386Y165D01*
X2386Y167D01*
X2390Y167D01*
X2390Y169D01*
X2394Y169D01*
X2394Y171D01*
X2400Y171D01*
X2400Y173D01*
X2408Y173D01*
X2408Y175D01*
X2338Y175D01*
G37*
D02*
G36*
X2438Y175D02*
X2438Y173D01*
X2444Y173D01*
X2444Y171D01*
X2450Y171D01*
X2450Y169D01*
X2454Y169D01*
X2454Y167D01*
X2458Y167D01*
X2458Y165D01*
X2462Y165D01*
X2462Y163D01*
X2484Y163D01*
X2484Y165D01*
X2486Y165D01*
X2486Y167D01*
X2490Y167D01*
X2490Y169D01*
X2494Y169D01*
X2494Y171D01*
X2500Y171D01*
X2500Y173D01*
X2508Y173D01*
X2508Y175D01*
X2438Y175D01*
G37*
D02*
G36*
X2514Y1337D02*
X2514Y1323D01*
X2512Y1323D01*
X2512Y1315D01*
X2510Y1315D01*
X2510Y1309D01*
X2508Y1309D01*
X2508Y1305D01*
X2506Y1305D01*
X2506Y1301D01*
X2504Y1301D01*
X2504Y1299D01*
X2502Y1299D01*
X2502Y1295D01*
X2500Y1295D01*
X2500Y1279D01*
X2526Y1279D01*
X2526Y1277D01*
X2548Y1277D01*
X2548Y1323D01*
X2546Y1323D01*
X2546Y1331D01*
X2544Y1331D01*
X2544Y1333D01*
X2538Y1333D01*
X2538Y1335D01*
X2534Y1335D01*
X2534Y1337D01*
X2514Y1337D01*
G37*
D02*
G36*
X2428Y1197D02*
X2428Y1193D01*
X2426Y1193D01*
X2426Y1189D01*
X2424Y1189D01*
X2424Y1185D01*
X2422Y1185D01*
X2422Y1181D01*
X2420Y1181D01*
X2420Y1175D01*
X2418Y1175D01*
X2418Y1171D01*
X2416Y1171D01*
X2416Y1167D01*
X2414Y1167D01*
X2414Y1163D01*
X2412Y1163D01*
X2412Y1159D01*
X2410Y1159D01*
X2410Y1155D01*
X2408Y1155D01*
X2408Y1151D01*
X2406Y1151D01*
X2406Y1147D01*
X2404Y1147D01*
X2404Y1141D01*
X2402Y1141D01*
X2402Y1137D01*
X2400Y1137D01*
X2400Y1133D01*
X2398Y1133D01*
X2398Y1129D01*
X2396Y1129D01*
X2396Y1125D01*
X2394Y1125D01*
X2394Y1121D01*
X2392Y1121D01*
X2392Y1117D01*
X2390Y1117D01*
X2390Y1111D01*
X2388Y1111D01*
X2388Y1107D01*
X2386Y1107D01*
X2386Y1103D01*
X2384Y1103D01*
X2384Y1099D01*
X2382Y1099D01*
X2382Y1095D01*
X2380Y1095D01*
X2380Y1091D01*
X2378Y1091D01*
X2378Y1087D01*
X2376Y1087D01*
X2376Y1081D01*
X2374Y1081D01*
X2374Y1077D01*
X2372Y1077D01*
X2372Y1045D01*
X2374Y1045D01*
X2374Y1025D01*
X2376Y1025D01*
X2376Y1005D01*
X2378Y1005D01*
X2378Y987D01*
X2380Y987D01*
X2380Y985D01*
X2386Y985D01*
X2386Y983D01*
X2392Y983D01*
X2392Y981D01*
X2398Y981D01*
X2398Y979D01*
X2404Y979D01*
X2404Y977D01*
X2410Y977D01*
X2410Y975D01*
X2416Y975D01*
X2416Y973D01*
X2422Y973D01*
X2422Y971D01*
X2428Y971D01*
X2428Y969D01*
X2434Y969D01*
X2434Y967D01*
X2454Y967D01*
X2454Y981D01*
X2452Y981D01*
X2452Y987D01*
X2450Y987D01*
X2450Y997D01*
X2448Y997D01*
X2448Y1017D01*
X2450Y1017D01*
X2450Y1027D01*
X2452Y1027D01*
X2452Y1033D01*
X2454Y1033D01*
X2454Y1037D01*
X2456Y1037D01*
X2456Y1041D01*
X2458Y1041D01*
X2458Y1045D01*
X2460Y1045D01*
X2460Y1069D01*
X2458Y1069D01*
X2458Y1073D01*
X2456Y1073D01*
X2456Y1077D01*
X2454Y1077D01*
X2454Y1081D01*
X2452Y1081D01*
X2452Y1087D01*
X2450Y1087D01*
X2450Y1097D01*
X2448Y1097D01*
X2448Y1115D01*
X2450Y1115D01*
X2450Y1125D01*
X2452Y1125D01*
X2452Y1131D01*
X2454Y1131D01*
X2454Y1137D01*
X2456Y1137D01*
X2456Y1141D01*
X2458Y1141D01*
X2458Y1143D01*
X2460Y1143D01*
X2460Y1169D01*
X2458Y1169D01*
X2458Y1171D01*
X2456Y1171D01*
X2456Y1175D01*
X2454Y1175D01*
X2454Y1181D01*
X2452Y1181D01*
X2452Y1187D01*
X2450Y1187D01*
X2450Y1197D01*
X2428Y1197D01*
G37*
D02*
G36*
X834Y727D02*
X834Y725D01*
X826Y725D01*
X826Y723D01*
X818Y723D01*
X818Y721D01*
X810Y721D01*
X810Y719D01*
X802Y719D01*
X802Y717D01*
X794Y717D01*
X794Y715D01*
X786Y715D01*
X786Y713D01*
X778Y713D01*
X778Y711D01*
X770Y711D01*
X770Y709D01*
X762Y709D01*
X762Y707D01*
X754Y707D01*
X754Y705D01*
X746Y705D01*
X746Y703D01*
X738Y703D01*
X738Y701D01*
X730Y701D01*
X730Y699D01*
X722Y699D01*
X722Y697D01*
X714Y697D01*
X714Y695D01*
X706Y695D01*
X706Y693D01*
X698Y693D01*
X698Y691D01*
X690Y691D01*
X690Y689D01*
X682Y689D01*
X682Y687D01*
X674Y687D01*
X674Y685D01*
X666Y685D01*
X666Y683D01*
X658Y683D01*
X658Y681D01*
X650Y681D01*
X650Y679D01*
X642Y679D01*
X642Y677D01*
X634Y677D01*
X634Y675D01*
X628Y675D01*
X628Y667D01*
X626Y667D01*
X626Y659D01*
X624Y659D01*
X624Y649D01*
X622Y649D01*
X622Y639D01*
X620Y639D01*
X620Y631D01*
X618Y631D01*
X618Y621D01*
X616Y621D01*
X616Y611D01*
X614Y611D01*
X614Y603D01*
X612Y603D01*
X612Y593D01*
X610Y593D01*
X610Y583D01*
X608Y583D01*
X608Y573D01*
X606Y573D01*
X606Y565D01*
X604Y565D01*
X604Y555D01*
X602Y555D01*
X602Y545D01*
X600Y545D01*
X600Y537D01*
X598Y537D01*
X598Y527D01*
X596Y527D01*
X596Y517D01*
X594Y517D01*
X594Y509D01*
X592Y509D01*
X592Y499D01*
X590Y499D01*
X590Y489D01*
X588Y489D01*
X588Y473D01*
X626Y473D01*
X626Y471D01*
X636Y471D01*
X636Y469D01*
X642Y469D01*
X642Y467D01*
X648Y467D01*
X648Y465D01*
X652Y465D01*
X652Y463D01*
X654Y463D01*
X654Y461D01*
X658Y461D01*
X658Y459D01*
X660Y459D01*
X660Y457D01*
X664Y457D01*
X664Y455D01*
X666Y455D01*
X666Y453D01*
X668Y453D01*
X668Y451D01*
X670Y451D01*
X670Y449D01*
X672Y449D01*
X672Y447D01*
X674Y447D01*
X674Y445D01*
X676Y445D01*
X676Y443D01*
X678Y443D01*
X678Y439D01*
X680Y439D01*
X680Y437D01*
X682Y437D01*
X682Y433D01*
X684Y433D01*
X684Y429D01*
X686Y429D01*
X686Y425D01*
X688Y425D01*
X688Y419D01*
X690Y419D01*
X690Y413D01*
X692Y413D01*
X692Y403D01*
X694Y403D01*
X694Y401D01*
X698Y401D01*
X698Y399D01*
X700Y399D01*
X700Y397D01*
X704Y397D01*
X704Y395D01*
X706Y395D01*
X706Y393D01*
X708Y393D01*
X708Y391D01*
X712Y391D01*
X712Y389D01*
X714Y389D01*
X714Y387D01*
X716Y387D01*
X716Y385D01*
X720Y385D01*
X720Y383D01*
X722Y383D01*
X722Y381D01*
X724Y381D01*
X724Y379D01*
X728Y379D01*
X728Y377D01*
X730Y377D01*
X730Y375D01*
X732Y375D01*
X732Y373D01*
X736Y373D01*
X736Y371D01*
X738Y371D01*
X738Y369D01*
X740Y369D01*
X740Y367D01*
X744Y367D01*
X744Y365D01*
X746Y365D01*
X746Y363D01*
X748Y363D01*
X748Y361D01*
X762Y361D01*
X762Y359D01*
X782Y359D01*
X782Y357D01*
X802Y357D01*
X802Y355D01*
X822Y355D01*
X822Y353D01*
X844Y353D01*
X844Y351D01*
X864Y351D01*
X864Y349D01*
X884Y349D01*
X884Y347D01*
X904Y347D01*
X904Y345D01*
X924Y345D01*
X924Y343D01*
X946Y343D01*
X946Y341D01*
X966Y341D01*
X966Y339D01*
X986Y339D01*
X986Y337D01*
X1006Y337D01*
X1006Y335D01*
X1028Y335D01*
X1028Y333D01*
X1048Y333D01*
X1048Y331D01*
X1068Y331D01*
X1068Y329D01*
X1088Y329D01*
X1088Y327D01*
X1110Y327D01*
X1110Y325D01*
X1130Y325D01*
X1130Y323D01*
X1150Y323D01*
X1150Y321D01*
X1170Y321D01*
X1170Y319D01*
X1190Y319D01*
X1190Y317D01*
X1212Y317D01*
X1212Y315D01*
X1232Y315D01*
X1232Y313D01*
X1252Y313D01*
X1252Y311D01*
X1272Y311D01*
X1272Y309D01*
X1294Y309D01*
X1294Y307D01*
X1314Y307D01*
X1314Y305D01*
X1334Y305D01*
X1334Y303D01*
X1354Y303D01*
X1354Y301D01*
X1374Y301D01*
X1374Y299D01*
X1396Y299D01*
X1396Y297D01*
X1416Y297D01*
X1416Y295D01*
X1436Y295D01*
X1436Y293D01*
X1456Y293D01*
X1456Y291D01*
X1474Y291D01*
X1474Y289D01*
X1480Y289D01*
X1480Y287D01*
X1484Y287D01*
X1484Y285D01*
X1488Y285D01*
X1488Y283D01*
X1492Y283D01*
X1492Y281D01*
X1494Y281D01*
X1494Y279D01*
X1496Y279D01*
X1496Y277D01*
X1498Y277D01*
X1498Y275D01*
X1500Y275D01*
X1500Y273D01*
X1502Y273D01*
X1502Y271D01*
X1504Y271D01*
X1504Y269D01*
X1506Y269D01*
X1506Y265D01*
X1508Y265D01*
X1508Y261D01*
X1510Y261D01*
X1510Y259D01*
X1512Y259D01*
X1512Y255D01*
X1514Y255D01*
X1514Y251D01*
X1516Y251D01*
X1516Y247D01*
X1518Y247D01*
X1518Y243D01*
X1520Y243D01*
X1520Y241D01*
X1522Y241D01*
X1522Y237D01*
X1524Y237D01*
X1524Y233D01*
X1526Y233D01*
X1526Y229D01*
X1528Y229D01*
X1528Y225D01*
X1530Y225D01*
X1530Y223D01*
X1532Y223D01*
X1532Y219D01*
X1534Y219D01*
X1534Y215D01*
X1536Y215D01*
X1536Y211D01*
X1538Y211D01*
X1538Y207D01*
X1540Y207D01*
X1540Y203D01*
X1542Y203D01*
X1542Y201D01*
X1544Y201D01*
X1544Y197D01*
X1546Y197D01*
X1546Y193D01*
X1548Y193D01*
X1548Y189D01*
X1550Y189D01*
X1550Y185D01*
X1552Y185D01*
X1552Y183D01*
X1554Y183D01*
X1554Y179D01*
X1556Y179D01*
X1556Y175D01*
X1838Y175D01*
X1838Y173D01*
X1844Y173D01*
X1844Y171D01*
X1850Y171D01*
X1850Y169D01*
X1854Y169D01*
X1854Y167D01*
X1858Y167D01*
X1858Y165D01*
X1862Y165D01*
X1862Y163D01*
X1864Y163D01*
X1864Y161D01*
X1866Y161D01*
X1866Y159D01*
X1870Y159D01*
X1870Y157D01*
X1872Y157D01*
X1872Y155D01*
X1874Y155D01*
X1874Y153D01*
X1876Y153D01*
X1876Y151D01*
X1878Y151D01*
X1878Y147D01*
X1880Y147D01*
X1880Y145D01*
X1882Y145D01*
X1882Y143D01*
X1884Y143D01*
X1884Y139D01*
X1886Y139D01*
X1886Y135D01*
X1888Y135D01*
X1888Y131D01*
X1890Y131D01*
X1890Y127D01*
X1892Y127D01*
X1892Y119D01*
X1894Y119D01*
X1894Y87D01*
X1892Y87D01*
X1892Y79D01*
X1890Y79D01*
X1890Y75D01*
X1888Y75D01*
X1888Y71D01*
X1886Y71D01*
X1886Y67D01*
X1884Y67D01*
X1884Y63D01*
X1882Y63D01*
X1882Y61D01*
X1880Y61D01*
X1880Y41D01*
X1964Y41D01*
X1964Y61D01*
X1962Y61D01*
X1962Y65D01*
X1960Y65D01*
X1960Y67D01*
X1958Y67D01*
X1958Y71D01*
X1956Y71D01*
X1956Y75D01*
X1954Y75D01*
X1954Y81D01*
X1952Y81D01*
X1952Y89D01*
X1950Y89D01*
X1950Y117D01*
X1952Y117D01*
X1952Y125D01*
X1954Y125D01*
X1954Y131D01*
X1956Y131D01*
X1956Y135D01*
X1958Y135D01*
X1958Y139D01*
X1960Y139D01*
X1960Y141D01*
X1962Y141D01*
X1962Y145D01*
X1964Y145D01*
X1964Y147D01*
X1966Y147D01*
X1966Y149D01*
X1968Y149D01*
X1968Y153D01*
X1970Y153D01*
X1970Y155D01*
X1972Y155D01*
X1972Y157D01*
X1974Y157D01*
X1974Y159D01*
X1978Y159D01*
X1978Y161D01*
X1980Y161D01*
X1980Y163D01*
X1984Y163D01*
X1984Y165D01*
X1986Y165D01*
X1986Y167D01*
X1990Y167D01*
X1990Y169D01*
X1994Y169D01*
X1994Y171D01*
X2000Y171D01*
X2000Y173D01*
X2008Y173D01*
X2008Y175D01*
X2046Y175D01*
X2046Y193D01*
X2044Y193D01*
X2044Y197D01*
X2042Y197D01*
X2042Y201D01*
X2040Y201D01*
X2040Y205D01*
X2038Y205D01*
X2038Y209D01*
X2036Y209D01*
X2036Y213D01*
X2034Y213D01*
X2034Y219D01*
X2032Y219D01*
X2032Y223D01*
X2030Y223D01*
X2030Y227D01*
X2028Y227D01*
X2028Y231D01*
X2026Y231D01*
X2026Y235D01*
X2024Y235D01*
X2024Y239D01*
X2022Y239D01*
X2022Y243D01*
X2020Y243D01*
X2020Y247D01*
X2018Y247D01*
X2018Y251D01*
X2016Y251D01*
X2016Y255D01*
X2014Y255D01*
X2014Y259D01*
X2012Y259D01*
X2012Y263D01*
X2010Y263D01*
X2010Y267D01*
X2008Y267D01*
X2008Y271D01*
X2006Y271D01*
X2006Y275D01*
X2004Y275D01*
X2004Y279D01*
X2002Y279D01*
X2002Y283D01*
X2000Y283D01*
X2000Y287D01*
X1998Y287D01*
X1998Y291D01*
X1996Y291D01*
X1996Y295D01*
X1994Y295D01*
X1994Y299D01*
X1992Y299D01*
X1992Y303D01*
X1990Y303D01*
X1990Y307D01*
X1988Y307D01*
X1988Y311D01*
X1986Y311D01*
X1986Y315D01*
X1984Y315D01*
X1984Y319D01*
X1982Y319D01*
X1982Y323D01*
X1980Y323D01*
X1980Y327D01*
X1978Y327D01*
X1978Y331D01*
X1976Y331D01*
X1976Y335D01*
X1974Y335D01*
X1974Y339D01*
X1972Y339D01*
X1972Y343D01*
X1970Y343D01*
X1970Y347D01*
X1968Y347D01*
X1968Y351D01*
X1966Y351D01*
X1966Y357D01*
X1964Y357D01*
X1964Y361D01*
X1962Y361D01*
X1962Y365D01*
X1960Y365D01*
X1960Y369D01*
X1958Y369D01*
X1958Y373D01*
X1956Y373D01*
X1956Y377D01*
X1954Y377D01*
X1954Y381D01*
X1952Y381D01*
X1952Y385D01*
X1950Y385D01*
X1950Y389D01*
X1948Y389D01*
X1948Y393D01*
X1946Y393D01*
X1946Y397D01*
X1944Y397D01*
X1944Y401D01*
X1942Y401D01*
X1942Y405D01*
X1940Y405D01*
X1940Y409D01*
X1938Y409D01*
X1938Y413D01*
X1936Y413D01*
X1936Y417D01*
X1934Y417D01*
X1934Y421D01*
X1932Y421D01*
X1932Y425D01*
X1930Y425D01*
X1930Y429D01*
X1928Y429D01*
X1928Y433D01*
X1926Y433D01*
X1926Y437D01*
X1924Y437D01*
X1924Y441D01*
X1922Y441D01*
X1922Y445D01*
X1920Y445D01*
X1920Y449D01*
X1918Y449D01*
X1918Y453D01*
X1916Y453D01*
X1916Y457D01*
X1914Y457D01*
X1914Y461D01*
X1912Y461D01*
X1912Y465D01*
X1910Y465D01*
X1910Y469D01*
X1908Y469D01*
X1908Y473D01*
X1906Y473D01*
X1906Y477D01*
X1904Y477D01*
X1904Y481D01*
X1902Y481D01*
X1902Y485D01*
X1900Y485D01*
X1900Y489D01*
X1898Y489D01*
X1898Y495D01*
X1896Y495D01*
X1896Y499D01*
X1894Y499D01*
X1894Y503D01*
X1892Y503D01*
X1892Y507D01*
X1890Y507D01*
X1890Y511D01*
X1888Y511D01*
X1888Y515D01*
X1886Y515D01*
X1886Y519D01*
X1884Y519D01*
X1884Y523D01*
X1882Y523D01*
X1882Y527D01*
X1880Y527D01*
X1880Y531D01*
X1878Y531D01*
X1878Y535D01*
X1876Y535D01*
X1876Y539D01*
X1874Y539D01*
X1874Y543D01*
X1872Y543D01*
X1872Y547D01*
X1870Y547D01*
X1870Y551D01*
X1868Y551D01*
X1868Y555D01*
X1866Y555D01*
X1866Y557D01*
X1858Y557D01*
X1858Y559D01*
X1846Y559D01*
X1846Y561D01*
X1834Y561D01*
X1834Y563D01*
X1822Y563D01*
X1822Y565D01*
X1810Y565D01*
X1810Y567D01*
X1798Y567D01*
X1798Y569D01*
X1786Y569D01*
X1786Y571D01*
X1774Y571D01*
X1774Y573D01*
X1762Y573D01*
X1762Y575D01*
X1752Y575D01*
X1752Y577D01*
X1740Y577D01*
X1740Y579D01*
X1728Y579D01*
X1728Y581D01*
X1716Y581D01*
X1716Y583D01*
X1704Y583D01*
X1704Y585D01*
X1692Y585D01*
X1692Y587D01*
X1680Y587D01*
X1680Y589D01*
X1668Y589D01*
X1668Y591D01*
X1656Y591D01*
X1656Y593D01*
X1644Y593D01*
X1644Y595D01*
X1632Y595D01*
X1632Y597D01*
X1622Y597D01*
X1622Y599D01*
X1610Y599D01*
X1610Y601D01*
X1598Y601D01*
X1598Y603D01*
X1586Y603D01*
X1586Y605D01*
X1574Y605D01*
X1574Y607D01*
X1562Y607D01*
X1562Y609D01*
X1550Y609D01*
X1550Y611D01*
X1538Y611D01*
X1538Y613D01*
X1526Y613D01*
X1526Y615D01*
X1514Y615D01*
X1514Y617D01*
X1502Y617D01*
X1502Y619D01*
X1492Y619D01*
X1492Y621D01*
X1480Y621D01*
X1480Y623D01*
X1468Y623D01*
X1468Y625D01*
X1456Y625D01*
X1456Y627D01*
X1444Y627D01*
X1444Y629D01*
X1432Y629D01*
X1432Y631D01*
X1420Y631D01*
X1420Y633D01*
X1408Y633D01*
X1408Y635D01*
X1396Y635D01*
X1396Y637D01*
X1384Y637D01*
X1384Y639D01*
X1372Y639D01*
X1372Y641D01*
X1362Y641D01*
X1362Y643D01*
X1350Y643D01*
X1350Y645D01*
X1338Y645D01*
X1338Y647D01*
X1326Y647D01*
X1326Y649D01*
X1314Y649D01*
X1314Y651D01*
X1302Y651D01*
X1302Y653D01*
X1290Y653D01*
X1290Y655D01*
X1278Y655D01*
X1278Y657D01*
X1266Y657D01*
X1266Y659D01*
X1254Y659D01*
X1254Y661D01*
X1242Y661D01*
X1242Y663D01*
X1232Y663D01*
X1232Y665D01*
X1220Y665D01*
X1220Y667D01*
X1208Y667D01*
X1208Y669D01*
X1196Y669D01*
X1196Y671D01*
X1184Y671D01*
X1184Y673D01*
X1172Y673D01*
X1172Y675D01*
X1160Y675D01*
X1160Y677D01*
X1148Y677D01*
X1148Y679D01*
X1136Y679D01*
X1136Y681D01*
X1124Y681D01*
X1124Y683D01*
X1112Y683D01*
X1112Y685D01*
X1102Y685D01*
X1102Y687D01*
X1090Y687D01*
X1090Y689D01*
X1078Y689D01*
X1078Y691D01*
X1066Y691D01*
X1066Y693D01*
X1054Y693D01*
X1054Y695D01*
X1042Y695D01*
X1042Y697D01*
X1030Y697D01*
X1030Y699D01*
X1018Y699D01*
X1018Y701D01*
X1006Y701D01*
X1006Y703D01*
X994Y703D01*
X994Y705D01*
X982Y705D01*
X982Y707D01*
X972Y707D01*
X972Y709D01*
X960Y709D01*
X960Y711D01*
X948Y711D01*
X948Y713D01*
X936Y713D01*
X936Y715D01*
X924Y715D01*
X924Y717D01*
X912Y717D01*
X912Y719D01*
X900Y719D01*
X900Y721D01*
X888Y721D01*
X888Y723D01*
X876Y723D01*
X876Y725D01*
X864Y725D01*
X864Y727D01*
X834Y727D01*
G37*
D02*
G36*
X1558Y175D02*
X1558Y173D01*
X1560Y173D01*
X1560Y171D01*
X1562Y171D01*
X1562Y169D01*
X1564Y169D01*
X1564Y167D01*
X1566Y167D01*
X1566Y165D01*
X1586Y165D01*
X1586Y167D01*
X1590Y167D01*
X1590Y169D01*
X1594Y169D01*
X1594Y171D01*
X1600Y171D01*
X1600Y173D01*
X1608Y173D01*
X1608Y175D01*
X1558Y175D01*
G37*
D02*
G36*
X1638Y175D02*
X1638Y173D01*
X1644Y173D01*
X1644Y171D01*
X1650Y171D01*
X1650Y169D01*
X1654Y169D01*
X1654Y167D01*
X1658Y167D01*
X1658Y165D01*
X1662Y165D01*
X1662Y163D01*
X1684Y163D01*
X1684Y165D01*
X1686Y165D01*
X1686Y167D01*
X1690Y167D01*
X1690Y169D01*
X1694Y169D01*
X1694Y171D01*
X1700Y171D01*
X1700Y173D01*
X1708Y173D01*
X1708Y175D01*
X1638Y175D01*
G37*
D02*
G36*
X1738Y175D02*
X1738Y173D01*
X1744Y173D01*
X1744Y171D01*
X1750Y171D01*
X1750Y169D01*
X1754Y169D01*
X1754Y167D01*
X1758Y167D01*
X1758Y165D01*
X1762Y165D01*
X1762Y163D01*
X1784Y163D01*
X1784Y165D01*
X1786Y165D01*
X1786Y167D01*
X1790Y167D01*
X1790Y169D01*
X1794Y169D01*
X1794Y171D01*
X1800Y171D01*
X1800Y173D01*
X1808Y173D01*
X1808Y175D01*
X1738Y175D01*
G37*
D02*
G54D19*
X402Y1580D02*
X457Y1580D01*
X345Y1579D02*
X457Y1579D01*
X313Y1578D02*
X457Y1578D01*
X313Y1577D02*
X457Y1577D01*
X313Y1576D02*
X457Y1576D01*
X313Y1575D02*
X457Y1575D01*
X313Y1574D02*
X457Y1574D01*
X313Y1573D02*
X457Y1573D01*
X313Y1572D02*
X457Y1572D01*
X313Y1571D02*
X457Y1571D01*
X313Y1570D02*
X457Y1570D01*
X313Y1569D02*
X457Y1569D01*
X313Y1568D02*
X457Y1568D01*
X313Y1567D02*
X458Y1567D01*
X313Y1566D02*
X458Y1566D01*
X313Y1565D02*
X458Y1565D01*
X313Y1564D02*
X458Y1564D01*
X313Y1563D02*
X458Y1563D01*
X313Y1562D02*
X458Y1562D01*
X313Y1561D02*
X458Y1561D01*
X313Y1560D02*
X458Y1560D01*
X313Y1559D02*
X458Y1559D01*
X313Y1558D02*
X458Y1558D01*
X313Y1557D02*
X458Y1557D01*
X313Y1556D02*
X458Y1556D01*
X313Y1555D02*
X458Y1555D01*
X313Y1554D02*
X383Y1554D01*
X390Y1554D02*
X458Y1554D01*
X313Y1553D02*
X375Y1553D01*
X397Y1553D02*
X458Y1553D01*
X313Y1552D02*
X372Y1552D01*
X401Y1552D02*
X458Y1552D01*
X313Y1551D02*
X369Y1551D01*
X404Y1551D02*
X458Y1551D01*
X313Y1550D02*
X366Y1550D01*
X406Y1550D02*
X458Y1550D01*
X313Y1549D02*
X364Y1549D01*
X408Y1549D02*
X458Y1549D01*
X313Y1548D02*
X362Y1548D01*
X410Y1548D02*
X458Y1548D01*
X313Y1547D02*
X361Y1547D01*
X412Y1547D02*
X458Y1547D01*
X313Y1546D02*
X359Y1546D01*
X413Y1546D02*
X458Y1546D01*
X313Y1545D02*
X358Y1545D01*
X415Y1545D02*
X458Y1545D01*
X313Y1544D02*
X357Y1544D01*
X416Y1544D02*
X458Y1544D01*
X313Y1543D02*
X355Y1543D01*
X417Y1543D02*
X458Y1543D01*
X313Y1542D02*
X354Y1542D01*
X418Y1542D02*
X458Y1542D01*
X313Y1541D02*
X353Y1541D01*
X419Y1541D02*
X458Y1541D01*
X313Y1540D02*
X352Y1540D01*
X420Y1540D02*
X458Y1540D01*
X313Y1539D02*
X351Y1539D01*
X421Y1539D02*
X458Y1539D01*
X313Y1538D02*
X350Y1538D01*
X422Y1538D02*
X458Y1538D01*
X313Y1537D02*
X349Y1537D01*
X423Y1537D02*
X458Y1537D01*
X313Y1536D02*
X349Y1536D01*
X424Y1536D02*
X458Y1536D01*
X313Y1535D02*
X348Y1535D01*
X425Y1535D02*
X458Y1535D01*
X313Y1534D02*
X347Y1534D01*
X425Y1534D02*
X458Y1534D01*
X313Y1533D02*
X346Y1533D01*
X426Y1533D02*
X458Y1533D01*
X313Y1532D02*
X346Y1532D01*
X427Y1532D02*
X458Y1532D01*
X313Y1531D02*
X345Y1531D01*
X427Y1531D02*
X458Y1531D01*
X313Y1530D02*
X345Y1530D01*
X428Y1530D02*
X458Y1530D01*
X314Y1529D02*
X344Y1529D01*
X428Y1529D02*
X458Y1529D01*
X314Y1528D02*
X343Y1528D01*
X429Y1528D02*
X458Y1528D01*
X314Y1527D02*
X343Y1527D01*
X429Y1527D02*
X458Y1527D01*
X314Y1526D02*
X343Y1526D01*
X430Y1526D02*
X458Y1526D01*
X314Y1525D02*
X342Y1525D01*
X430Y1525D02*
X458Y1525D01*
X314Y1524D02*
X342Y1524D01*
X431Y1524D02*
X458Y1524D01*
X314Y1523D02*
X341Y1523D01*
X431Y1523D02*
X458Y1523D01*
X314Y1522D02*
X341Y1522D01*
X431Y1522D02*
X458Y1522D01*
X314Y1521D02*
X341Y1521D01*
X432Y1521D02*
X458Y1521D01*
X314Y1520D02*
X340Y1520D01*
X432Y1520D02*
X458Y1520D01*
X314Y1519D02*
X340Y1519D01*
X432Y1519D02*
X458Y1519D01*
X314Y1518D02*
X340Y1518D01*
X433Y1518D02*
X458Y1518D01*
X314Y1517D02*
X340Y1517D01*
X433Y1517D02*
X458Y1517D01*
X314Y1516D02*
X339Y1516D01*
X433Y1516D02*
X458Y1516D01*
X314Y1515D02*
X339Y1515D01*
X433Y1515D02*
X458Y1515D01*
X314Y1514D02*
X339Y1514D01*
X433Y1514D02*
X458Y1514D01*
X314Y1513D02*
X339Y1513D01*
X434Y1513D02*
X458Y1513D01*
X314Y1512D02*
X339Y1512D01*
X434Y1512D02*
X458Y1512D01*
X314Y1511D02*
X339Y1511D01*
X434Y1511D02*
X458Y1511D01*
X314Y1510D02*
X339Y1510D01*
X434Y1510D02*
X459Y1510D01*
X314Y1509D02*
X339Y1509D01*
X434Y1509D02*
X459Y1509D01*
X314Y1508D02*
X339Y1508D01*
X434Y1508D02*
X459Y1508D01*
X314Y1507D02*
X339Y1507D01*
X434Y1507D02*
X459Y1507D01*
X314Y1506D02*
X339Y1506D01*
X434Y1506D02*
X459Y1506D01*
X314Y1505D02*
X339Y1505D01*
X434Y1505D02*
X459Y1505D01*
X314Y1504D02*
X339Y1504D01*
X434Y1504D02*
X459Y1504D01*
X314Y1503D02*
X339Y1503D01*
X434Y1503D02*
X459Y1503D01*
X314Y1502D02*
X339Y1502D01*
X434Y1502D02*
X459Y1502D01*
X314Y1501D02*
X339Y1501D01*
X434Y1501D02*
X459Y1501D01*
X314Y1500D02*
X339Y1500D01*
X433Y1500D02*
X459Y1500D01*
X314Y1499D02*
X339Y1499D01*
X433Y1499D02*
X459Y1499D01*
X314Y1498D02*
X339Y1498D01*
X433Y1498D02*
X459Y1498D01*
X314Y1497D02*
X340Y1497D01*
X433Y1497D02*
X459Y1497D01*
X314Y1496D02*
X340Y1496D01*
X433Y1496D02*
X459Y1496D01*
X314Y1495D02*
X340Y1495D01*
X432Y1495D02*
X459Y1495D01*
X314Y1494D02*
X340Y1494D01*
X432Y1494D02*
X459Y1494D01*
X314Y1493D02*
X341Y1493D01*
X432Y1493D02*
X459Y1493D01*
X314Y1492D02*
X341Y1492D01*
X431Y1492D02*
X459Y1492D01*
X314Y1491D02*
X341Y1491D01*
X431Y1491D02*
X459Y1491D01*
X314Y1490D02*
X342Y1490D01*
X431Y1490D02*
X459Y1490D01*
X314Y1489D02*
X342Y1489D01*
X430Y1489D02*
X459Y1489D01*
X314Y1488D02*
X342Y1488D01*
X430Y1488D02*
X459Y1488D01*
X314Y1487D02*
X343Y1487D01*
X430Y1487D02*
X459Y1487D01*
X314Y1486D02*
X343Y1486D01*
X429Y1486D02*
X459Y1486D01*
X314Y1485D02*
X344Y1485D01*
X429Y1485D02*
X459Y1485D01*
X314Y1484D02*
X344Y1484D01*
X428Y1484D02*
X459Y1484D01*
X314Y1483D02*
X345Y1483D01*
X427Y1483D02*
X459Y1483D01*
X314Y1482D02*
X346Y1482D01*
X427Y1482D02*
X459Y1482D01*
X314Y1481D02*
X346Y1481D01*
X426Y1481D02*
X459Y1481D01*
X314Y1480D02*
X347Y1480D01*
X425Y1480D02*
X459Y1480D01*
X314Y1479D02*
X348Y1479D01*
X425Y1479D02*
X459Y1479D01*
X314Y1478D02*
X348Y1478D01*
X424Y1478D02*
X459Y1478D01*
X314Y1477D02*
X349Y1477D01*
X423Y1477D02*
X459Y1477D01*
X314Y1476D02*
X350Y1476D01*
X422Y1476D02*
X459Y1476D01*
X314Y1475D02*
X351Y1475D01*
X421Y1475D02*
X459Y1475D01*
X314Y1474D02*
X352Y1474D01*
X421Y1474D02*
X459Y1474D01*
X314Y1473D02*
X353Y1473D01*
X420Y1473D02*
X459Y1473D01*
X314Y1472D02*
X354Y1472D01*
X418Y1472D02*
X459Y1472D01*
X315Y1471D02*
X355Y1471D01*
X417Y1471D02*
X459Y1471D01*
X315Y1470D02*
X356Y1470D01*
X416Y1470D02*
X459Y1470D01*
X315Y1469D02*
X358Y1469D01*
X415Y1469D02*
X459Y1469D01*
X315Y1468D02*
X359Y1468D01*
X413Y1468D02*
X459Y1468D01*
X315Y1467D02*
X361Y1467D01*
X412Y1467D02*
X459Y1467D01*
X315Y1466D02*
X362Y1466D01*
X410Y1466D02*
X459Y1466D01*
X315Y1465D02*
X364Y1465D01*
X408Y1465D02*
X459Y1465D01*
X315Y1464D02*
X366Y1464D01*
X406Y1464D02*
X459Y1464D01*
X315Y1463D02*
X368Y1463D01*
X404Y1463D02*
X459Y1463D01*
X315Y1462D02*
X371Y1462D01*
X401Y1462D02*
X459Y1462D01*
X315Y1461D02*
X375Y1461D01*
X398Y1461D02*
X459Y1461D01*
X315Y1460D02*
X381Y1460D01*
X392Y1460D02*
X459Y1460D01*
X315Y1459D02*
X459Y1459D01*
X315Y1458D02*
X459Y1458D01*
X315Y1457D02*
X459Y1457D01*
X315Y1456D02*
X459Y1456D01*
X315Y1455D02*
X459Y1455D01*
X315Y1454D02*
X459Y1454D01*
X315Y1453D02*
X460Y1453D01*
X315Y1452D02*
X460Y1452D01*
X315Y1451D02*
X460Y1451D01*
X315Y1450D02*
X460Y1450D01*
X315Y1449D02*
X460Y1449D01*
X315Y1448D02*
X460Y1448D01*
X315Y1447D02*
X460Y1447D01*
X315Y1446D02*
X460Y1446D01*
X315Y1445D02*
X460Y1445D01*
X315Y1444D02*
X460Y1444D01*
X315Y1443D02*
X460Y1443D01*
X315Y1442D02*
X460Y1442D01*
X315Y1441D02*
X460Y1441D01*
X315Y1440D02*
X460Y1440D01*
X315Y1439D02*
X460Y1439D01*
X315Y1438D02*
X460Y1438D01*
X315Y1437D02*
X460Y1437D01*
X315Y1436D02*
X460Y1436D01*
X315Y1435D02*
X438Y1435D01*
X315Y1434D02*
X380Y1434D01*
X315Y1433D02*
X323Y1433D01*
D02*
G04 End of Copper0*
M02*