; NON-PLATED HOLES START AT T1
; THROUGH (PLATED) HOLES START AT T100
M48
INCH
T100C0.094488
T101C0.038333
T102C0.042251
T103C0.035000
T104C0.038361
T105C0.038306
T106C0.046111
%
T100
X003867Y015059
X003833Y017059
T101
X008563Y017604
X018222Y001028
X016622Y020028
X020222Y020028
X012622Y020028
X007622Y020028
X007523Y017604
X013622Y020028
X015622Y020028
X006484Y018596
X021222Y001028
X022222Y001028
X026209Y011062
X007523Y018596
X019222Y020028
X008622Y020028
X017222Y001028
X014622Y020028
X010622Y020028
X015222Y001028
X012222Y001028
X024222Y020028
X016222Y001028
X018222Y020028
X011622Y020028
X008563Y018596
X014222Y001028
X023222Y001028
X006484Y017604
X024222Y001028
X021222Y020028
X025222Y020028
X025222Y001028
X020222Y001028
X009622Y020028
X026209Y012054
X023222Y020028
T102
X024379Y013390
X024379Y016390
X024379Y014390
T103
X010510Y015129
X014510Y015129
T104
X025209Y010070
X025209Y011062
X026209Y010070
X022222Y020028
X025209Y012054
T105
X011222Y001028
X013222Y001028
T106
X004159Y003957
X003159Y003957
X005159Y003957
X006159Y003957
T00
M30
